<svg width="758" height="215" viewBox="0 0 758 215" fill="none" xmlns="http://www.w3.org/2000/svg">
<path d="M81.544 15.184C65.224 15.184 51.592 24.112 51.592 42.64C51.592 61.264 65.224 70 81.544 70C97.96 70 111.592 61.552 111.592 42.64C111.592 23.92 97.96 15.184 81.544 15.184ZM81.544 56.752C72.424 56.752 65.896 52.72 65.896 42.64C65.896 32.464 72.424 28.528 81.544 28.528C90.76 28.528 97.288 32.656 97.288 42.64C97.288 52.336 90.76 56.752 81.544 56.752ZM148.935 16.144C139.239 16.144 134.343 19.312 130.887 24.112H130.215V16.144H115.623V70H130.215V44.08C130.215 36.784 132.039 28.72 144.711 28.72C158.631 28.72 157.767 38.896 157.767 43.12V70H172.263V43.12C172.263 35.248 171.687 16.144 148.935 16.144ZM223.962 49.456V34.96H177.498V49.456H223.962ZM274.944 0.687994V24.112H274.08C270.432 19.312 264.384 16.144 254.4 16.144C231.648 16.144 229.248 35.248 229.248 43.12C229.248 50.32 231.744 70 254.304 70C264.48 70 270.624 67.216 274.272 62.512H274.944V70H289.536V0.687994H274.944ZM258.624 57.52C244.704 57.52 243.168 46.96 243.168 43.12C243.168 38.896 244.608 28.72 258.624 28.72C271.2 28.72 273.792 35.824 273.792 43.12C273.792 51.28 271.2 57.52 258.624 57.52ZM350.962 46.48H351.538C352.306 39.088 351.346 27.76 340.978 20.656V20.752C336.466 17.584 330.322 15.664 322.738 15.664C304.594 15.664 293.842 25.264 293.842 42.832C293.842 60.784 304.306 70 322.738 70C340.402 70 349.81 62.896 351.25 51.28H337.138C335.794 54.832 331.474 57.232 322.738 57.232C313.33 57.232 309.01 53.68 307.954 46.48H350.962ZM322.738 28.432C333.106 28.432 335.794 32.848 336.946 36.88H308.53C310.258 31.408 314.674 28.432 322.738 28.432ZM429.903 16.144C416.463 16.144 412.143 19.312 408.591 24.112H407.919C404.847 19.6 399.375 16.144 389.679 16.144C380.079 16.144 375.279 19.312 371.823 24.112H371.151V16.624H356.655V70H371.151V44.08C371.151 36.784 372.015 28.72 384.591 28.72C397.839 28.72 397.647 38.896 397.647 43.12V70H412.143V43.792L412.239 44.08C412.239 36.784 413.103 28.72 425.679 28.72C438.927 28.72 438.735 38.896 438.735 43.12V70H453.327V43.12C453.23 35.248 452.655 16.144 429.903 16.144ZM501.891 24.112C498.243 19.312 492.195 16.144 482.211 16.144C459.459 16.144 457.059 35.248 457.059 43.12C457.059 50.32 459.555 70 482.115 70C492.291 70 498.435 67.216 502.083 62.512H502.562V70H517.155V16.144H502.562V24.112H501.891ZM486.435 57.52C472.515 57.52 470.979 46.96 470.979 43.12C470.979 38.896 472.419 28.72 486.435 28.72C499.011 28.72 501.603 35.824 501.603 43.12C501.603 51.28 499.011 57.52 486.435 57.52ZM555.81 16.144C546.114 16.144 541.218 19.312 537.762 24.112H537.09V16.144H522.498V70H537.09V44.08C537.09 36.784 538.914 28.72 551.586 28.72C565.506 28.72 564.642 38.896 564.642 43.12V70H579.138V43.12C579.138 35.248 578.562 16.144 555.81 16.144ZM628.663 0.687994V24.112H627.799C624.151 19.312 618.103 16.144 608.119 16.144C585.367 16.144 582.967 35.248 582.967 43.12C582.967 50.32 585.463 70 608.023 70C618.199 70 624.343 67.216 627.991 62.512H628.663V70H643.255V0.687994H628.663ZM612.343 57.52C598.423 57.52 596.887 46.96 596.887 43.12C596.887 38.896 598.327 28.72 612.343 28.72C624.919 28.72 627.511 35.824 627.511 43.12C627.511 51.28 624.919 57.52 612.343 57.52ZM108.712 161.48H109.288C110.056 154.088 109.096 142.76 98.728 135.656V135.752C94.216 132.584 88.072 130.664 80.488 130.664C62.344 130.664 51.592 140.264 51.592 157.832C51.592 175.784 62.056 185 80.488 185C98.152 185 107.56 177.896 109 166.28H94.888C93.544 169.832 89.224 172.232 80.488 172.232C71.08 172.232 66.76 168.68 65.704 161.48H108.712ZM80.488 143.432C90.856 143.432 93.544 147.848 94.696 151.88H66.28C68.008 146.408 72.424 143.432 80.488 143.432ZM146.404 131.144C136.708 131.144 131.812 134.312 128.356 139.112H127.684V131.144H113.092V185H127.684V159.08C127.684 151.784 129.508 143.72 142.18 143.72C156.1 143.72 155.236 153.896 155.236 158.12V185H169.732V158.12C169.732 150.248 169.156 131.144 146.404 131.144ZM218.788 131.72V139.688H217.924C214.276 134.888 208.228 131.72 198.244 131.72C175.492 131.72 173.092 150.824 173.092 158.696C173.092 165.992 175.588 185.672 198.148 185.672C208.324 185.672 214.468 182.792 218.116 178.184H218.788V182.024C218.788 191.912 214.372 198.344 204.484 198.344C193.06 198.344 190.564 192.776 190.18 189.896C187.78 189.896 179.524 189.896 175.684 189.896C175.684 197.864 180.388 210.92 204.58 210.92C231.364 210.92 233.38 190.952 233.38 179.816V131.72H218.788ZM202.468 173.096C188.548 173.096 187.012 162.632 187.012 158.696C187.012 154.472 188.452 144.296 202.468 144.296C215.044 144.296 217.636 151.4 217.636 158.696C217.636 166.856 215.044 173.096 202.468 173.096ZM253.119 185V131.528H238.623V185H253.119ZM253.119 127.688V114.632H238.623V127.688H253.119ZM291.623 131.144C281.927 131.144 277.031 134.312 273.575 139.112H272.903V131.144H258.311V185H272.903V159.08C272.903 151.784 274.727 143.72 287.399 143.72C301.319 143.72 300.455 153.896 300.455 158.12V185H314.951V158.12C314.951 150.248 314.375 131.144 291.623 131.144ZM375.618 161.48H376.194C376.962 154.088 376.002 142.76 365.634 135.656V135.752C361.122 132.584 354.978 130.664 347.394 130.664C329.25 130.664 318.498 140.264 318.498 157.832C318.498 175.784 328.962 185 347.394 185C365.058 185 374.466 177.896 375.906 166.28H361.794C360.45 169.832 356.13 172.232 347.394 172.232C337.986 172.232 333.666 168.68 332.61 161.48H375.618ZM347.394 143.432C357.762 143.432 360.45 147.848 361.602 151.88H333.186C334.914 146.408 339.33 143.432 347.394 143.432ZM437.775 161.48H438.351C439.119 154.088 438.159 142.76 427.791 135.656V135.752C423.279 132.584 417.135 130.664 409.551 130.664C391.407 130.664 380.655 140.264 380.655 157.832C380.655 175.784 391.119 185 409.551 185C427.215 185 436.623 177.896 438.062 166.28H423.951C422.607 169.832 418.287 172.232 409.551 172.232C400.143 172.232 395.823 168.68 394.767 161.48H437.775ZM409.551 143.432C419.919 143.432 422.607 147.848 423.759 151.88H395.343C397.071 146.408 401.487 143.432 409.551 143.432ZM473.821 131.144C464.509 131.144 461.245 133.928 458.173 139.112H457.309V131.144H442.717V185H457.309V160.904C457.309 153.608 460.477 145.16 471.325 145.16C475.933 145.16 479.677 145.928 481.021 146.312L483.325 132.584C480.829 132.008 477.661 131.144 473.821 131.144ZM499.869 185V131.528H485.373V185H499.869ZM499.869 127.688V114.632H485.373V127.688H499.869ZM538.373 131.144C528.677 131.144 523.781 134.312 520.325 139.112H519.653V131.144H505.061V185H519.653V159.08C519.653 151.784 521.477 143.72 534.149 143.72C548.069 143.72 547.205 153.896 547.205 158.12V185H561.701V158.12C561.701 150.248 561.125 131.144 538.373 131.144ZM610.757 131.72V139.688H609.893C606.245 134.888 600.197 131.72 590.213 131.72C567.461 131.72 565.061 150.824 565.061 158.696C565.061 165.992 567.557 185.672 590.117 185.672C600.293 185.672 606.437 182.792 610.085 178.184H610.757V182.024C610.757 191.912 606.341 198.344 596.453 198.344C585.029 198.344 582.533 192.776 582.149 189.896C579.749 189.896 571.493 189.896 567.653 189.896C567.653 197.864 572.357 210.92 596.549 210.92C623.333 210.92 625.349 190.952 625.349 179.816V131.72H610.757ZM594.437 173.096C580.517 173.096 578.981 162.632 578.981 158.696C578.981 154.472 580.421 144.296 594.437 144.296C607.013 144.296 609.605 151.4 609.605 158.696C609.605 166.856 607.013 173.096 594.437 173.096Z" fill="white"/>
<path d="M17.8774 43L-0.000135109 61.0011L5.95764 67L29.793 43L5.95764 19L0.00407808 24.9989L17.8774 43Z" fill="#65FEB7"/>
</svg>
