<svg width="38" height="33" viewBox="0 0 38 33">
<path fill-rule="evenodd" clip-rule="evenodd" d="M21.986 27.9681C26.9054 27.9681 31.1307 24.9966 32.965 20.7505H37.288C35.2684 27.2825 29.1814 32.028 21.986 32.028C14.7906 32.028 8.70363 27.2825 6.68403 20.7505H11.007C12.8413 24.9966 17.0666 27.9681 21.986 27.9681ZM21.986 4.05989C17.0666 4.05989 12.8413 7.03142 11.007 11.2775H6.68403C8.70363 4.7455 14.7906 0 21.986 0C29.1814 0 35.2684 4.7455 37.288 11.2775H37.2899C37.9004 13.3956 38 15.0349 38 15.7885C38 16.9903 37.9004 17.8207 37.9004 17.8207H0L3.15769 13.8674H20.5947H29.3665H33.7498C33.7498 13.8674 33.489 12.4052 32.9657 11.2775H32.965C31.1307 7.03142 26.9054 4.05989 21.986 4.05989Z" fill="currentColor"/>
</svg>
