<svg viewBox="124 110 172 178" fill="none">
  <path d="M128.38 173.607C128.38 172.323 129.286 170.813 130.343 170.209L227.15 114.33C228.207 113.726 230.019 113.726 231.076 114.33L233.266 115.614C234.323 116.218 235.229 117.728 235.229 119.012V195.958C235.229 197.167 234.323 198.752 233.266 199.357L136.46 255.235C135.403 255.84 133.59 255.84 132.533 255.235L130.343 253.952C129.286 253.348 128.38 251.762 128.38 250.554V173.607Z" fill="url(#paint0_radial_673_27077)"/>
  <g opacity="0.7">
    <g opacity="0.7">
      <path opacity="0.7" d="M128.38 173.607C128.38 172.323 129.286 170.813 130.343 170.209L227.15 114.33C228.207 113.726 230.019 113.726 231.076 114.33L233.266 115.614C234.323 116.218 235.229 117.728 235.229 119.012V195.958C235.229 197.167 234.323 198.752 233.266 199.357L136.46 255.235C135.403 255.84 133.59 255.84 132.533 255.235L130.343 253.952C129.286 253.348 128.38 251.762 128.38 250.554V173.607Z" fill="#242424"/>
    </g>
  </g>
  <path d="M128.984 171.641L134.572 174.888L234.701 117.046C234.323 116.441 233.87 115.913 233.341 115.611L231.152 114.327C230.094 113.723 228.282 113.723 227.225 114.327L130.419 170.206C129.815 170.508 129.361 171.037 128.984 171.641Z" fill="#426B7A"/>
  <path opacity="0.8" d="M128.984 171.641L134.572 174.888L234.701 117.046C234.323 116.441 233.87 115.913 233.341 115.611L231.152 114.327C230.094 113.723 228.282 113.723 227.225 114.327L130.419 170.206C129.815 170.508 129.361 171.037 128.984 171.641Z" fill="white"/>
  <path opacity="0.1" d="M128.38 173.606V250.553C128.38 251.836 129.286 253.347 130.343 253.951L132.533 255.234C132.684 255.31 132.911 255.385 133.062 255.461C133.288 255.536 133.59 255.612 133.892 255.612C134.421 255.687 134.949 255.687 135.478 255.536C135.629 255.536 135.705 255.461 135.856 255.461C135.931 255.461 136.007 255.385 136.082 255.385C135.705 255.536 135.403 255.461 135.1 255.385C134.723 255.159 134.496 254.781 134.496 254.102V177.155C134.496 176.324 134.874 175.72 135.554 175.494L134.496 174.89L128.908 171.643C128.606 172.247 128.38 173.002 128.38 173.606Z" fill="#426B7A"/>
  <path opacity="0.05" d="M128.38 173.606V250.553C128.38 251.836 129.286 253.347 130.343 253.951L132.533 255.234C132.684 255.31 132.911 255.385 133.062 255.461C133.288 255.536 133.59 255.612 133.892 255.612C134.421 255.687 134.949 255.687 135.478 255.536C135.629 255.536 135.705 255.461 135.856 255.461C135.931 255.461 136.007 255.385 136.082 255.385C135.705 255.536 135.403 255.461 135.1 255.385C134.723 255.159 134.496 254.781 134.496 254.102V177.155C134.496 176.324 134.874 175.72 135.554 175.494L134.496 174.89L128.908 171.643C128.606 172.247 128.38 173.002 128.38 173.606Z" fill="black"/>
  <path opacity="0.2" d="M134.572 174.888L181.087 192.256C184.41 193.464 188.11 192.256 190.073 189.311L197.549 177.908L234.776 117.121L199.059 178.361L235.38 196.031C235.38 196.635 235.154 197.39 234.776 197.994L198.984 178.512L190.3 192.407C188.336 195.578 184.259 196.862 180.861 195.276L174.669 192.558L135.327 255.384C134.949 255.157 134.723 254.779 134.723 254.1V252.816L174.518 192.482L134.572 174.888Z" fill="#426B7A"/>
  <path opacity="0.05" d="M134.572 174.888L181.087 192.256C184.41 193.464 188.11 192.256 190.073 189.311L197.549 177.908L234.776 117.121L199.059 178.361L235.38 196.031C235.38 196.635 235.154 197.39 234.776 197.994L198.984 178.512L190.3 192.407C188.336 195.578 184.259 196.862 180.861 195.276L174.669 192.558L135.327 255.384C134.949 255.157 134.723 254.779 134.723 254.1V252.816L174.518 192.482L134.572 174.888Z" fill="black"/>
  <path d="M157.224 187.888C157.224 186.604 158.13 185.094 159.187 184.49L255.994 128.611C257.051 128.007 258.863 128.007 259.92 128.611L262.11 129.895C263.167 130.499 264.074 132.009 264.074 133.293V210.24C264.074 211.448 263.167 213.034 262.11 213.638L165.304 269.517C164.247 270.121 162.434 270.121 161.377 269.517L159.187 268.157C158.13 267.553 157.224 266.043 157.224 264.759V187.888Z" fill="url(#paint1_radial_673_27077)"/>
  <g opacity="0.5">
    <g opacity="0.5">
      <path opacity="0.5" d="M157.224 187.888C157.224 186.604 158.13 185.094 159.187 184.49L255.994 128.611C257.051 128.007 258.863 128.007 259.92 128.611L262.11 129.895C263.167 130.499 264.074 132.009 264.074 133.293V210.24C264.074 211.448 263.167 213.034 262.11 213.638L165.304 269.517C164.247 270.121 162.434 270.121 161.377 269.517L159.187 268.157C158.13 267.553 157.224 266.043 157.224 264.759V187.888Z" fill="#242424"/>
    </g>
  </g>
  <path d="M157.829 185.919L163.417 189.166L263.545 131.324C263.168 130.72 262.715 130.191 262.186 129.889L259.996 128.605C258.939 128.001 257.127 128.001 256.07 128.605L159.263 184.484C158.659 184.786 158.206 185.315 157.829 185.919Z" fill="#5C6E5C"/>
  <path opacity="0.6" d="M157.829 185.919L163.417 189.166L263.545 131.324C263.168 130.72 262.715 130.191 262.186 129.889L259.996 128.605C258.939 128.001 257.127 128.001 256.07 128.605L159.263 184.484C158.659 184.786 158.206 185.315 157.829 185.919Z" fill="#F27B50"/>
  <path opacity="0.1" d="M157.224 187.883V264.829C157.224 266.113 158.13 267.623 159.187 268.227L161.377 269.511C161.528 269.587 161.755 269.662 161.906 269.738C162.132 269.813 162.434 269.889 162.736 269.889C163.265 269.964 163.794 269.964 164.322 269.813C164.473 269.813 164.549 269.738 164.7 269.738C164.775 269.738 164.851 269.662 164.926 269.662C164.549 269.813 164.247 269.738 164.02 269.662C163.643 269.436 163.416 269.058 163.416 268.378V191.356C163.416 190.525 163.794 189.921 164.473 189.695L163.416 189.091L157.828 185.844C157.451 186.523 157.224 187.203 157.224 187.883Z" fill="black"/>
  <path opacity="0.4" d="M163.417 189.166L209.932 206.534C213.254 207.742 216.955 206.534 218.918 203.589L226.394 192.187L263.621 131.399L227.904 192.64L264.225 210.309C264.225 210.914 263.998 211.669 263.621 212.273L227.828 192.791L219.144 206.685C217.181 209.856 213.103 211.14 209.705 209.554L203.513 206.836L164.172 269.662C163.794 269.435 163.568 269.058 163.568 268.378V267.094L203.362 206.76L163.417 189.166Z" fill="#2F4754"/>
  <path opacity="0.05" d="M163.417 189.166L209.932 206.534C213.254 207.742 216.955 206.534 218.918 203.589L226.394 192.187L263.621 131.399L227.904 192.64L264.225 210.309C264.225 210.914 263.998 211.669 263.621 212.273L227.828 192.791L219.144 206.685C217.181 209.856 213.103 211.14 209.705 209.554L203.513 206.836L164.172 269.662C163.794 269.435 163.568 269.058 163.568 268.378V267.094L203.362 206.76L163.417 189.166Z" fill="black"/>
  <path d="M184.926 202.597L285.659 144.453L289.661 146.794C290.718 147.398 291.549 148.908 291.549 150.041V224.345C291.549 225.553 290.718 226.988 289.661 227.592L192.704 283.546C191.646 284.15 189.985 284.15 188.928 283.546L186.814 282.338C185.756 281.734 184.926 280.224 184.926 279.091V202.597Z" fill="#3BBC80"/>
  <path opacity="0.2" d="M184.461 202.452L285.194 144.308L289.196 146.648C290.253 147.253 291.084 148.763 291.084 149.896V224.199C291.084 225.408 290.253 226.842 289.196 227.446L192.239 283.401C191.182 284.005 189.52 284.005 188.463 283.401L186.349 282.193C185.292 281.588 184.461 280.078 184.461 278.946V202.452Z" fill="black"/>
  <path d="M285.054 137.882L285.432 137.656L283.846 136.75C283.695 136.674 283.544 136.599 283.393 136.523L239.068 120.061C237.859 119.608 236.349 120.137 235.669 121.119L186.058 193.535C185.379 194.592 184.774 196.404 184.774 197.688C184.774 199.727 184.774 202.521 184.774 202.521L186.285 203.427L285.432 144.376V139.544C285.658 139.015 285.432 138.411 285.054 137.882Z" fill="#347D65"/>
  <path opacity="0.1" d="M237.86 121.575C237.633 121.726 237.482 121.877 237.331 122.104L187.72 194.52C187.342 195.049 187.04 195.804 186.813 196.559L185.303 195.653C185.379 195.275 185.53 194.898 185.681 194.52C185.756 194.369 185.832 194.218 185.907 194.067V193.991C185.983 193.84 186.058 193.689 186.209 193.538L235.821 121.122C235.896 120.971 235.972 120.896 236.047 120.82C236.123 120.745 236.198 120.669 236.349 120.594L237.86 121.575Z" fill="#595A5A"/>
  <path opacity="0.35" d="M285.507 137.662C285.356 137.586 285.205 137.511 285.054 137.435L240.729 120.974C239.823 120.596 238.614 120.898 237.859 121.502L236.349 120.596C237.104 119.917 238.312 119.69 239.219 120.068L283.544 136.529C283.695 136.605 283.846 136.68 283.922 136.756L285.507 137.662Z" fill="#65FEB7"/>
  <path d="M185.907 194.067C185.983 193.916 186.058 193.765 186.209 193.614C186.134 193.765 186.058 193.916 185.907 194.067Z" fill="#65FEB7"/>
  <path d="M236.047 120.897C236.123 120.822 236.198 120.746 236.349 120.671C236.198 120.746 236.123 120.822 236.047 120.897Z" fill="#65FEB7"/>
  <path d="M185.303 195.723C185.454 195.345 185.53 194.967 185.681 194.59C185.53 194.967 185.379 195.345 185.303 195.723Z" fill="#65FEB7"/>
  <path d="M185.681 194.594C185.756 194.443 185.832 194.292 185.907 194.141C185.832 194.292 185.756 194.443 185.681 194.594Z" fill="#65FEB7"/>
  <path opacity="0.2" d="M235.82 121.196C235.896 121.12 235.971 120.969 236.047 120.894C235.971 120.969 235.896 121.12 235.82 121.196Z" fill="black"/>
  <path d="M237.331 122.105L187.72 194.521C187.04 195.578 186.436 197.391 186.436 198.674C186.436 200.713 186.436 203.507 186.436 203.507L287.169 145.363V140.53C287.169 139.246 286.187 137.887 285.055 137.51L240.729 121.048C239.596 120.595 238.011 121.048 237.331 122.105Z" fill="#65FEB7"/>
  <path opacity="0.05" d="M287.169 140.531C287.169 139.927 286.943 139.323 286.64 138.87L186.814 196.637C186.587 197.316 186.436 198.072 186.436 198.676C186.436 200.714 186.436 203.508 186.436 203.508L287.169 145.364V140.531Z" fill="black"/>
  <path d="M282.865 120.062C282.865 119.534 282.714 119.156 282.412 119.005C282.11 118.854 279.618 117.419 279.316 117.193C279.014 117.042 278.636 117.042 278.183 117.344L195.573 165.068C194.667 165.596 193.912 166.88 193.912 167.937V266.858C193.912 267.386 194.063 267.764 194.365 267.915C194.667 268.066 197.159 269.501 197.461 269.652C197.763 269.803 198.14 269.803 198.593 269.501L281.203 221.777C282.11 221.249 282.865 219.965 282.865 218.983V120.062Z" fill="#786841"/>
  <path d="M198.447 269.569L281.057 221.846C281.963 221.317 282.718 220.033 282.718 218.976V120.055C282.718 118.998 281.963 118.621 281.057 119.149L198.447 166.873C197.541 167.401 196.786 168.685 196.786 169.742V268.663C196.786 269.645 197.541 270.098 198.447 269.569Z" fill="url(#paint2_radial_673_27077)"/>
  <path d="M238.039 193.139C238.039 193.139 238.245 195.918 234.806 197.945C235.052 200.221 235.05 200.201 235.05 200.201L238.578 198.122L239.523 206.853L242.218 205.265L240.733 191.551L238.039 193.139Z" fill="white"/>
  <path d="M247.575 187.29C244.26 189.244 242.185 193.075 242.673 197.588C243.17 202.179 245.767 203.174 249.083 201.22C252.416 199.257 254.49 195.425 254.002 190.913C253.514 186.4 250.908 185.326 247.575 187.29ZM248.768 198.317C246.73 199.518 245.692 198.815 245.386 195.989C245.082 193.184 245.853 191.415 247.891 190.214C249.948 189.002 250.99 189.744 251.29 192.511C251.585 195.238 250.825 197.105 248.768 198.317Z" fill="white"/>
  <path d="M260.075 179.925C256.76 181.878 254.685 185.71 255.174 190.222C255.67 194.813 258.267 195.809 261.583 193.855C264.916 191.891 266.991 188.06 266.502 183.547C266.014 179.035 263.408 177.961 260.075 179.925ZM261.269 190.951C259.23 192.153 258.192 191.449 257.886 188.624C257.582 185.818 258.353 184.05 260.392 182.848C262.448 181.637 263.49 182.379 263.79 185.146C264.085 187.873 263.325 189.74 261.269 190.951Z" fill="white"/>
  <path fill-rule="evenodd" clip-rule="evenodd" d="M224.399 213.552C226.812 212.13 228.713 209.324 229.367 206.528L231.487 205.279C230.874 209.348 228.163 213.638 224.634 215.718C221.105 217.797 217.846 217.024 216.478 214.122L218.598 212.873C219.743 214.609 221.987 214.973 224.399 213.552ZM223.019 200.795C220.606 202.217 218.706 205.023 218.051 207.819L215.931 209.068C216.544 204.999 219.256 200.708 222.785 198.629C226.313 196.55 229.573 197.323 230.94 200.224L230.941 200.224C231.363 201.178 231.506 202.023 231.55 202.426C231.619 203.067 231.618 203.539 231.618 203.539L213.031 214.491L214.351 211.469L222.903 206.43L227.205 203.895L229.355 202.629C229.355 202.629 229.142 201.924 228.82 201.473L228.82 201.474C227.675 199.738 225.432 199.374 223.019 200.795Z" fill="#65FEB7"/>
  <path d="M197.008 268.593C197.008 269.046 197.159 269.424 197.385 269.575C196.857 269.273 194.667 267.989 194.44 267.838C194.138 267.687 193.987 267.309 193.987 266.781V167.86C193.987 167.332 194.138 166.803 194.44 166.274L197.536 168.011C197.234 168.54 197.083 169.068 197.083 169.597V268.593H197.008Z" fill="#655838"/>
  <path d="M288.981 225.325C288.981 225.401 288.906 225.401 288.906 225.476L246.921 212.186C243.599 210.752 239.747 211.884 237.86 214.98L193.006 281.657L191.344 282.639C190.816 282.941 190.363 282.941 190.061 282.79L236.198 214.074C238.086 210.978 242.013 209.846 245.26 211.28L288.981 225.325Z" fill="url(#paint3_linear_673_27077)"/>
  <path opacity="0.4" d="M233.706 221.474L233.782 221.399L193.006 281.658L191.344 282.639C190.816 282.941 190.363 282.941 190.061 282.79L232.121 220.568L233.706 221.474Z" fill="#2E4551"/>
  <path opacity="0.4" d="M288.981 225.323C288.981 225.399 288.906 225.399 288.906 225.474L246.921 212.184C243.598 210.749 239.747 211.882 237.859 214.978L236.198 213.996C238.086 210.976 241.937 209.768 245.26 211.203L288.981 225.323Z" fill="#2F4753"/>
  <path d="M291.548 149.511C291.473 148.982 291.171 148.831 290.793 149.057C290.642 149.133 290.491 149.36 290.34 149.586L290.114 149.888L248.733 212.865L242.541 221.473C241.862 222.455 240.351 222.984 239.143 222.757L233.782 221.473L193.005 206.447C192.703 206.371 192.401 206.371 192.175 206.447C192.099 206.447 191.948 206.522 191.873 206.522L193.383 205.616L232.423 219.963L237.557 221.776C238.766 222.078 240.276 221.473 240.955 220.492L247.147 211.883L288.754 148.604C288.905 148.453 289.057 148.302 289.208 148.151L285.583 146.037L287.093 145.131L289.585 146.566C290.567 147.245 291.322 148.453 291.548 149.511Z" fill="url(#paint4_linear_673_27077)"/>
  <path opacity="0.4" d="M248.658 212.864L242.466 221.472C241.786 222.454 240.276 222.982 239.068 222.756L233.707 221.472L233.782 221.397L234.009 221.019L237.482 221.85C238.69 222.152 240.201 221.548 240.88 220.566L246.997 212.033L248.658 212.864Z" fill="#3F6675"/>
  <path opacity="0.1" d="M289.661 146.715L287.169 145.28L285.659 146.111L289.284 148.225C289.133 148.376 288.906 148.452 288.831 148.678L247.223 211.957L247.148 212.033L248.658 212.864L290.114 149.887L290.341 149.584C290.492 149.358 290.643 149.207 290.794 149.056C291.171 148.829 291.473 148.98 291.549 149.509C291.322 148.452 290.567 147.244 289.661 146.715Z" fill="#283B47"/>
  <path d="M193.836 207.731L184.926 202.596V279.089C184.926 280.298 185.756 281.732 186.814 282.336L188.928 283.545C189.985 284.149 191.646 284.149 192.704 283.545L193.761 282.94V207.731H193.836Z" fill="#30A16D"/>
  <path opacity="0.15" d="M193.371 207.168L184.461 202.033V278.527C184.461 279.735 185.292 281.17 186.349 281.774L188.463 282.982C189.52 283.586 191.182 283.586 192.239 282.982L193.296 282.378V207.168H193.371Z" fill="#2F9666"/>
  <path d="M291.549 150.041V224.345C291.549 224.949 291.322 225.629 290.945 226.233C290.643 226.761 290.265 227.139 289.812 227.516H289.736C289.661 227.516 289.661 227.592 289.585 227.592L192.628 283.546C192.099 283.848 191.646 283.848 191.344 283.697C191.042 283.546 190.816 283.244 190.74 282.791C190.74 282.716 190.74 282.565 190.74 282.414V208.11C190.74 206.902 191.646 206.146 192.855 206.448L233.631 221.475L238.992 222.759C240.201 223.061 241.711 222.457 242.39 221.475L248.582 212.867L289.963 149.89L290.19 149.588C291.02 148.606 291.549 148.833 291.549 150.041Z" fill="url(#paint5_radial_673_27077)"/>
  <path d="M289.661 227.592C289.736 227.592 289.736 227.517 289.812 227.517L289.887 227.441C290.341 227.139 290.718 226.686 291.02 226.233C291.398 225.629 291.624 224.949 291.624 224.345L248.733 212.867L277.428 234.69L289.661 227.592Z" fill="#212D38"/>
  <path opacity="0.2" d="M289.661 227.592C289.736 227.592 289.736 227.517 289.812 227.517L289.887 227.441C290.341 227.139 290.718 226.686 291.02 226.233C291.398 225.629 291.624 224.949 291.624 224.345L248.733 212.867L277.428 234.69L289.661 227.592Z" fill="#202B36"/>
  <path d="M190.891 282.486C190.891 283.09 191.118 283.543 191.495 283.77C191.797 283.921 192.25 283.921 192.779 283.619L226.155 264.363L233.782 221.548L190.891 281.278V282.486Z" fill="#293C48"/>
  <path opacity="0.15" d="M237.859 214.905L191.42 283.696C191.042 283.545 190.815 283.092 190.815 282.488V281.28L236.123 214.074L237.859 214.905Z" fill="#304A56"/>
  <path d="M291.02 226.231C290.718 226.76 290.34 227.137 289.887 227.439L289.812 227.515L192.779 283.545C192.25 283.847 191.797 283.847 191.495 283.696L237.935 214.904C239.823 211.808 243.749 210.676 247.072 212.11L291.02 226.231Z" fill="url(#paint6_radial_673_27077)"/>
  <path opacity="0.15" d="M185.303 195.725L186.814 196.631C186.587 197.386 186.436 198.065 186.436 198.67C186.436 200.708 186.436 203.502 186.436 203.502L184.926 202.596C184.926 202.596 184.926 199.878 184.926 197.763C184.926 197.159 185.077 196.404 185.303 195.725Z" fill="#2B825F"/>
  <path d="M193.383 205.692L191.873 206.522L190.287 205.692L186.436 203.426L187.946 202.596L193.383 205.692Z" fill="#2A835F"/>
  <path opacity="0.1" d="M193.459 205.692L187.946 202.596L186.436 203.502L190.287 205.692L191.873 206.598C191.948 206.522 192.099 206.522 192.175 206.522C192.401 206.447 192.704 206.522 193.006 206.522L196.102 207.655L231.668 220.719L232.196 219.888L193.459 205.692Z" fill="#5A6E60"/>
  <rect width="33" height="4" rx="2" transform="matrix(0.866025 -0.5 0.0989724 0.99509 211.94 167.559)" fill="#65FEB7"/>
  <rect width="23" height="4" rx="2" transform="matrix(0.866025 -0.5 0.0989724 0.99509 214.316 191.44)" fill="#BA54EC"/>
  <rect width="13" height="4" rx="2" transform="matrix(0.866025 -0.5 0.0989724 0.99509 212.732 175.52)" fill="#F27B50"/>
  <rect width="10" height="4" rx="2" transform="matrix(-0.866025 0.5 0.0989724 0.99509 236.115 162.02)" fill="#65FEB7"/>
  <rect width="12" height="4" rx="2" transform="matrix(-0.866025 0.5 0.0989724 0.99509 265.485 153.48)" fill="#BA54EC"/>
  <rect width="10" height="4" rx="2" transform="matrix(-0.866025 0.5 0.0989724 0.99509 253.51 143.559)" fill="#F27B50"/>
  <rect width="27" height="4" rx="2" transform="matrix(-0.866025 0.5 0.0989724 0.99509 251.629 161.48)" fill="#F27B50"/>
  <rect width="35" height="4" rx="2" transform="matrix(-0.866025 0.5 0.0989724 0.99509 269.89 142.52)" fill="#65FEB7"/>
  <rect width="13" height="4" rx="2" transform="matrix(0.866025 -0.5 0.0989724 0.99509 213.524 183.48)" fill="#65FEB7"/>
  <defs>
    <radialGradient id="paint0_radial_673_27077" cx="0" cy="0" r="1" gradientUnits="userSpaceOnUse" gradientTransform="translate(115.992 143.074) scale(128.911 158.922)">
      <stop stop-color="white"/>
      <stop offset="0.4742" stop-color="white"/>
      <stop offset="0.5875" stop-color="#F4F3F3"/>
      <stop offset="0.7262" stop-color="#B8B8B8"/>
      <stop offset="1" stop-color="#CDCDCD"/>
    </radialGradient>
    <radialGradient id="paint1_radial_673_27077" cx="0" cy="0" r="1" gradientUnits="userSpaceOnUse" gradientTransform="translate(144.836 157.355) scale(128.911 158.922)">
      <stop stop-color="#F27B50"/>
      <stop offset="0.4742" stop-color="#F27B50"/>
      <stop offset="0.5875" stop-color="#BD7257"/>
      <stop offset="0.7262" stop-color="#CB592F"/>
      <stop offset="1" stop-color="#813B21"/>
    </radialGradient>
    <radialGradient id="paint2_radial_673_27077" cx="0" cy="0" r="1" gradientUnits="userSpaceOnUse" gradientTransform="translate(177.5 107.998) rotate(46.4917) scale(135.811 413.087)">
      <stop stop-color="#8B7F5A"/>
      <stop offset="0.505208" stop-color="#6B5935"/>
      <stop offset="0.661458" stop-color="#656E50"/>
      <stop offset="0.796875" stop-color="#426C7B"/>
      <stop offset="1" stop-color="#1F2A35"/>
    </radialGradient>
    <linearGradient id="paint3_linear_673_27077" x1="239.521" y1="210.665" x2="232.372" y2="234.936" gradientUnits="userSpaceOnUse">
      <stop stop-color="#3D616F"/>
      <stop offset="1" stop-color="#308861"/>
    </linearGradient>
    <linearGradient id="paint4_linear_673_27077" x1="291.827" y1="151.814" x2="231.217" y2="219.351" gradientUnits="userSpaceOnUse">
      <stop stop-color="#355361"/>
      <stop offset="1" stop-color="#2F9666"/>
    </linearGradient>
    <radialGradient id="paint5_radial_673_27077" cx="0" cy="0" r="1" gradientUnits="userSpaceOnUse" gradientTransform="translate(200.046 117.758) rotate(37.2939) scale(124.802 289.148)">
      <stop stop-color="#65FEB7"/>
      <stop offset="0.505208" stop-color="#42D18F"/>
      <stop offset="0.661458" stop-color="#268659"/>
      <stop offset="0.796875" stop-color="#426C7B"/>
      <stop offset="1" stop-color="#1F2A35"/>
    </radialGradient>
    <radialGradient id="paint6_radial_673_27077" cx="0" cy="0" r="1" gradientUnits="userSpaceOnUse" gradientTransform="translate(148.095 118.912) rotate(40.3787) scale(177.313 223.141)">
      <stop stop-color="#8B7F5A"/>
      <stop offset="0.505208" stop-color="#6B5935"/>
      <stop offset="0.661458" stop-color="#656E50"/>
      <stop offset="0.796875" stop-color="#426C7B"/>
      <stop offset="1" stop-color="#1F2A35"/>
    </radialGradient>
  </defs>
</svg>
