<svg width="596" height="129" viewBox="0 0 596 129" fill="none">
  <rect x="596" y="8" width="18" height="8" transform="rotate(-180 596 8)" fill="#65FEB7"/>
  <rect x="596" y="19" width="18" height="8" transform="rotate(-180 596 19)" fill="#65FEB7"/>
  <rect x="596" y="30" width="18" height="8" transform="rotate(-180 596 30)" fill="#65FEB7"/>
  <rect x="596" y="41" width="18" height="8" transform="rotate(-180 596 41)" fill="#65FEB7"/>
  <rect x="596" y="52" width="18" height="8" transform="rotate(-180 596 52)" fill="#65FEB7"/>
  <rect x="596" y="63" width="18" height="8" transform="rotate(-180 596 63)" fill="#65FEB7"/>
  <rect x="596" y="74" width="18" height="8" transform="rotate(-180 596 74)" fill="#65FEB7"/>
  <rect x="596" y="85" width="18" height="8" transform="rotate(-180 596 85)" fill="#65FEB7"/>
  <rect x="596" y="96" width="18" height="8" transform="rotate(-180 596 96)" fill="#65FEB7"/>
  <rect x="562" y="8" width="18" height="8" transform="rotate(-180 562 8)" fill="#65FEB7"/>
  <rect x="562" y="19" width="18" height="8" transform="rotate(-180 562 19)" fill="#65FEB7"/>
  <rect x="562" y="30" width="18" height="8" transform="rotate(-180 562 30)" fill="#65FEB7"/>
  <rect x="562" y="41" width="18" height="8" transform="rotate(-180 562 41)" fill="#65FEB7"/>
  <rect x="562" y="52" width="18" height="8" transform="rotate(-180 562 52)" fill="#65FEB7"/>
  <rect x="562" y="63" width="18" height="8" transform="rotate(-180 562 63)" fill="#65FEB7"/>
  <rect x="528" y="8" width="18" height="8" transform="rotate(-180 528 8)" fill="#65FEB7"/>
  <rect x="528" y="19" width="18" height="8" transform="rotate(-180 528 19)" fill="#65FEB7"/>
  <rect x="494" y="8" width="18" height="8" transform="rotate(-180 494 8)" fill="#65FEB7"/>
  <rect x="494" y="19" width="18" height="8" transform="rotate(-180 494 19)" fill="#65FEB7"/>
  <rect x="494" y="30" width="18" height="8" transform="rotate(-180 494 30)" fill="#65FEB7"/>
  <rect x="494" y="41" width="18" height="8" transform="rotate(-180 494 41)" fill="#65FEB7"/>
  <rect x="494" y="52" width="18" height="8" transform="rotate(-180 494 52)" fill="#65FEB7"/>
  <rect x="494" y="63" width="18" height="8" transform="rotate(-180 494 63)" fill="#65FEB7"/>
  <rect x="494" y="74" width="18" height="8" transform="rotate(-180 494 74)" fill="#65FEB7"/>
  <rect x="494" y="85" width="18" height="8" transform="rotate(-180 494 85)" fill="#65FEB7"/>
  <rect x="494" y="96" width="18" height="8" transform="rotate(-180 494 96)" fill="#65FEB7"/>
  <rect x="494" y="107" width="18" height="8" transform="rotate(-180 494 107)" fill="#65FEB7"/>
  <rect x="460" y="8" width="18" height="8" transform="rotate(-180 460 8)" fill="#65FEB7"/>
  <rect x="460" y="19" width="18" height="8" transform="rotate(-180 460 19)" fill="#65FEB7"/>
  <rect x="460" y="30" width="18" height="8" transform="rotate(-180 460 30)" fill="#65FEB7"/>
  <rect x="460" y="41" width="18" height="8" transform="rotate(-180 460 41)" fill="#65FEB7"/>
  <rect x="460" y="52" width="18" height="8" transform="rotate(-180 460 52)" fill="#65FEB7"/>
  <rect x="460" y="63" width="18" height="8" transform="rotate(-180 460 63)" fill="#65FEB7"/>
  <rect x="460" y="74" width="18" height="8" transform="rotate(-180 460 74)" fill="#65FEB7"/>
  <rect x="426" y="8" width="18" height="8" transform="rotate(-180 426 8)" fill="#65FEB7"/>
  <rect x="426" y="19" width="18" height="8" transform="rotate(-180 426 19)" fill="#65FEB7"/>
  <rect x="426" y="30" width="18" height="8" transform="rotate(-180 426 30)" fill="#65FEB7"/>
  <rect x="426" y="41" width="18" height="8" transform="rotate(-180 426 41)" fill="#65FEB7"/>
  <rect x="426" y="52" width="18" height="8" transform="rotate(-180 426 52)" fill="#65FEB7"/>
  <rect x="426" y="63" width="18" height="8" transform="rotate(-180 426 63)" fill="#65FEB7"/>
  <rect x="426" y="74" width="18" height="8" transform="rotate(-180 426 74)" fill="#65FEB7"/>
  <rect x="426" y="85" width="18" height="8" transform="rotate(-180 426 85)" fill="#65FEB7"/>
  <rect x="426" y="96" width="18" height="8" transform="rotate(-180 426 96)" fill="#65FEB7"/>
  <rect x="426" y="107" width="18" height="8" transform="rotate(-180 426 107)" fill="#65FEB7"/>
  <rect x="426" y="118" width="18" height="8" transform="rotate(-180 426 118)" fill="#65FEB7"/>
  <rect x="392" y="8" width="18" height="8" transform="rotate(-180 392 8)" fill="#65FEB7"/>
  <rect x="392" y="19" width="18" height="8" transform="rotate(-180 392 19)" fill="#65FEB7"/>
  <rect x="392" y="30" width="18" height="8" transform="rotate(-180 392 30)" fill="#65FEB7"/>
  <rect x="392" y="41" width="18" height="8" transform="rotate(-180 392 41)" fill="#65FEB7"/>
  <rect x="392" y="52" width="18" height="8" transform="rotate(-180 392 52)" fill="#65FEB7"/>
  <rect x="392" y="63" width="18" height="8" transform="rotate(-180 392 63)" fill="#65FEB7"/>
  <rect x="392" y="74" width="18" height="8" transform="rotate(-180 392 74)" fill="#65FEB7"/>
  <rect x="392" y="85" width="18" height="8" transform="rotate(-180 392 85)" fill="#65FEB7"/>
  <rect x="358" y="8" width="18" height="8" transform="rotate(-180 358 8)" fill="#65FEB7"/>
  <rect x="358" y="19" width="18" height="8" transform="rotate(-180 358 19)" fill="#65FEB7"/>
  <rect x="358" y="30" width="18" height="8" transform="rotate(-180 358 30)" fill="#65FEB7"/>
  <rect x="358" y="41" width="18" height="8" transform="rotate(-180 358 41)" fill="#65FEB7"/>
  <rect x="358" y="52" width="18" height="8" transform="rotate(-180 358 52)" fill="#65FEB7"/>
  <rect x="324" y="8" width="18" height="8" transform="rotate(-180 324 8)" fill="#65FEB7"/>
  <rect x="324" y="19" width="18" height="8" transform="rotate(-180 324 19)" fill="#65FEB7"/>
  <rect x="324" y="30" width="18" height="8" transform="rotate(-180 324 30)" fill="#65FEB7"/>
  <rect x="324" y="41" width="18" height="8" transform="rotate(-180 324 41)" fill="#65FEB7"/>
  <rect x="324" y="52" width="18" height="8" transform="rotate(-180 324 52)" fill="#65FEB7"/>
  <rect x="324" y="63" width="18" height="8" transform="rotate(-180 324 63)" fill="#65FEB7"/>
  <rect x="324" y="74" width="18" height="8" transform="rotate(-180 324 74)" fill="#65FEB7"/>
  <rect x="290" y="8" width="18" height="8" transform="rotate(-180 290 8)" fill="#65FEB7"/>
  <rect x="290" y="19" width="18" height="8" transform="rotate(-180 290 19)" fill="#65FEB7"/>
  <rect x="290" y="30" width="18" height="8" transform="rotate(-180 290 30)" fill="#65FEB7"/>
  <rect x="290" y="41" width="18" height="8" transform="rotate(-180 290 41)" fill="#65FEB7"/>
  <rect x="290" y="52" width="18" height="8" transform="rotate(-180 290 52)" fill="#65FEB7"/>
  <rect x="290" y="63" width="18" height="8" transform="rotate(-180 290 63)" fill="#65FEB7"/>
  <rect x="290" y="74" width="18" height="8" transform="rotate(-180 290 74)" fill="#65FEB7"/>
  <rect x="290" y="85" width="18" height="8" transform="rotate(-180 290 85)" fill="#65FEB7"/>
  <rect x="256" y="8" width="18" height="8" transform="rotate(-180 256 8)" fill="#65FEB7"/>
  <rect x="256" y="19" width="18" height="8" transform="rotate(-180 256 19)" fill="#65FEB7"/>
  <rect x="256" y="30" width="18" height="8" transform="rotate(-180 256 30)" fill="#65FEB7"/>
  <rect x="256" y="41" width="18" height="8" transform="rotate(-180 256 41)" fill="#65FEB7"/>
  <rect x="256" y="52" width="18" height="8" transform="rotate(-180 256 52)" fill="#65FEB7"/>
  <rect x="256" y="63" width="18" height="8" transform="rotate(-180 256 63)" fill="#65FEB7"/>
  <rect x="256" y="74" width="18" height="8" transform="rotate(-180 256 74)" fill="#65FEB7"/>
  <rect x="256" y="85" width="18" height="8" transform="rotate(-180 256 85)" fill="#65FEB7"/>
  <rect x="256" y="96" width="18" height="8" transform="rotate(-180 256 96)" fill="#65FEB7"/>
  <rect x="256" y="107" width="18" height="8" transform="rotate(-180 256 107)" fill="#65FEB7"/>
  <rect x="256" y="118" width="18" height="8" transform="rotate(-180 256 118)" fill="#65FEB7"/>
  <rect x="222" y="8" width="18" height="8" transform="rotate(-180 222 8)" fill="#65FEB7"/>
  <rect x="222" y="19" width="18" height="8" transform="rotate(-180 222 19)" fill="#65FEB7"/>
  <rect x="222" y="30" width="18" height="8" transform="rotate(-180 222 30)" fill="#65FEB7"/>
  <rect x="222" y="41" width="18" height="8" transform="rotate(-180 222 41)" fill="#65FEB7"/>
  <rect x="222" y="52" width="18" height="8" transform="rotate(-180 222 52)" fill="#65FEB7"/>
  <rect x="222" y="63" width="18" height="8" transform="rotate(-180 222 63)" fill="#65FEB7"/>
  <rect x="222" y="74" width="18" height="8" transform="rotate(-180 222 74)" fill="#65FEB7"/>
  <rect x="222" y="85" width="18" height="8" transform="rotate(-180 222 85)" fill="#65FEB7"/>
  <rect x="222" y="96" width="18" height="8" transform="rotate(-180 222 96)" fill="#65FEB7"/>
  <rect x="188" y="8" width="18" height="8" transform="rotate(-180 188 8)" fill="#65FEB7"/>
  <rect x="188" y="19" width="18" height="8" transform="rotate(-180 188 19)" fill="#65FEB7"/>
  <rect x="188" y="30" width="18" height="8" transform="rotate(-180 188 30)" fill="#65FEB7"/>
  <rect x="188" y="41" width="18" height="8" transform="rotate(-180 188 41)" fill="#65FEB7"/>
  <rect x="188" y="52" width="18" height="8" transform="rotate(-180 188 52)" fill="#65FEB7"/>
  <rect x="154" y="8" width="18" height="8" transform="rotate(-180 154 8)" fill="#65FEB7"/>
  <rect x="154" y="19" width="18" height="8" transform="rotate(-180 154 19)" fill="#65FEB7"/>
  <rect x="154" y="30" width="18" height="8" transform="rotate(-180 154 30)" fill="#65FEB7"/>
  <rect x="154" y="41" width="18" height="8" transform="rotate(-180 154 41)" fill="#65FEB7"/>
  <rect x="154" y="52" width="18" height="8" transform="rotate(-180 154 52)" fill="#65FEB7"/>
  <rect x="154" y="63" width="18" height="8" transform="rotate(-180 154 63)" fill="#65FEB7"/>
  <rect x="154" y="74" width="18" height="8" transform="rotate(-180 154 74)" fill="#65FEB7"/>
  <rect x="154" y="85" width="18" height="8" transform="rotate(-180 154 85)" fill="#65FEB7"/>
  <rect x="120" y="8" width="18" height="8" transform="rotate(-180 120 8)" fill="#65FEB7"/>
  <rect x="120" y="19" width="18" height="8" transform="rotate(-180 120 19)" fill="#65FEB7"/>
  <rect x="120" y="30" width="18" height="8" transform="rotate(-180 120 30)" fill="#65FEB7"/>
  <rect x="120" y="41" width="18" height="8" transform="rotate(-180 120 41)" fill="#65FEB7"/>
  <rect x="120" y="52" width="18" height="8" transform="rotate(-180 120 52)" fill="#65FEB7"/>
  <rect x="120" y="63" width="18" height="8" transform="rotate(-180 120 63)" fill="#65FEB7"/>
  <rect x="120" y="74" width="18" height="8" transform="rotate(-180 120 74)" fill="#65FEB7"/>
  <rect x="120" y="85" width="18" height="8" transform="rotate(-180 120 85)" fill="#65FEB7"/>
  <rect x="120" y="96" width="18" height="8" transform="rotate(-180 120 96)" fill="#65FEB7"/>
  <rect x="120" y="107" width="18" height="8" transform="rotate(-180 120 107)" fill="#65FEB7"/>
  <rect x="86" y="8" width="18" height="8" transform="rotate(-180 86 8)" fill="#65FEB7"/>
  <rect x="86" y="19" width="18" height="8" transform="rotate(-180 86 19)" fill="#65FEB7"/>
  <rect x="86" y="30" width="18" height="8" transform="rotate(-180 86 30)" fill="#65FEB7"/>
  <rect x="86" y="41" width="18" height="8" transform="rotate(-180 86 41)" fill="#65FEB7"/>
  <rect x="86" y="52" width="18" height="8" transform="rotate(-180 86 52)" fill="#65FEB7"/>
  <rect x="86" y="63" width="18" height="8" transform="rotate(-180 86 63)" fill="#65FEB7"/>
  <rect x="86" y="74" width="18" height="8" transform="rotate(-180 86 74)" fill="#65FEB7"/>
  <rect x="86" y="85" width="18" height="8" transform="rotate(-180 86 85)" fill="#65FEB7"/>
  <rect x="86" y="96" width="18" height="8" transform="rotate(-180 86 96)" fill="#65FEB7"/>
  <rect x="86" y="107" width="18" height="8" transform="rotate(-180 86 107)" fill="#65FEB7"/>
  <rect x="86" y="118" width="18" height="8" transform="rotate(-180 86 118)" fill="#65FEB7"/>
  <rect x="86" y="129" width="18" height="8" transform="rotate(-180 86 129)" fill="#65FEB7"/>
  <rect x="52" y="8" width="18" height="8" transform="rotate(-180 52 8)" fill="#65FEB7"/>
  <rect x="52" y="19" width="18" height="8" transform="rotate(-180 52 19)" fill="#65FEB7"/>
  <rect x="52" y="30" width="18" height="8" transform="rotate(-180 52 30)" fill="#65FEB7"/>
  <rect x="52" y="41" width="18" height="8" transform="rotate(-180 52 41)" fill="#65FEB7"/>
  <rect x="52" y="52" width="18" height="8" transform="rotate(-180 52 52)" fill="#65FEB7"/>
  <rect x="52" y="63" width="18" height="8" transform="rotate(-180 52 63)" fill="#65FEB7"/>
  <rect x="18" y="8" width="18" height="8" transform="rotate(-180 18 8)" fill="#65FEB7"/>
  <rect x="18" y="19" width="18" height="8" transform="rotate(-180 18 19)" fill="#65FEB7"/>
  <rect x="18" y="30" width="18" height="8" transform="rotate(-180 18 30)" fill="#65FEB7"/>
  <rect x="18" y="41" width="18" height="8" transform="rotate(-180 18 41)" fill="#65FEB7"/>
</svg>
