<svg width="38" height="34" fill="none" xmlns="http://www.w3.org/2000/svg"><g opacity=".6" fill="#fff"><path d="M38 17.004c0-2.455-3.152-4.781-7.986-6.224 1.116-4.804.62-8.626-1.564-9.85-.504-.286-1.092-.422-1.735-.422v1.684c.356 0 .643.068.883.196 1.053.59 1.51 2.833 1.154 5.718-.085.71-.225 1.458-.395 2.22a38.408 38.408 0 0 0-4.919-.823 37.059 37.059 0 0 0-3.222-3.776c2.525-2.289 4.895-3.543 6.506-3.543V.5c-2.13 0-4.918 1.48-7.737 4.049C16.165 1.996 13.377.53 11.247.53v1.685c1.603 0 3.98 1.246 6.506 3.52a35.895 35.895 0 0 0-3.199 3.768c-1.75.182-3.408.461-4.926.831a22.272 22.272 0 0 1-.403-2.19c-.364-2.885.085-5.129 1.131-5.725.232-.136.534-.197.89-.197V.538c-.65 0-1.239.136-1.75.423-2.176 1.223-2.664 5.038-1.541 9.826C3.137 12.237 0 14.557 0 17.005c0 2.455 3.152 4.781 7.986 6.224-1.116 4.804-.62 8.625 1.564 9.85.504.286 1.092.422 1.743.422 2.13 0 4.919-1.48 7.738-4.049 2.82 2.554 5.608 4.019 7.738 4.019.65 0 1.24-.136 1.75-.423 2.177-1.224 2.665-5.038 1.542-9.827C34.863 21.778 38 19.451 38 17.004Zm-10.085-5.038a33.438 33.438 0 0 1-1.046 2.983 35.424 35.424 0 0 0-1.014-1.813 40.807 40.807 0 0 0-1.116-1.767c1.1.159 2.162.355 3.176.597Zm-3.547 8.044a40.074 40.074 0 0 1-1.867 2.885 41.363 41.363 0 0 1-6.987.008 41.462 41.462 0 0 1-1.874-2.87 39.046 39.046 0 0 1-1.611-3.006 40.094 40.094 0 0 1 3.47-5.9 41.321 41.321 0 0 1 6.986-.007c.643.899 1.27 1.858 1.875 2.87.589.99 1.123 1.994 1.611 3.006a41.891 41.891 0 0 1-1.603 3.014Zm2.502-.982c.406.985.763 1.988 1.069 3.006a35.556 35.556 0 0 1-3.192.605c.38-.582.76-1.179 1.116-1.79.356-.605.689-1.217 1.006-1.82Zm-7.855 8.06a31.433 31.433 0 0 1-2.153-2.418c.697.03 1.41.053 2.13.053.728 0 1.449-.015 2.154-.053a29.734 29.734 0 0 1-2.13 2.417Zm-5.762-4.45a35.738 35.738 0 0 1-3.176-.596c.287-.975.643-1.98 1.046-2.984.317.605.65 1.209 1.014 1.813a49.97 49.97 0 0 0 1.116 1.768ZM18.977 6.92c.72.725 1.44 1.534 2.153 2.417-.697-.03-1.41-.053-2.13-.053-.728 0-1.448.016-2.153.053a29.7 29.7 0 0 1 2.13-2.417Zm-5.732 4.45a41.643 41.643 0 0 0-2.122 3.602 31.815 31.815 0 0 1-1.07-3.006 38.477 38.477 0 0 1 3.192-.597Zm-7.01 9.456c-2.742-1.14-4.515-2.636-4.515-3.822s1.773-2.69 4.515-3.822c.666-.28 1.394-.529 2.146-.763a35.714 35.714 0 0 0 1.742 4.6 35.19 35.19 0 0 0-1.719 4.577 23.94 23.94 0 0 1-2.169-.77Zm4.167 10.793c-1.053-.589-1.51-2.832-1.154-5.718.086-.71.225-1.457.395-2.22 1.518.362 3.176.642 4.919.823a37.06 37.06 0 0 0 3.222 3.777c-2.525 2.289-4.895 3.542-6.506 3.542-.349-.007-.643-.075-.876-.204Zm18.373-5.755c.364 2.885-.085 5.128-1.13 5.725-.233.136-.535.197-.892.197-1.603 0-3.98-1.247-6.506-3.52a35.886 35.886 0 0 0 3.199-3.77c1.75-.18 3.408-.46 4.926-.83.178.763.318 1.495.403 2.198Zm2.982-5.038c-.666.28-1.394.529-2.146.763a35.718 35.718 0 0 0-1.742-4.6 35.17 35.17 0 0 0 1.72-4.578c.766.235 1.494.491 2.176.77 2.742 1.141 4.516 2.637 4.516 3.823-.008 1.186-1.782 2.689-4.524 3.822Z"/><path d="M19.077 20.868c1.953 0 3.537-1.562 3.537-3.489 0-1.927-1.584-3.488-3.537-3.488-1.953 0-3.537 1.562-3.537 3.488 0 1.927 1.584 3.489 3.537 3.489Z"/></g></svg>