<svg width="31" height="26" viewBox="0 0 31 26">
  <path fill-rule="evenodd" clip-rule="evenodd" d="M17.9359 22.7042C21.9491 22.7042 25.3961 20.292 26.8925 16.8451H30.4191C28.7716 22.1477 23.8058 26 17.9359 26C12.066 26 7.10033 22.1477 5.45276 16.8451H8.97937C10.4758 20.292 13.9228 22.7042 17.9359 22.7042ZM17.9359 3.29577C13.9228 3.29577 10.4758 5.70803 8.97937 9.15493H5.45276C7.10033 3.85234 12.066 0 17.9359 0C23.8058 0 28.7716 3.85234 30.4191 9.15493H30.4207C30.9188 10.8744 31 12.2052 31 12.8169C31 13.7925 30.9188 14.4667 30.9188 14.4667H0L2.57601 11.2574H16.8009H23.9569H27.5327C27.5327 11.2574 27.32 10.0704 26.893 9.15493H26.8925C25.3961 5.70803 21.9491 3.29577 17.9359 3.29577Z" fill="#65FEB7"/>
</svg>
