<svg width="33" height="34" fill="none" xmlns="http://www.w3.org/2000/svg"><g opacity=".6" clip-path="url(#a)"><path d="M32.483 15.502 18.028 1.294A2.135 2.135 0 0 0 16.52.68a2.164 2.164 0 0 0-1.507.614l-3.002 2.95 3.808 3.743c.447-.15.929-.173 1.389-.068.46.106.882.336 1.216.665.336.33.57.747.677 1.203.106.455.08.931-.076 1.373l3.67 3.607a2.565 2.565 0 0 1 2.62.592c.236.232.423.507.55.81a2.455 2.455 0 0 1-.55 2.717 2.57 2.57 0 0 1-3.202.313 2.498 2.498 0 0 1-1.019-1.348 2.455 2.455 0 0 1 .081-1.678l-3.422-3.364v8.853a2.49 2.49 0 0 1 1.221 1.28 2.456 2.456 0 0 1-.55 2.719 2.567 2.567 0 0 1-3.588 0 2.485 2.485 0 0 1-.635-1.042 2.452 2.452 0 0 1 .471-2.31c.266-.316.608-.564.994-.72v-8.934a2.511 2.511 0 0 1-.83-.545 2.462 2.462 0 0 1-.546-2.726l-3.754-3.69-9.911 9.742a2.066 2.066 0 0 0 0 2.965L15.08 32.609c.4.393.942.614 1.508.614a2.15 2.15 0 0 0 1.507-.614l14.388-14.142c.4-.393.625-.927.625-1.483a2.08 2.08 0 0 0-.625-1.482Z" fill="#fff"/></g><defs><clipPath id="a"><path fill="#fff" transform="translate(0 .5)" d="M0 0h33v33H0z"/></clipPath></defs></svg>