<svg width="33" height="34" fill="none" xmlns="http://www.w3.org/2000/svg"><g opacity=".6" clip-path="url(#a)"><path d="M15.346 5.01c0-.256.103-.501.287-.682a.99.99 0 0 1 1.388 0 .955.955 0 0 1 0 1.363.99.99 0 0 1-1.388 0 .955.955 0 0 1-.287-.682ZM3.637 13.733c0-.256.104-.5.288-.682a.99.99 0 0 1 1.388 0 .955.955 0 0 1 0 1.363.99.99 0 0 1-1.388 0 .955.955 0 0 1-.288-.681Zm23.41.045c0-.256.103-.501.287-.682a.99.99 0 0 1 1.388 0 .955.955 0 0 1 0 1.363.99.99 0 0 1-1.388 0 .955.955 0 0 1-.287-.681ZM6.478 15.106a.876.876 0 0 0 .455-1.16L6.5 12.97h1.713v7.578H4.757a11.656 11.656 0 0 1-.391-4.528l2.112-.915Zm7.164.186v-2.24h4.077c.21 0 1.487.24 1.487 1.177 0 .778-.98 1.057-1.784 1.057l-3.78.006ZM8.073 27.32a.948.948 0 0 1 .288-.682.982.982 0 0 1 .694-.282.998.998 0 0 1 .694.282.962.962 0 0 1 .287.681c0 .256-.103.501-.287.682a.99.99 0 0 1-1.388 0 .955.955 0 0 1-.288-.681Zm14.542.044c0-.255.104-.5.288-.681a.99.99 0 0 1 1.387 0 .955.955 0 0 1 0 1.363.99.99 0 0 1-1.387 0 .955.955 0 0 1-.288-.682Zm.303-2.184a.91.91 0 0 0-.674.12.885.885 0 0 0-.388.555l-.485 2.258a12.273 12.273 0 0 1-10.076-.047l-.485-2.258a.869.869 0 0 0-.389-.554.904.904 0 0 0-.674-.121l-2.029.428a11.918 11.918 0 0 1-1.05-1.215h9.876c.11 0 .187-.02.187-.12v-3.428c0-.1-.075-.12-.187-.12h-2.888v-2.174h3.116c.286 0 1.524.08 1.92 1.635l.584 2.533c.186.56.942 1.675 1.747 1.675h5.1c-.343.45-.717.874-1.12 1.272l-2.085-.44Zm5.484-9.056c.069.684.078 1.374.025 2.06h-1.246c-.125 0-.174.08-.174.199v.559c0 1.316-.761 1.602-1.417 1.675-.624.07-1.33-.259-1.416-.638-.372-2.054-.992-2.493-1.97-3.25 1.215-.758 2.48-1.875 2.48-3.37 0-1.616-1.128-2.632-1.897-3.131-1.078-.698-2.272-.838-2.595-.838H7.377a12.14 12.14 0 0 1 6.76-3.746l1.512 1.564a.894.894 0 0 0 .626.272.908.908 0 0 0 .639-.244l1.691-1.587c1.724.317 3.357.998 4.785 1.997a11.943 11.943 0 0 1 3.487 3.787L25.721 14a.868.868 0 0 0 .455 1.16l2.226.964Zm2.888.04-.04-.396 1.193-1.092a.488.488 0 0 0 .126-.431.485.485 0 0 0-.284-.351l-1.524-.56-.119-.386.951-1.297a.482.482 0 0 0-.1-.634.502.502 0 0 0-.21-.103l-1.608-.257-.194-.354.676-1.455c.138-.296-.118-.675-.45-.663l-1.631.056-.258-.306.374-1.56a.48.48 0 0 0-.14-.428.5.5 0 0 0-.434-.137l-1.59.368-.312-.253.057-1.602a.485.485 0 0 0-.221-.392.504.504 0 0 0-.454-.051l-1.482.664-.36-.19-.262-1.578a.486.486 0 0 0-.295-.343.507.507 0 0 0-.455.037l-1.316.926-.393-.117-.57-1.496a.49.49 0 0 0-.357-.279.507.507 0 0 0-.44.124l-1.12 1.17-.404-.039-.858-1.362a.496.496 0 0 0-.406-.206.506.506 0 0 0-.406.206l-.859 1.362-.405.039-1.112-1.172a.501.501 0 0 0-.439-.123.503.503 0 0 0-.357.28l-.57 1.495-.394.117-1.316-.932a.505.505 0 0 0-.645.1.486.486 0 0 0-.105.206L9.51 4.346l-.36.19-1.482-.663a.507.507 0 0 0-.614.22.483.483 0 0 0-.062.223l.057 1.602-.313.253-1.589-.367a.507.507 0 0 0-.436.136.488.488 0 0 0-.139.428l.374 1.56-.256.306-1.631-.056c-.329-.01-.589.367-.452.663l.676 1.455-.194.354-1.606.257c-.326.052-.504.473-.312.737l.95 1.297-.118.386-1.524.56a.496.496 0 0 0-.284.35.481.481 0 0 0 .126.432l1.193 1.092-.04.397-1.387.843a.492.492 0 0 0-.209.399.482.482 0 0 0 .21.398l1.386.843.04.398L.32 20.13a.488.488 0 0 0-.126.431.486.486 0 0 0 .284.352l1.524.56.119.385-.951 1.297a.483.483 0 0 0 .1.633c.062.05.134.086.211.104l1.607.257.194.355-.676 1.455a.481.481 0 0 0 .225.602c.07.038.147.058.226.06l1.63-.056.258.308-.374 1.56a.481.481 0 0 0 .14.427.5.5 0 0 0 .435.136l1.589-.367.313.252-.057 1.602a.483.483 0 0 0 .222.392.505.505 0 0 0 .454.05l1.482-.663.36.19.262 1.579a.486.486 0 0 0 .295.343.507.507 0 0 0 .455-.038l1.321-.934.394.118.57 1.496a.49.49 0 0 0 .357.279.51.51 0 0 0 .44-.124L14.714 32l.405.04.859 1.361c.173.275.637.276.811 0l.86-1.363.404-.04 1.113 1.171a.5.5 0 0 0 .439.124.504.504 0 0 0 .357-.279l.57-1.496.393-.117 1.321.934a.505.505 0 0 0 .645-.1.487.487 0 0 0 .105-.206l.262-1.577.36-.19 1.483.662a.508.508 0 0 0 .612-.22.484.484 0 0 0 .063-.223l-.057-1.602.313-.251 1.589.367a.506.506 0 0 0 .434-.137.488.488 0 0 0 .14-.426l-.374-1.56.256-.308 1.631.056a.505.505 0 0 0 .4-.217.485.485 0 0 0 .051-.445l-.675-1.456.194-.355 1.607-.257a.504.504 0 0 0 .348-.29.481.481 0 0 0-.037-.446l-.951-1.297.119-.386 1.523-.56a.498.498 0 0 0 .285-.35.482.482 0 0 0-.127-.432l-1.192-1.092.04-.397 1.387-.843a.493.493 0 0 0 .209-.399.483.483 0 0 0-.21-.398l-1.39-.835Z" fill="#fff"/></g><defs><clipPath id="a"><path fill="#fff" transform="translate(0 .5)" d="M0 0h33v33H0z"/></clipPath></defs></svg>