<svg width="251" height="254" viewBox="0 60 251 184" fill="none"
  xmlns="http://www.w3.org/2000/svg">
  <path d="M63.1434 83.8496C52.6822 87.1127 44.3845 97.3019 40.7463 113.624C33.4545 146.256 47.5236 191.055 72.1324 213.67C84.4824 225.02 97.1493 228.637 107.621 225.271C110.348 224.41 121.597 221.114 124.353 220.252C134.814 216.989 143.098 206.815 146.736 190.492C154.014 157.876 139.974 113.076 115.35 90.4466C103.045 79.1389 90.437 75.5193 79.9909 78.7964" fill="#BA54EC"/>
  <path opacity="0.65" d="M72.1478 213.654C84.4978 225.003 97.1646 228.621 107.636 225.255C110.363 224.394 121.612 221.098 124.368 220.236C134.814 216.958 143.113 206.799 146.751 190.476L72.1478 213.654Z" fill="black"/>
  <path opacity="0.55" d="M50.8701 183.72C56.4069 195.401 63.6456 205.841 72.1476 213.654L146.751 190.476C149.273 179.215 149.233 166.498 147.102 153.767L50.8701 183.72Z" fill="black"/>
  <path opacity="0.4" d="M147.101 153.768C143.068 129.582 131.472 105.262 115.35 90.4466C103.045 79.1389 90.437 75.5193 79.9909 78.7964L63.1434 83.8496C52.6822 87.1127 44.3845 97.3019 40.7462 113.624C35.9761 134.995 40.3584 161.578 50.8689 183.721L147.101 153.768Z" fill="black"/>
  <path d="M57.6082 108.556C50.3456 141.185 64.3855 185.986 88.9943 208.601C113.618 231.23 139.474 223.122 146.75 190.476C154.028 157.86 140.002 113.045 115.364 90.4308C90.7275 67.846 64.872 75.9547 57.6082 108.556Z" fill="#BA54EC"/>
  <path opacity="0.2" d="M57.6082 108.556C50.3456 141.185 64.3855 185.986 88.9943 208.601C113.618 231.23 139.474 223.122 146.75 190.476C154.028 157.86 140.002 113.045 115.364 90.4308C90.7275 67.846 64.872 75.9547 57.6082 108.556Z" fill="black"/>
  <path d="M68.7415 118.787C63.2835 143.257 73.8251 176.875 92.2893 193.843C110.754 210.812 130.159 204.715 135.617 180.246C141.075 155.776 130.534 122.158 112.069 105.19C93.6051 88.2214 74.1995 94.3181 68.7415 118.787Z" fill="#FAFAFA"/>
  <path d="M78.8864 128.109C75.0746 145.17 82.4226 168.587 95.3037 180.397C108.171 192.222 121.69 187.982 125.502 170.921C129.314 153.86 121.966 130.443 109.099 118.618C96.2175 106.808 82.6982 111.049 78.8864 128.109Z" fill="#BA54EC"/>
  <path opacity="0.2" d="M78.8864 128.109C75.0746 145.17 82.4226 168.587 95.3037 180.397C108.171 192.222 121.69 187.982 125.502 170.921C129.314 153.86 121.966 130.443 109.099 118.618C96.2175 106.808 82.6982 111.049 78.8864 128.109Z" fill="black"/>
  <path d="M89.2888 137.671C87.1731 147.116 91.2578 160.072 98.3758 166.613C105.494 173.155 112.982 170.806 115.084 161.376C117.2 151.93 113.115 138.975 105.997 132.433C98.8637 125.878 91.3906 128.24 89.2888 137.671Z" fill="#FAFAFA"/>
  <path d="M96.7418 144.52C95.8574 148.504 97.5648 153.973 100.576 156.74C103.588 159.508 106.747 158.512 107.632 154.527C108.516 150.543 106.809 145.074 103.797 142.307C100.786 139.539 97.6262 140.535 96.7418 144.52Z" fill="#2A2B25"/>
  <path d="M215.5 114.507C215.5 114.507 227.64 124.009 235.475 121.558C243.31 119.107 236.752 107.835 231.673 109.424L215.5 114.507Z" fill="#BA54EC"/>
  <path d="M215.499 114.507C215.499 114.507 220.038 99.7694 227.857 97.3048C235.692 94.8543 236.738 107.851 231.673 109.424L215.499 114.507Z" fill="#BA54EC"/>
  <path opacity="0.5" d="M215.499 114.507C215.499 114.507 220.038 99.7694 227.857 97.3048C235.692 94.8543 236.738 107.851 231.673 109.424L215.499 114.507Z" fill="white"/>
  <path d="M123.99 144.816L244.51 107.025L243.551 104.039L121.068 142.439L123.99 144.816Z" fill="#2A2B25"/>
  <path d="M238.966 104.511C238.412 106.976 239.978 109.453 242.457 109.992C244.922 110.546 247.4 108.979 247.938 106.5C248.492 104.036 246.926 101.558 244.447 101.019C241.982 100.466 239.518 102.017 238.966 104.511Z" fill="#2A2B25"/>
  <path d="M125.682 142.639C131.892 143.24 133.606 154.073 133.606 154.073L102.771 149.834L125.682 142.639Z" fill="#BA54EC"/>
  <path d="M125.682 142.639C131.892 143.24 133.606 154.073 133.606 154.073L102.771 149.834L125.682 142.639Z" fill="#BA54EC"/>
  <path d="M125.635 128.739C125.635 128.739 130.423 138.61 125.652 142.641L102.74 149.837L125.635 128.739Z" fill="#BA54EC"/>
  <path opacity="0.5" d="M125.635 128.739C125.635 128.739 130.423 138.61 125.652 142.641L102.74 149.837L125.635 128.739Z" fill="white"/>
</svg>
