<?xml version="1.0" standalone="no"?>
<!DOCTYPE svg PUBLIC "-//W3C//DTD SVG 20010904//EN"
 "http://www.w3.org/TR/2001/REC-SVG-20010904/DTD/svg10.dtd">
<svg version="1.0" xmlns="http://www.w3.org/2000/svg"
 width="81.000000pt" height="81.000000pt" viewBox="0 0 81.000000 81.000000"
 preserveAspectRatio="xMidYMid meet">
<metadata>
Created by potrace 1.14, written by Peter Selinger 2001-2017
</metadata>
<g transform="translate(0.000000,81.000000) scale(0.100000,-0.100000)"
fill="#000000" stroke="none">
<path d="M279 787 c-118 -40 -192 -107 -246 -223 -24 -51 -28 -71 -28 -154 0
-86 3 -101 32 -162 88 -187 291 -278 485 -218 119 37 201 109 255 226 24 51
28 71 28 154 0 86 -3 101 -31 160 -57 119 -146 193 -269 225 -82 21 -148 19
-226 -8z m231 -177 c70 -36 120 -113 120 -185 l0 -35 -265 0 -265 0 16 25 16
25 219 0 c241 0 238 -1 196 61 -65 97 -202 105 -273 15 -21 -26 -37 -36 -56
-36 -31 0 -33 2 -17 33 56 109 199 154 309 97z m-237 -305 c68 -86 195 -86
263 -1 21 26 37 36 57 36 31 0 32 -2 13 -39 -38 -72 -153 -130 -233 -115 -71
13 -139 59 -169 116 -19 36 -18 38 14 38 19 0 35 -10 55 -35z"/>
</g>
</svg>
