<svg width="23" height="34" fill="none" xmlns="http://www.w3.org/2000/svg"><g opacity=".6" fill="#fff"><path d="M5.751 34c3.173 0 5.749-2.54 5.749-5.667v-5.667H5.75c-3.173 0-5.749 2.539-5.749 5.667 0 3.128 2.576 5.666 5.749 5.666Z"/><path d="M.002 17c0-3.127 2.576-5.666 5.749-5.666H11.5v11.333H5.75c-3.173 0-5.749-2.538-5.749-5.666ZM.002 5.667C.002 2.539 2.578 0 5.751 0H11.5v11.333H5.75c-3.173 0-5.749-2.538-5.749-5.666ZM11.5 0h5.749c3.173 0 5.749 2.539 5.749 5.667 0 3.128-2.576 5.666-5.75 5.666H11.5V0ZM22.998 17c0 3.129-2.576 5.667-5.75 5.667-3.173 0-5.748-2.538-5.748-5.666 0-3.128 2.575-5.667 5.749-5.667 3.173 0 5.749 2.539 5.749 5.667Z"/></g></svg>