<svg width="31" height="34" fill="none" xmlns="http://www.w3.org/2000/svg"><g opacity=".6" clip-path="url(#a)" fill="#fff"><path d="M15.16 1.28a20.693 20.693 0 0 0-3.556.312c-3.148.57-3.72 1.765-3.72 3.969v2.91h7.44v.969H5.092c-2.162 0-4.056 1.334-4.648 3.87-.683 2.908-.713 4.723 0 7.76.53 2.26 1.792 3.87 3.954 3.87h2.558v-3.488c0-2.52 2.125-4.742 4.648-4.742h7.432c2.068 0 3.72-1.748 3.72-3.88V5.56c0-2.069-1.701-3.623-3.72-3.968a22.632 22.632 0 0 0-3.877-.311Zm-4.024 2.34c.769 0 1.396.655 1.396 1.46 0 .801-.628 1.45-1.396 1.45-.771 0-1.396-.648-1.396-1.45 0-.805.625-1.46 1.396-1.46Z"/><path d="M23.684 9.44v3.39c0 2.628-2.172 4.84-4.648 4.84h-7.432c-2.035 0-3.72 1.787-3.72 3.88v7.268c0 2.07 1.754 3.287 3.72 3.88 2.356.71 4.614.839 7.432 0 1.873-.556 3.72-1.677 3.72-3.88V25.91h-7.432v-.97h11.152c2.162 0 2.968-1.547 3.72-3.87.777-2.391.744-4.691 0-7.759-.535-2.209-1.555-3.87-3.72-3.87h-2.792Zm-4.18 18.409c.771 0 1.396.648 1.396 1.45 0 .805-.625 1.46-1.396 1.46-.769 0-1.396-.655-1.396-1.46 0-.802.628-1.45 1.396-1.45Z"/></g><defs><clipPath id="a"><path fill="#fff" transform="translate(0 .5)" d="M0 0h31v33H0z"/></clipPath></defs></svg>