<svg width="948" height="98" viewBox="0 0 948 98" fill="none"
  xmlns="http://www.w3.org/2000/svg">
  <path d="M886.971 -46.0935L947.281 -3.96351L917.351 65.0665L829.821 -28.5435L765.431 -48.1035L748.891 24.8465L798.961 85.8865L743.841 115.426L665.421 157.436L690.361 23.1865L601.351 87.3465L586.311 30.7065L524.561 -31.1135L447.381 -54.2635L382.681 -64.0935L454.931 7.8765L513.691 122.566L403.891 202.737L322.751 261.966L265.361 284.506L262.171 184.986L260.841 143.526L432.961 161.656L445.871 60.9465L358.661 159.757L333.451 188.326L390.511 174.466L343.891 298.826L323.211 261.186L286.131 186.786L366.941 141.146L331.321 129.236L354.691 37.9665L314.631 22.5865L278.841 81.2765L320.021 110.636L254.201 -13.7135L213.511 38.5465L214.471 187.266L260.501 143.856L223.211 125.416L168.151 36.6665L36.2112 -53.5935L0.641235 -16.5035L36.5512 50.1265L106.881 6.53649L84.4512 156.156L175.091 161.366L182.161 112.396L109.651 195.816L265.141 284.526L236.741 213.966L146.161 225.216L119.441 280.836L213.931 403.286L166.841 271.047L224.311 278.846L257.331 329.156L194.041 359.936L171.601 334.906L145.791 383.417L287.621 382.146L295.851 447.586L214.451 403.607L207.921 507.677L146.221 383.737" stroke="#65FEB7" stroke-width="0.4628" stroke-miterlimit="10"/>
  <path d="M513.691 122.567L518.141 59.6467L524.561 -31.1133L454.641 8.24672L445.871 60.9467L513.691 122.567Z" stroke="#65FEB7" stroke-width="0.4628" stroke-miterlimit="10"/>
  <path d="M513.691 122.566L432.731 161.236L354.691 37.9664L454.641 8.24641L601.351 87.3464L513.691 122.566ZM513.691 122.566L332.401 128.586L314.631 22.5864L255.081 -13.4136L383.281 -64.4336L354.671 37.4164L319.581 110.196L260.841 143.526L278.841 81.2764L182.161 112.396L213.511 38.5464L84.4512 156.156L110.141 195.576L214.281 186.896L182.161 112.396L223.331 124.886L175.401 160.476L260.501 143.856L286.131 186.786L333.451 188.326L265.141 284.526L343.571 297.406L316.491 338.416L287.621 382.146L194.041 359.936L224.491 279.656L171.731 336.096" stroke="#65FEB7" stroke-width="0.4628" stroke-miterlimit="10"/>
  <path d="M391.581 173.816L432.731 161.236L315.451 22.6065L333.451 188.326L343.891 298.826L236.761 213.146L214.281 186.896L175.401 160.477L224.491 279.656L84.4512 156.156L119.441 280.836L145.541 384.146L213.931 403.286L287.621 382.146L257.331 329.156L172.731 335.126L119.701 281.996L167.691 271.196L146.161 225.216L174.981 160.306L106.881 6.53649L169.301 36.3365L254.201 -13.7135L36.2112 -53.5935L36.7812 50.9965L85.1612 156.606" stroke="#65FEB7" stroke-width="0.4628" stroke-miterlimit="10"/>
  <path d="M585.411 30.8145L671.611 53.0445L798.961 85.8845L765.431 -48.1055L690.361 23.1845L524.561 -31.1155L601.351 87.3445L445.871 60.9445" stroke="#65FEB7" stroke-width="0.4628" stroke-miterlimit="10"/>
  <path d="M798.961 85.8856L947.281 -3.96438L829.821 -28.5444L887.661 -45.7344L916.981 65.0756L798.961 85.8856ZM798.961 85.8856L829.821 -28.5444" stroke="#65FEB7" stroke-width="0.4628" stroke-miterlimit="10"/>
  <path d="M916.981 65.0783L748.891 24.8483L690.361 23.1883L586.311 30.7083L454.931 7.87828L447.381 -54.2617L354.691 37.9683L445.871 60.9483L366.941 141.148L320.561 110.318L223.331 124.888L278.841 81.2783L213.721 39.1483L168.701 36.3883L84.4512 156.158L182.161 112.398L106.881 6.53828L0.641235 -16.5017" stroke="#65FEB7" stroke-width="0.4628" stroke-miterlimit="10"/>
  <path d="M665.821 157.687L748.891 24.8467L829.821 -28.5433L524.561 -31.1133L637.271 119.527L665.821 157.687Z" stroke="#65FEB7" stroke-width="0.4628" stroke-miterlimit="10"/>
</svg>
