<svg width="251" height="113" fill="none" xmlns="http://www.w3.org/2000/svg"><path fill-rule="evenodd" clip-rule="evenodd" d="M244.844.5c-3.369 0-6.1 2.749-6.1 6.118s2.731 6.117 6.1 6.117c3.369 0 6.1-2.748 6.1-6.117 0-3.37-2.731-6.118-6.1-6.118ZM68.941 60.736C65.125 69.595 56.334 75.794 46.1 75.794s-19.026-6.2-22.843-15.058h-8.994c4.202 13.628 16.866 23.529 31.837 23.529 14.97 0 27.634-9.901 31.836-23.53h-8.994ZM23.256 40.97c3.817-8.86 12.608-15.059 22.843-15.059s19.026 6.2 22.842 15.059h.001c1.09 2.353 1.632 5.404 1.632 5.404H6.925l-6.57 8.248H79.21s.207-1.733.207-4.24c0-1.573-.207-4.993-1.478-9.412h-.004C73.733 27.343 61.07 17.44 46.1 17.44c-14.97 0-27.635 9.902-31.837 23.53h8.994Zm120.696 32V49.44c0-12.994-10.505-23.529-23.464-23.529-12.958 0-23.463 10.535-23.463 23.53v34.823h-8.447V49.441c0-17.673 14.287-32 31.91-32 17.624 0 31.911 14.327 31.911 32v34.824h-8.447V72.971Zm51.15 2.294c13.406 0 24.318-10.906 24.318-24.412 0-13.506-10.912-24.412-24.318-24.412-13.407 0-24.318 10.906-24.318 24.412 0 13.506 10.911 24.412 24.318 24.412Zm24.871-2.18c-6.101 6.86-14.983 11.18-24.871 11.18-18.401 0-33.318-14.959-33.318-33.412s14.917-33.412 33.318-33.412c9.888 0 18.77 4.32 24.871 11.18v-8.356h8.447v58.823c0 18.453-14.917 33.412-33.318 33.412-14.97 0-27.635-9.901-31.836-23.53h8.994c3.816 8.86 12.607 15.059 22.842 15.059 13.736 0 24.871-11.166 24.871-24.94v-6.003Zm20.648-52.82h8.447v64h-8.447v-64Z" fill="#fff"/></svg>