<svg viewBox="5 2 124 59" fill="currentColor">
  <path fill-rule="evenodd" clip-rule="evenodd" d="M124.394 4.97656C122.793 4.97656 121.473 6.27397 121.473 7.8744C121.473 9.47482 122.793 10.7722 124.394 10.7722C125.994 10.7722 127.314 9.47482 127.314 7.8744C127.314 6.27397 125.994 4.97656 124.394 4.97656ZM40.1851 33.5092C38.3581 37.7056 34.1496 40.6423 29.2498 40.6423C24.3501 40.6423 20.1416 37.7056 18.3146 33.5092H14.0089C16.0204 39.9648 22.0832 44.6547 29.2498 44.6547C36.4165 44.6547 42.4792 39.9648 44.4908 33.5092H40.1851ZM18.3146 24.147C20.1416 19.9506 24.3501 17.0139 29.2498 17.0139C34.1496 17.0139 38.3581 19.9506 40.1851 24.147H40.1857C40.707 25.2615 40.9668 26.7067 40.9668 26.7067H36.6009H27.8641H10.4966L7.3515 30.6137H45.1008C45.1008 30.6137 45.2 29.7929 45.2 28.6052C45.2 27.8605 45.1008 26.2404 44.4927 24.147H44.4908C42.4792 17.6915 36.4165 13.0015 29.2498 13.0015C22.0832 13.0015 16.0204 17.6915 14.0089 24.147H18.3146ZM76.0945 39.3049V28.1594C76.0945 22.0039 71.0655 17.0139 64.862 17.0139C58.6584 17.0139 53.6295 22.0039 53.6295 28.1594V39.3049V40.6423V44.6547H49.5858V28.1594C49.5858 19.7879 56.4252 13.0015 64.862 13.0015C73.2988 13.0015 80.1382 19.7879 80.1382 28.1594V44.6547H76.0945V40.6423V39.3049ZM112.488 29.8423C111.969 35.8751 106.862 40.6547 100.581 40.6547C93.9518 40.6547 88.6309 35.3305 88.6309 28.8281C88.6309 22.3257 93.9518 17.0015 100.581 17.0015C106.862 17.0015 111.969 21.7811 112.488 27.8139V29.8423ZM112.488 18.297C109.567 15.0475 105.315 13.0015 100.581 13.0015C91.772 13.0015 84.6309 20.0873 84.6309 28.8281C84.6309 37.5689 91.772 44.6547 100.581 44.6547C105.315 44.6547 109.567 42.6087 112.488 39.3592V42.2026C112.488 48.7274 107.157 54.0168 100.581 54.0168C95.6815 54.0168 91.473 51.0801 89.646 46.8837H85.3403C87.3519 53.3392 93.4146 58.0292 100.581 58.0292C109.39 58.0292 116.531 50.9434 116.531 42.2026V14.3388H112.488V18.297ZM122.372 14.3388H126.416V44.6546H122.372V14.3388Z" fill="currentColor"/>
</svg>
