<svg viewBox="0 0 44 44" fill="currentColor">
  <g clip-path="url(#clip0_7261_169044)">
    <rect width="44" height="44" rx="22" fill="currentColor"/>
    <path fill-rule="evenodd" clip-rule="evenodd" d="M22.0473 31.0328C25.7498 31.0328 28.93 28.7875 30.3105 25.5793H33.5641C32.0441 30.5147 27.4628 34.1004 22.0473 34.1004C16.6319 34.1004 12.0506 30.5147 10.5306 25.5793H13.7842C15.1647 28.7875 18.3449 31.0328 22.0473 31.0328ZM22.0473 12.968C18.3449 12.968 15.1647 15.2133 13.7842 18.4215H10.5306C12.0506 13.486 16.6319 9.90039 22.0473 9.90039C27.4628 9.90039 32.0441 13.486 33.5641 18.4215H33.5655C34.025 20.022 34.1 21.2606 34.1 21.83C34.1 22.738 34.025 23.3655 34.025 23.3655H5.5L7.87658 20.3785H21.0002H27.6022H30.9012C30.9012 20.3785 30.7049 19.2736 30.311 18.4215H30.3105C28.93 15.2133 25.7498 12.968 22.0473 12.968Z" fill="#232323"/>
  </g>
  <defs>
    <clipPath id="clip0_7261_169044">
      <rect width="44" height="44" rx="22" fill="white"/>
    </clipPath>
  </defs>
</svg>
