<svg width="1440" height="8311" viewBox="0 0 1440 8311" fill="none" xmlns="http://www.w3.org/2000/svg" xmlns:xlink="http://www.w3.org/1999/xlink">
<rect width="1440" height="8765" fill="#232323"/>
<g style="mix-blend-mode:overlay" opacity="0.2">
<rect y="6605" width="1440" height="1988" fill="url(#pattern0)"/>
</g>
<g opacity="0.5" filter="url(#filter0_f_61_5999)">
<path d="M1415.59 -314.866C1183.84 -583.678 828.781 -726.294 680.222 -764L600 -284.218L808.911 454.68L1602.22 487L2467.39 406.758L2488 219.526C2458.85 185.348 2326.22 119.334 2028.95 128.696C1657.37 140.398 1705.28 21.1487 1415.59 -314.866Z" fill="#15324D"/>
</g>
<g opacity="0.3" filter="url(#filter1_f_61_5999)">
<path d="M778.348 400.854C539.845 124.306 174.446 -22.4135 21.5589 -61.2051L-61 432.384L153.997 1192.55L970.412 1225.79L1860.79 1143.24L1882 950.623C1852 915.463 1715.51 847.549 1409.58 857.18C1027.17 869.219 1076.48 746.538 778.348 400.854Z" fill="#87E985"/>
</g>
<g opacity="0.5" filter="url(#filter2_f_61_5999)">
<path d="M240.589 387.929C8.8371 119.117 -346.219 -23.4986 -494.778 -61.2051L-575 418.577L-366.089 1157.48L427.217 1189.79L1292.39 1109.55L1313 922.32C1283.85 888.143 1151.22 822.129 853.953 831.491C482.369 843.193 530.279 723.944 240.589 387.929Z" fill="#57A3DB"/>
</g>
<g opacity="0.5" filter="url(#filter3_f_61_5999)">
<path d="M379 481.795L1556 572.295V1238.29H890L379 481.795Z" fill="#F59C32"/>
</g>
<g opacity="0.3" filter="url(#filter4_f_61_5999)">
<path d="M1695.67 2682.97C1910.73 3128.33 2337.3 3448.33 2523.69 3552.67L2804.7 2935.93L2789.9 1866.18L1733.58 1536.52L539.923 1332.42L444.658 1576.96C471.583 1633.47 626.324 1770.15 1029.89 1864.78C1534.35 1983.07 1426.85 2126.27 1695.67 2682.97Z" fill="#87E985"/>
</g>
<g style="mix-blend-mode:overlay" opacity="0.2">
<rect x="-797" width="3072" height="1766" fill="url(#pattern1)"/>
</g>
<g opacity="0.5" filter="url(#filter5_f_61_5999)">
<path d="M1743.37 3978.59C2012.18 3746.84 2154.79 3391.78 2192.5 3243.22L1712.72 3163L973.82 3371.91L941.5 4165.22L1021.74 5030.39L1208.97 5051C1243.15 5021.85 1309.17 4889.22 1299.8 4591.95C1288.1 4220.37 1407.35 4268.28 1743.37 3978.59Z" fill="#15324D"/>
</g>
<g opacity="0.3" filter="url(#filter6_f_61_5999)">
<path d="M1027.65 3341.35C1304.19 3102.85 1450.91 2737.45 1489.71 2584.56L996.116 2502L235.955 2717L202.705 3533.41L285.257 4423.79L477.877 4445C513.037 4415 580.951 4278.51 571.32 3972.58C559.282 3590.17 681.962 3639.48 1027.65 3341.35Z" fill="#87E985"/>
</g>
<g opacity="0.5" filter="url(#filter7_f_61_5999)">
<path d="M1040.57 2803.59C1309.38 2571.84 1452 2216.78 1489.71 2068.22L1009.92 1988L271.025 2196.91L238.705 2990.22L318.948 3855.39L506.18 3876C540.357 3846.85 606.371 3714.22 597.009 3416.95C585.307 3045.37 704.556 3093.28 1040.57 2803.59Z" fill="#57A3DB"/>
</g>
<g opacity="0.5" filter="url(#filter8_f_61_5999)">
<path d="M946.705 2942L856.205 4119L190.205 4119L190.205 3453L946.705 2942Z" fill="#F59C32"/>
</g>
<g style="mix-blend-mode:overlay" opacity="0.2">
<rect x="1440" y="1766" width="3072" height="1498" transform="rotate(90 1440 1766)" fill="url(#pattern2)"/>
</g>
<g opacity="0.5" filter="url(#filter9_f_61_5999)">
<path d="M1397.59 4523.13C1165.84 4254.32 810.781 4111.71 662.222 4074L582 4553.78L790.911 5292.68L1584.22 5325L2449.39 5244.76L2470 5057.53C2440.85 5023.35 2308.22 4957.33 2010.95 4966.7C1639.37 4978.4 1687.28 4859.15 1397.59 4523.13Z" fill="#15324D"/>
</g>
<g opacity="0.3" filter="url(#filter10_f_61_5999)">
<path d="M760.348 5238.85C521.845 4962.31 156.446 4815.59 3.55887 4776.79L-79 5270.38L135.997 6030.55L952.412 6063.79L1842.79 5981.24L1864 5788.62C1834 5753.46 1697.51 5685.55 1391.58 5695.18C1009.17 5707.22 1058.48 5584.54 760.348 5238.85Z" fill="#87E985"/>
</g>
<g opacity="0.5" filter="url(#filter11_f_61_5999)">
<path d="M222.589 5225.93C-9.1629 4957.12 -364.219 4814.5 -512.778 4776.79L-593 5256.58L-384.089 5995.48L409.217 6027.79L1274.39 5947.55L1295 5760.32C1265.85 5726.14 1133.22 5660.13 835.953 5669.49C464.369 5681.19 512.279 5561.94 222.589 5225.93Z" fill="#57A3DB"/>
</g>
<g opacity="0.5" filter="url(#filter12_f_61_5999)">
<path d="M361 5319.79L1538 5410.29V6076.29H872L361 5319.79Z" fill="#F59C32"/>
</g>
<g style="mix-blend-mode:overlay" opacity="0.2">
<rect x="-815" y="4838" width="3072" height="1766" fill="url(#pattern3)"/>
</g>
<g opacity="0.3" filter="url(#filter13_f_61_5999)">
<path d="M1677.67 7520.97C1892.73 7966.33 2319.3 8286.33 2505.69 8390.67L2786.7 7773.93L2771.9 6704.18L1715.58 6374.52L521.923 6170.42L426.658 6414.96C453.583 6471.47 608.324 6608.15 1011.89 6702.78C1516.35 6821.07 1408.85 6964.27 1677.67 7520.97Z" fill="#87E985"/>
</g>
<defs>
<pattern id="pattern0" patternContentUnits="objectBoundingBox" width="0.0930556" height="0.0674044">
<use xlink:href="#image0_61_5999" transform="scale(0.00042298 0.000306384)"/>
</pattern>
<filter id="filter0_f_61_5999" x="84" y="-1280" width="2920" height="2283" filterUnits="userSpaceOnUse" color-interpolation-filters="sRGB">
<feFlood flood-opacity="0" result="BackgroundImageFix"/>
<feBlend mode="normal" in="SourceGraphic" in2="BackgroundImageFix" result="shape"/>
<feGaussianBlur stdDeviation="258" result="effect1_foregroundBlur_61_5999"/>
</filter>
<filter id="filter1_f_61_5999" x="-577" y="-577.205" width="2975" height="2319" filterUnits="userSpaceOnUse" color-interpolation-filters="sRGB">
<feFlood flood-opacity="0" result="BackgroundImageFix"/>
<feBlend mode="normal" in="SourceGraphic" in2="BackgroundImageFix" result="shape"/>
<feGaussianBlur stdDeviation="258" result="effect1_foregroundBlur_61_5999"/>
</filter>
<filter id="filter2_f_61_5999" x="-1091" y="-577.205" width="2920" height="2283" filterUnits="userSpaceOnUse" color-interpolation-filters="sRGB">
<feFlood flood-opacity="0" result="BackgroundImageFix"/>
<feBlend mode="normal" in="SourceGraphic" in2="BackgroundImageFix" result="shape"/>
<feGaussianBlur stdDeviation="258" result="effect1_foregroundBlur_61_5999"/>
</filter>
<filter id="filter3_f_61_5999" x="-105" y="-2.20508" width="2145" height="1724.5" filterUnits="userSpaceOnUse" color-interpolation-filters="sRGB">
<feFlood flood-opacity="0" result="BackgroundImageFix"/>
<feBlend mode="normal" in="SourceGraphic" in2="BackgroundImageFix" result="shape"/>
<feGaussianBlur stdDeviation="242" result="effect1_foregroundBlur_61_5999"/>
</filter>
<filter id="filter4_f_61_5999" x="-71.3419" y="816.423" width="3392.04" height="3252.24" filterUnits="userSpaceOnUse" color-interpolation-filters="sRGB">
<feFlood flood-opacity="0" result="BackgroundImageFix"/>
<feBlend mode="normal" in="SourceGraphic" in2="BackgroundImageFix" result="shape"/>
<feGaussianBlur stdDeviation="258" result="effect1_foregroundBlur_61_5999"/>
</filter>
<pattern id="pattern1" patternContentUnits="objectBoundingBox" width="0.0436198" height="0.0758777">
<use xlink:href="#image0_61_5999" transform="scale(0.000198272 0.000344899)"/>
</pattern>
<filter id="filter5_f_61_5999" x="425.5" y="2647" width="2283" height="2920" filterUnits="userSpaceOnUse" color-interpolation-filters="sRGB">
<feFlood flood-opacity="0" result="BackgroundImageFix"/>
<feBlend mode="normal" in="SourceGraphic" in2="BackgroundImageFix" result="shape"/>
<feGaussianBlur stdDeviation="258" result="effect1_foregroundBlur_61_5999"/>
</filter>
<filter id="filter6_f_61_5999" x="-313.295" y="1986" width="2319" height="2975" filterUnits="userSpaceOnUse" color-interpolation-filters="sRGB">
<feFlood flood-opacity="0" result="BackgroundImageFix"/>
<feBlend mode="normal" in="SourceGraphic" in2="BackgroundImageFix" result="shape"/>
<feGaussianBlur stdDeviation="258" result="effect1_foregroundBlur_61_5999"/>
</filter>
<filter id="filter7_f_61_5999" x="-277.295" y="1472" width="2283" height="2920" filterUnits="userSpaceOnUse" color-interpolation-filters="sRGB">
<feFlood flood-opacity="0" result="BackgroundImageFix"/>
<feBlend mode="normal" in="SourceGraphic" in2="BackgroundImageFix" result="shape"/>
<feGaussianBlur stdDeviation="258" result="effect1_foregroundBlur_61_5999"/>
</filter>
<filter id="filter8_f_61_5999" x="-293.795" y="2458" width="1724.5" height="2145" filterUnits="userSpaceOnUse" color-interpolation-filters="sRGB">
<feFlood flood-opacity="0" result="BackgroundImageFix"/>
<feBlend mode="normal" in="SourceGraphic" in2="BackgroundImageFix" result="shape"/>
<feGaussianBlur stdDeviation="242" result="effect1_foregroundBlur_61_5999"/>
</filter>
<pattern id="pattern2" patternContentUnits="objectBoundingBox" width="0.0436198" height="0.0894526">
<use xlink:href="#image0_61_5999" transform="scale(0.000198272 0.000406603)"/>
</pattern>
<filter id="filter9_f_61_5999" x="66" y="3558" width="2920" height="2283" filterUnits="userSpaceOnUse" color-interpolation-filters="sRGB">
<feFlood flood-opacity="0" result="BackgroundImageFix"/>
<feBlend mode="normal" in="SourceGraphic" in2="BackgroundImageFix" result="shape"/>
<feGaussianBlur stdDeviation="258" result="effect1_foregroundBlur_61_5999"/>
</filter>
<filter id="filter10_f_61_5999" x="-595" y="4260.79" width="2975" height="2319" filterUnits="userSpaceOnUse" color-interpolation-filters="sRGB">
<feFlood flood-opacity="0" result="BackgroundImageFix"/>
<feBlend mode="normal" in="SourceGraphic" in2="BackgroundImageFix" result="shape"/>
<feGaussianBlur stdDeviation="258" result="effect1_foregroundBlur_61_5999"/>
</filter>
<filter id="filter11_f_61_5999" x="-1109" y="4260.79" width="2920" height="2283" filterUnits="userSpaceOnUse" color-interpolation-filters="sRGB">
<feFlood flood-opacity="0" result="BackgroundImageFix"/>
<feBlend mode="normal" in="SourceGraphic" in2="BackgroundImageFix" result="shape"/>
<feGaussianBlur stdDeviation="258" result="effect1_foregroundBlur_61_5999"/>
</filter>
<filter id="filter12_f_61_5999" x="-123" y="4835.79" width="2145" height="1724.5" filterUnits="userSpaceOnUse" color-interpolation-filters="sRGB">
<feFlood flood-opacity="0" result="BackgroundImageFix"/>
<feBlend mode="normal" in="SourceGraphic" in2="BackgroundImageFix" result="shape"/>
<feGaussianBlur stdDeviation="242" result="effect1_foregroundBlur_61_5999"/>
</filter>
<pattern id="pattern3" patternContentUnits="objectBoundingBox" width="0.0436198" height="0.0758777">
<use xlink:href="#image0_61_5999" transform="scale(0.000198272 0.000344899)"/>
</pattern>
<filter id="filter13_f_61_5999" x="-89.3419" y="5654.42" width="3392.04" height="3252.24" filterUnits="userSpaceOnUse" color-interpolation-filters="sRGB">
<feFlood flood-opacity="0" result="BackgroundImageFix"/>
<feBlend mode="normal" in="SourceGraphic" in2="BackgroundImageFix" result="shape"/>
<feGaussianBlur stdDeviation="258" result="effect1_foregroundBlur_61_5999"/>
</filter>
</defs>
</svg>
