<svg width="205" height="213" viewBox="0 0 205 213" fill="none" xmlns="http://www.w3.org/2000/svg">
<path d="M0.6875 75.3306C0.6875 73.7297 1.81752 71.8463 3.13587 71.093L123.859 1.40876C125.177 0.655414 127.438 0.655414 128.756 1.40876L131.487 3.00962C132.805 3.76297 133.935 5.64632 133.935 7.24718V103.204C133.935 104.711 132.805 106.688 131.487 107.442L10.7635 177.126C9.44513 177.879 7.18509 177.879 5.86673 177.126L3.13587 175.525C1.81752 174.772 0.6875 172.794 0.6875 171.288V75.3306Z" fill="url(#paint0_radial_1722_50378)"/>
<g opacity="0.7">
<g opacity="0.7">
<path opacity="0.7" d="M0.6875 75.3306C0.6875 73.7297 1.81752 71.8463 3.13587 71.093L123.859 1.40876C125.177 0.655414 127.438 0.655414 128.756 1.40876L131.487 3.00962C132.805 3.76297 133.935 5.64632 133.935 7.24718V103.204C133.935 104.711 132.805 106.688 131.487 107.442L10.7635 177.126C9.44513 177.879 7.18509 177.879 5.86673 177.126L3.13587 175.525C1.81752 174.772 0.6875 172.794 0.6875 171.288V75.3306Z" fill="#242424"/>
</g>
</g>
<path d="M1.44141 72.8822L8.40984 76.9314L133.276 4.79881C132.806 4.04546 132.241 3.38629 131.581 3.00962L128.851 1.40876C127.532 0.655414 125.272 0.655414 123.954 1.40876L3.2306 71.093C2.47726 71.4697 1.91225 72.1289 1.44141 72.8822Z" fill="#426B7A"/>
<path opacity="0.8" d="M1.44141 72.8822L8.40984 76.9314L133.276 4.79881C132.806 4.04546 132.241 3.38629 131.581 3.00962L128.851 1.40876C127.532 0.655414 125.272 0.655414 123.954 1.40876L3.2306 71.093C2.47726 71.4697 1.91225 72.1289 1.44141 72.8822Z" fill="white"/>
<path opacity="0.1" d="M0.6875 75.3312V171.288C0.6875 172.889 1.81752 174.772 3.13587 175.526L5.86673 177.127C6.05507 177.221 6.33759 177.315 6.52592 177.409C6.80843 177.503 7.18509 177.598 7.56176 177.598C8.22094 177.692 8.88012 177.692 9.53929 177.503C9.72763 177.503 9.8218 177.409 10.0101 177.409C10.1043 177.409 10.1985 177.315 10.2926 177.315C9.8218 177.503 9.44512 177.409 9.06845 177.315C8.59761 177.033 8.31511 176.562 8.31511 175.714V79.7571C8.31511 78.7212 8.78594 77.9679 9.63345 77.6854L8.31511 76.932L1.34669 72.8828C0.970015 73.6362 0.6875 74.5778 0.6875 75.3312Z" fill="#426B7A"/>
<path opacity="0.05" d="M0.6875 75.3312V171.288C0.6875 172.889 1.81752 174.772 3.13587 175.526L5.86673 177.127C6.05507 177.221 6.33759 177.315 6.52592 177.409C6.80843 177.503 7.18509 177.598 7.56176 177.598C8.22094 177.692 8.88012 177.692 9.53929 177.503C9.72763 177.503 9.8218 177.409 10.0101 177.409C10.1043 177.409 10.1985 177.315 10.2926 177.315C9.8218 177.503 9.44512 177.409 9.06845 177.315C8.59761 177.033 8.31511 176.562 8.31511 175.714V79.7571C8.31511 78.7212 8.78594 77.9679 9.63345 77.6854L8.31511 76.932L1.34669 72.8828C0.970015 73.6362 0.6875 74.5778 0.6875 75.3312Z" fill="black"/>
<path opacity="0.2" d="M8.41016 76.9291L66.4176 98.5877C70.561 100.094 75.1752 98.5877 77.6236 94.9151L86.9462 80.6958L133.371 4.89062L88.8295 81.2608L134.124 103.296C134.124 104.049 133.842 104.991 133.371 105.744L88.7354 81.4491L77.9061 98.776C75.4577 102.731 70.3726 104.332 66.1351 102.354L58.4133 98.9643L9.35184 177.312C8.881 177.03 8.59849 176.559 8.59849 175.711V174.11L58.225 98.8702L8.41016 76.9291Z" fill="#426B7A"/>
<path opacity="0.05" d="M8.41016 76.9291L66.4176 98.5877C70.561 100.094 75.1752 98.5877 77.6236 94.9151L86.9462 80.6958L133.371 4.89062L88.8295 81.2608L134.124 103.296C134.124 104.049 133.842 104.991 133.371 105.744L88.7354 81.4491L77.9061 98.776C75.4577 102.731 70.3726 104.332 66.1351 102.354L58.4133 98.9643L9.35184 177.312C8.881 177.03 8.59849 176.559 8.59849 175.711V174.11L58.225 98.8702L8.41016 76.9291Z" fill="black"/>
<path d="M36.6562 93.1431C36.6562 91.5422 37.7863 89.6588 39.1046 88.9055L159.828 19.2213C161.146 18.4679 163.406 18.4679 164.725 19.2213L167.455 20.8221C168.774 21.5755 169.904 23.4588 169.904 25.0597V121.017C169.904 122.523 168.774 124.501 167.455 125.254L46.7322 194.939C45.4139 195.692 43.1538 195.692 41.8355 194.939L39.1046 193.244C37.7863 192.49 36.6562 190.607 36.6562 189.006V93.1431Z" fill="url(#paint1_radial_1722_50378)"/>
<g opacity="0.5">
<g opacity="0.5">
<path opacity="0.5" d="M36.6562 93.1431C36.6562 91.5422 37.7863 89.6588 39.1046 88.9055L159.828 19.2213C161.146 18.4679 163.406 18.4679 164.725 19.2213L167.455 20.8221C168.774 21.5755 169.904 23.4588 169.904 25.0597V121.017C169.904 122.523 168.774 124.501 167.455 125.254L46.7322 194.939C45.4139 195.692 43.1538 195.692 41.8355 194.939L39.1046 193.244C37.7863 192.49 36.6562 190.607 36.6562 189.006V93.1431Z" fill="#242424"/>
</g>
</g>
<path d="M37.4102 90.6869L44.3786 94.7361L169.245 22.6035C168.774 21.8502 168.209 21.191 167.55 20.8143L164.819 19.2134C163.501 18.4601 161.241 18.4601 159.923 19.2134L39.1994 88.8977C38.446 89.2744 37.881 89.9335 37.4102 90.6869Z" fill="#5C6E5C"/>
<path opacity="0.6" d="M37.4102 90.6869L44.3786 94.7361L169.245 22.6035C168.774 21.8502 168.209 21.191 167.55 20.8143L164.819 19.2134C163.501 18.4601 161.241 18.4601 159.923 19.2134L39.1994 88.8977C38.446 89.2744 37.881 89.9335 37.4102 90.6869Z" fill="#F27B50"/>
<path opacity="0.1" d="M36.6562 93.1363V189.093C36.6562 190.694 37.7863 192.578 39.1046 193.331L41.8355 194.932C42.0238 195.026 42.3063 195.12 42.4947 195.214C42.7772 195.308 43.1538 195.403 43.5305 195.403C44.1897 195.497 44.8489 195.497 45.508 195.308C45.6964 195.308 45.7905 195.214 45.9789 195.214C46.073 195.214 46.1672 195.12 46.2614 195.12C45.7905 195.308 45.4139 195.214 45.1314 195.12C44.6605 194.838 44.378 194.367 44.378 193.519V97.468C44.378 96.4322 44.8489 95.6788 45.6964 95.3963L44.378 94.643L37.4096 90.5938C36.9388 91.4413 36.6562 92.2888 36.6562 93.1363Z" fill="black"/>
<path opacity="0.4" d="M44.3789 94.7416L102.386 116.4C106.53 117.907 111.144 116.4 113.592 112.728L122.915 98.5083L169.34 22.7031L124.798 99.0733L170.093 121.109C170.093 121.862 169.811 122.804 169.34 123.557L124.704 99.2616L113.875 116.589C111.426 120.544 106.341 122.144 102.104 120.167L94.3821 116.777L45.3206 195.125C44.8497 194.842 44.5672 194.371 44.5672 193.524V191.923L94.1937 116.683L44.3789 94.7416Z" fill="#2F4754"/>
<path opacity="0.05" d="M44.3789 94.7416L102.386 116.4C106.53 117.907 111.144 116.4 113.592 112.728L122.915 98.5083L169.34 22.7031L124.798 99.0733L170.093 121.109C170.093 121.862 169.811 122.804 169.34 123.557L124.704 99.2616L113.875 116.589C111.426 120.544 106.341 122.144 102.104 120.167L94.3821 116.777L45.3206 195.125C44.8497 194.842 44.5672 194.371 44.5672 193.524V191.923L94.1937 116.683L44.3789 94.7416Z" fill="black"/>
<path d="M71.1992 111.478L196.819 38.9688L201.81 41.8879C203.128 42.6413 204.164 44.5247 204.164 45.9372V138.598C204.164 140.105 203.128 141.894 201.81 142.648L80.8985 212.426C79.5802 213.179 77.5085 213.179 76.1901 212.426L73.5534 210.919C72.2351 210.166 71.1992 208.283 71.1992 206.87V111.478Z" fill="#3BBC80"/>
<path opacity="0.2" d="M70.6211 111.306L196.241 38.7969L201.232 41.7161C202.55 42.4694 203.586 44.3528 203.586 45.7653V138.427C203.586 139.933 202.55 141.722 201.232 142.476L80.3204 212.254C79.002 213.007 76.9303 213.007 75.612 212.254L72.9753 210.747C71.6569 209.994 70.6211 208.111 70.6211 206.698V111.306Z" fill="black"/>
<path d="M196.067 30.7719L196.538 30.4894L194.56 29.3594C194.372 29.2652 194.183 29.1711 193.995 29.0769L138.718 8.5483C137.212 7.98329 135.328 8.64246 134.481 9.86664L72.6126 100.174C71.7651 101.492 71.0117 103.752 71.0117 105.353C71.0117 107.895 71.0117 111.38 71.0117 111.38L72.8951 112.51L196.538 38.8704V32.8436C196.82 32.1844 196.538 31.4311 196.067 30.7719Z" fill="#347D65"/>
<path opacity="0.1" d="M137.213 10.4429C136.93 10.6313 136.742 10.8196 136.554 11.1021L74.6852 101.409C74.2144 102.068 73.8377 103.01 73.5552 103.952L71.6719 102.822C71.766 102.351 71.9544 101.88 72.1427 101.409C72.2369 101.221 72.3311 101.032 72.4252 100.844V100.75C72.5194 100.562 72.6136 100.373 72.8019 100.185L134.67 9.87792C134.764 9.68959 134.859 9.59542 134.953 9.50126C135.047 9.40709 135.141 9.31292 135.329 9.21875L137.213 10.4429Z" fill="#595A5A"/>
<path opacity="0.35" d="M196.631 30.4961C196.443 30.4019 196.255 30.3077 196.066 30.2136L140.79 9.68496C139.66 9.21412 138.153 9.59079 137.211 10.3441L135.328 9.21412C136.27 8.36661 137.777 8.08411 138.907 8.55495L194.183 29.0835C194.371 29.1777 194.56 29.2719 194.654 29.3661L196.631 30.4961Z" fill="#65FEB7"/>
<path d="M72.4219 100.846C72.516 100.658 72.6102 100.47 72.7985 100.281C72.7044 100.47 72.6102 100.658 72.4219 100.846Z" fill="#65FEB7"/>
<path d="M134.953 9.59501C135.047 9.50084 135.141 9.40667 135.33 9.3125C135.141 9.40667 135.047 9.50084 134.953 9.59501Z" fill="#65FEB7"/>
<path d="M71.6719 102.905C71.8602 102.434 71.9544 101.963 72.1427 101.492C71.9544 101.963 71.766 102.434 71.6719 102.905Z" fill="#65FEB7"/>
<path d="M72.1406 101.503C72.2348 101.314 72.329 101.126 72.4231 100.938C72.329 101.126 72.2348 101.314 72.1406 101.503Z" fill="#65FEB7"/>
<path opacity="0.2" d="M134.668 9.97042C134.762 9.87625 134.856 9.68792 134.95 9.59375C134.856 9.68792 134.762 9.87625 134.668 9.97042Z" fill="black"/>
<path d="M136.555 11.099L74.6868 101.406C73.8393 102.724 73.0859 104.984 73.0859 106.585C73.0859 109.128 73.0859 112.612 73.0859 112.612L198.706 40.1027V34.076C198.706 32.4751 197.482 30.7801 196.069 30.3093L140.793 9.78067C139.38 9.21566 137.403 9.78066 136.555 11.099Z" fill="#65FEB7"/>
<path opacity="0.05" d="M198.706 34.0873C198.706 33.334 198.423 32.5806 198.047 32.0156L73.5568 104.054C73.2743 104.902 73.0859 105.843 73.0859 106.597C73.0859 109.139 73.0859 112.623 73.0859 112.623L198.706 40.1141V34.0873Z" fill="black"/>
<path d="M193.336 8.56147C193.336 7.90229 193.148 7.43146 192.771 7.24312C192.394 7.05479 189.287 5.26559 188.91 4.98309C188.533 4.79475 188.063 4.79475 187.498 5.17142L84.4779 64.6855C83.3479 65.3447 82.4062 66.9456 82.4062 68.2639V191.624C82.4062 192.283 82.5946 192.754 82.9713 192.942C83.3479 193.131 86.4555 194.92 86.8321 195.108C87.2088 195.296 87.6796 195.296 88.2446 194.92L191.264 135.406C192.394 134.746 193.336 133.146 193.336 131.921V8.56147Z" fill="#786841"/>
<path d="M88.0639 195.003L191.084 135.489C192.214 134.83 193.155 133.229 193.155 131.911V8.55083C193.155 7.23247 192.214 6.76164 191.084 7.42081L88.0639 66.9349C86.9338 67.5941 85.9922 69.195 85.9922 70.5133V193.873C85.9922 195.097 86.9338 195.662 88.0639 195.003Z" fill="url(#paint2_radial_1722_50378)"/>
<path d="M137.437 99.6924C137.437 99.6924 137.694 103.158 133.405 105.686C133.712 108.524 133.709 108.499 133.709 108.499L138.109 105.907L139.287 116.795L142.648 114.815L140.797 97.7123L137.437 99.6924Z" fill="white"/>
<path d="M149.329 92.3988C145.195 94.8348 142.607 99.6128 143.216 105.24C143.836 110.965 147.075 112.206 151.209 109.77C155.365 107.321 157.953 102.543 157.344 96.916C156.735 91.2886 153.486 89.9498 149.329 92.3988ZM150.817 106.149C148.275 107.647 146.98 106.77 146.599 103.247C146.22 99.7483 147.181 97.5425 149.724 96.0444C152.288 94.5333 153.588 95.4593 153.961 98.9091C154.329 102.31 153.382 104.638 150.817 106.149Z" fill="white"/>
<path d="M164.918 83.2138C160.783 85.6499 158.196 90.4278 158.805 96.0552C159.424 101.78 162.663 103.021 166.797 100.585C170.954 98.1364 173.541 93.3584 172.932 87.731C172.323 82.1036 169.074 80.7648 164.918 83.2138ZM166.406 96.9643C163.863 98.4624 162.569 97.5853 162.187 94.0621C161.809 90.5633 162.77 88.3575 165.312 86.8594C167.877 85.3483 169.176 86.2743 169.55 89.7241C169.918 93.125 168.97 95.4532 166.406 96.9643Z" fill="white"/>
<path fill-rule="evenodd" clip-rule="evenodd" d="M120.429 125.147C123.438 123.374 125.808 119.875 126.624 116.388L129.268 114.831C128.503 119.905 125.122 125.256 120.721 127.848C116.321 130.441 112.256 129.477 110.551 125.859L113.195 124.301C114.622 126.465 117.42 126.92 120.429 125.147ZM118.708 109.239C115.699 111.012 113.329 114.512 112.513 117.998L109.869 119.556C110.634 114.482 114.015 109.131 118.415 106.538C122.816 103.945 126.88 104.909 128.586 108.527L128.587 108.527C129.113 109.716 129.292 110.771 129.346 111.272C129.433 112.072 129.432 112.66 129.432 112.66L106.252 126.318L107.898 122.55L118.563 116.266L123.928 113.105L126.608 111.526C126.608 111.526 126.344 110.647 125.942 110.085L125.942 110.085C124.514 107.921 121.716 107.467 118.708 109.239Z" fill="#65FEB7"/>
<path d="M86.2667 193.785C86.2667 194.35 86.4551 194.821 86.7376 195.009C86.0784 194.633 83.3475 193.032 83.065 192.843C82.6883 192.655 82.5 192.184 82.5 191.525V68.165C82.5 67.5059 82.6883 66.8467 83.065 66.1875L86.9259 68.3534C86.5492 69.0125 86.3609 69.6717 86.3609 70.3309V193.785H86.2667Z" fill="#655838"/>
<path d="M200.962 139.821C200.962 139.916 200.867 139.916 200.867 140.01L148.51 123.436C144.367 121.647 139.564 123.06 137.21 126.92L81.2741 210.071L79.2024 211.295C78.5432 211.672 77.9782 211.672 77.6016 211.483L135.138 125.79C137.492 121.93 142.389 120.517 146.438 122.306L200.962 139.821Z" fill="url(#paint3_linear_1722_50378)"/>
<path opacity="0.4" d="M132.031 135.021L132.125 134.926L81.2741 210.072L79.2024 211.297C78.5432 211.673 77.9782 211.673 77.6016 211.485L130.053 133.891L132.031 135.021Z" fill="#2E4551"/>
<path opacity="0.4" d="M200.964 139.813C200.964 139.907 200.87 139.907 200.87 140.001L148.512 123.428C144.369 121.639 139.566 123.051 137.212 126.912L135.141 125.688C137.495 121.921 142.297 120.415 146.441 122.204L200.964 139.813Z" fill="#2F4753"/>
<path d="M204.165 45.2742C204.071 44.6151 203.694 44.4267 203.223 44.7092C203.035 44.8034 202.847 45.0859 202.658 45.3684L202.376 45.7451L150.772 124.281L143.05 135.016C142.202 136.24 140.319 136.9 138.812 136.617L132.126 135.016L81.2758 116.277C80.8991 116.183 80.5225 116.183 80.24 116.277C80.1458 116.277 79.9574 116.371 79.8633 116.371L81.7466 115.241L130.431 133.133L136.835 135.393C138.342 135.77 140.225 135.016 141.072 133.792L148.794 123.057L200.681 44.1442C200.869 43.9559 201.057 43.7676 201.246 43.5792L196.726 40.9425L198.609 39.8125L201.717 41.6017C202.941 42.4492 203.882 43.9559 204.165 45.2742Z" fill="url(#paint4_linear_1722_50378)"/>
<path opacity="0.4" d="M150.677 124.278L142.955 135.013C142.107 136.237 140.224 136.897 138.717 136.614L132.031 135.013L132.125 134.919L132.408 134.448L136.74 135.484C138.246 135.861 140.13 135.107 140.977 133.883L148.605 123.242L150.677 124.278Z" fill="#3F6675"/>
<path opacity="0.1" d="M201.813 41.7892L198.706 40L196.823 41.0359L201.343 43.6726C201.154 43.8609 200.872 43.9551 200.778 44.2376L148.891 123.15L148.797 123.244L150.68 124.28L202.378 45.7442L202.661 45.3676C202.849 45.0851 203.038 44.8967 203.226 44.7084C203.697 44.4259 204.073 44.6142 204.168 45.2734C203.885 43.9551 202.943 42.4484 201.813 41.7892Z" fill="#283B47"/>
<path d="M82.3149 117.872L71.2031 111.469V206.861C71.2031 208.368 72.239 210.157 73.5573 210.91L76.194 212.417C77.5124 213.17 79.5841 213.17 80.9024 212.417L82.2208 211.663V117.872H82.3149Z" fill="#30A16D"/>
<path opacity="0.15" d="M81.7329 117.177L70.6211 110.773V206.166C70.6211 207.672 71.6569 209.461 72.9753 210.215L75.612 211.721C76.9303 212.475 79.002 212.475 80.3204 211.721L81.6387 210.968V117.177H81.7329Z" fill="#2F9666"/>
<path d="M204.167 45.9327V138.594C204.167 139.347 203.885 140.195 203.414 140.948C203.037 141.607 202.566 142.078 202.001 142.549H201.907C201.813 142.549 201.813 142.643 201.719 142.643L80.8073 212.422C80.1481 212.798 79.5831 212.798 79.2065 212.61C78.8298 212.422 78.5473 212.045 78.4531 211.48C78.4531 211.386 78.4531 211.197 78.4531 211.009V118.348C78.4531 116.841 79.5831 115.899 81.0898 116.276L131.941 135.015L138.626 136.616C140.133 136.993 142.016 136.24 142.864 135.015L150.586 124.28L202.19 45.7443L202.472 45.3677C203.508 44.1435 204.167 44.426 204.167 45.9327Z" fill="url(#paint5_radial_1722_50378)"/>
<path d="M201.812 142.644C201.907 142.644 201.907 142.55 202.001 142.55L202.095 142.456C202.66 142.079 203.131 141.514 203.507 140.949C203.978 140.196 204.261 139.348 204.261 138.595L150.773 124.281L186.557 151.496L201.812 142.644Z" fill="#212D38"/>
<path opacity="0.2" d="M201.812 142.644C201.907 142.644 201.907 142.55 202.001 142.55L202.095 142.456C202.66 142.079 203.131 141.514 203.507 140.949C203.978 140.196 204.261 139.348 204.261 138.595L150.773 124.281L186.557 151.496L201.812 142.644Z" fill="#202B36"/>
<path d="M78.6406 211.103C78.6406 211.856 78.9231 212.421 79.394 212.704C79.7706 212.892 80.3356 212.892 80.9948 212.515L122.617 188.503L132.128 135.109L78.6406 209.596V211.103Z" fill="#293C48"/>
<path opacity="0.15" d="M137.213 126.825L79.3002 212.612C78.8294 212.424 78.5469 211.859 78.5469 211.105V209.598L135.048 125.789L137.213 126.825Z" fill="#304A56"/>
<path d="M203.508 140.947C203.131 141.606 202.66 142.077 202.095 142.454L202.001 142.548L80.9954 212.42C80.3362 212.797 79.7712 212.797 79.3945 212.609L137.308 126.822C139.662 122.961 144.559 121.548 148.702 123.337L203.508 140.947Z" fill="url(#paint6_radial_1722_50378)"/>
<path opacity="0.15" d="M71.674 102.906L73.5573 104.036C73.2748 104.978 73.0865 105.825 73.0865 106.579C73.0865 109.121 73.0865 112.606 73.0865 112.606L71.2031 111.476C71.2031 111.476 71.2031 108.085 71.2031 105.449C71.2031 104.695 71.3915 103.754 71.674 102.906Z" fill="#2B825F"/>
<path d="M81.7494 115.33L79.866 116.365L77.8885 115.33L73.0859 112.505L74.9693 111.469L81.7494 115.33Z" fill="#2A835F"/>
<path opacity="0.1" d="M81.8436 115.33L74.9693 111.469L73.0859 112.599L77.8885 115.33L79.866 116.46C79.9602 116.365 80.1485 116.365 80.2427 116.365C80.5252 116.271 80.9019 116.365 81.2785 116.365L85.1394 117.778L129.493 134.069L130.152 133.033L81.8436 115.33Z" fill="#5A6E60"/>
<rect width="41.1529" height="4.98824" rx="2.49412" transform="matrix(0.866025 -0.5 0.0989724 0.99509 104.891 67.7812)" fill="#65FEB7"/>
<rect width="28.6824" height="4.98824" rx="2.49412" transform="matrix(0.866025 -0.5 0.0989724 0.99509 107.855 97.5625)" fill="#BA54EC"/>
<rect width="16.2118" height="4.98824" rx="2.49412" transform="matrix(0.866025 -0.5 0.0989724 0.99509 105.879 77.7109)" fill="#F27B50"/>
<rect width="12.4706" height="4.98824" rx="2.49412" transform="matrix(-0.866025 0.5 0.0989724 0.99509 135.039 60.875)" fill="#65FEB7"/>
<rect width="14.9647" height="4.98824" rx="2.49412" transform="matrix(-0.866025 0.5 0.0989724 0.99509 171.664 50.2266)" fill="#BA54EC"/>
<rect width="12.4706" height="4.98824" rx="2.49412" transform="matrix(-0.866025 0.5 0.0989724 0.99509 156.73 37.8516)" fill="#F27B50"/>
<rect width="33.6706" height="4.98824" rx="2.49412" transform="matrix(-0.866025 0.5 0.0989724 0.99509 154.387 60.2031)" fill="#F27B50"/>
<rect width="43.6471" height="4.98824" rx="2.49412" transform="matrix(-0.866025 0.5 0.0989724 0.99509 177.16 36.5547)" fill="#65FEB7"/>
<rect width="16.2118" height="4.98824" rx="2.49412" transform="matrix(0.866025 -0.5 0.0989724 0.99509 106.867 87.6328)" fill="#65FEB7"/>
<defs>
<radialGradient id="paint0_radial_1722_50378" cx="0" cy="0" r="1" gradientUnits="userSpaceOnUse" gradientTransform="translate(-14.7611 37.2543) scale(160.759 198.185)">
<stop stop-color="white"/>
<stop offset="0.4742" stop-color="white"/>
<stop offset="0.5875" stop-color="#F4F3F3"/>
<stop offset="0.7262" stop-color="#B8B8B8"/>
<stop offset="1" stop-color="#CDCDCD"/>
</radialGradient>
<radialGradient id="paint1_radial_1722_50378" cx="0" cy="0" r="1" gradientUnits="userSpaceOnUse" gradientTransform="translate(21.2077 55.0668) scale(160.759 198.185)">
<stop stop-color="#F27B50"/>
<stop offset="0.4742" stop-color="#F27B50"/>
<stop offset="0.5875" stop-color="#BD7257"/>
<stop offset="0.7262" stop-color="#CB592F"/>
<stop offset="1" stop-color="#813B21"/>
</radialGradient>
<radialGradient id="paint2_radial_1722_50378" cx="0" cy="0" r="1" gradientUnits="userSpaceOnUse" gradientTransform="translate(61.9418 -6.48548) rotate(46.4917) scale(169.364 515.143)">
<stop stop-color="#8B7F5A"/>
<stop offset="0.505208" stop-color="#6B5935"/>
<stop offset="0.661458" stop-color="#656E50"/>
<stop offset="0.796875" stop-color="#426C7B"/>
<stop offset="1" stop-color="#1F2A35"/>
</radialGradient>
<linearGradient id="paint3_linear_1722_50378" x1="139.282" y1="121.539" x2="130.366" y2="151.806" gradientUnits="userSpaceOnUse">
<stop stop-color="#3D616F"/>
<stop offset="1" stop-color="#308861"/>
</linearGradient>
<linearGradient id="paint4_linear_1722_50378" x1="204.512" y1="48.147" x2="128.928" y2="132.369" gradientUnits="userSpaceOnUse">
<stop stop-color="#355361"/>
<stop offset="1" stop-color="#2F9666"/>
</linearGradient>
<radialGradient id="paint5_radial_1722_50378" cx="0" cy="0" r="1" gradientUnits="userSpaceOnUse" gradientTransform="translate(90.0585 5.67359) rotate(37.2939) scale(155.635 360.585)">
<stop stop-color="#65FEB7"/>
<stop offset="0.505208" stop-color="#42D18F"/>
<stop offset="0.661458" stop-color="#268659"/>
<stop offset="0.796875" stop-color="#426C7B"/>
<stop offset="1" stop-color="#1F2A35"/>
</radialGradient>
<radialGradient id="paint6_radial_1722_50378" cx="0" cy="0" r="1" gradientUnits="userSpaceOnUse" gradientTransform="translate(25.2721 7.1136) rotate(40.3787) scale(221.12 278.27)">
<stop stop-color="#8B7F5A"/>
<stop offset="0.505208" stop-color="#6B5935"/>
<stop offset="0.661458" stop-color="#656E50"/>
<stop offset="0.796875" stop-color="#426C7B"/>
<stop offset="1" stop-color="#1F2A35"/>
</radialGradient>
</defs>
</svg>
