<svg width="33" height="32" viewBox="0 0 33 32" fill="none" xmlns="http://www.w3.org/2000/svg">
<path fill-rule="evenodd" clip-rule="evenodd" d="M5.35062 4.85046C5.52923 4.67185 5.77147 4.57151 6.02406 4.57151H21.2622C21.5147 4.57151 21.757 4.67185 21.9356 4.85046C22.1142 5.02906 22.2145 5.2713 22.2145 5.52389V10.2858C22.2145 10.8118 22.6409 11.2382 23.1669 11.2382C23.6929 11.2382 24.1193 10.8118 24.1193 10.2858V5.52389C24.1193 4.76613 23.8183 4.0394 23.2825 3.50359C22.7466 2.96777 22.0199 2.66675 21.2622 2.66675H6.02406C5.2663 2.66675 4.53957 2.96777 4.00375 3.50359C3.46794 4.0394 3.16692 4.76613 3.16692 5.52389V14.5716C3.16669 14.5835 3.16669 14.5954 3.16692 14.6074V20.762C3.16692 21.5197 3.46794 22.2465 4.00375 22.7823C4.53957 23.3181 5.2663 23.6191 6.02406 23.6191H14.5955C15.1215 23.6191 15.5479 23.1927 15.5479 22.6667C15.5479 22.1408 15.1215 21.7144 14.5955 21.7144H6.02406C5.77147 21.7144 5.52923 21.614 5.35062 21.4354C5.17202 21.2568 5.07168 21.0146 5.07168 20.762V15.41C5.50815 15.3595 5.94734 15.3339 6.38714 15.3334L6.39042 15.3334C9.02993 15.321 11.5866 16.2541 13.5977 17.9638C13.9984 18.3045 14.5995 18.2558 14.9402 17.855C15.2808 17.4543 15.2321 16.8532 14.8314 16.5126C12.474 14.5085 9.47716 13.4146 6.38315 13.4286C5.94496 13.4292 5.50729 13.4512 5.07168 13.4944V5.52389C5.07168 5.2713 5.17202 5.02906 5.35062 4.85046ZM14.5951 10.762C14.5951 9.97303 15.2347 9.33343 16.0237 9.33343C16.8127 9.33343 17.4523 9.97303 17.4523 10.762C17.4523 11.551 16.8127 12.1906 16.0237 12.1906C15.2347 12.1906 14.5951 11.551 14.5951 10.762ZM16.0237 7.42867C14.1827 7.42867 12.6904 8.92105 12.6904 10.762C12.6904 12.603 14.1827 14.0953 16.0237 14.0953C17.8646 14.0953 19.357 12.603 19.357 10.762C19.357 8.92105 17.8646 7.42867 16.0237 7.42867ZM21.4244 17.1159C22.1389 16.4015 23.1078 16.0001 24.1182 16.0001C25.1285 16.0001 26.0975 16.4015 26.8119 17.1159C27.5263 17.8303 27.9277 18.7993 27.9277 19.8096V26.4763C27.9277 27.0023 28.3541 27.4287 28.8801 27.4287C29.4061 27.4287 29.8325 27.0023 29.8325 26.4763V19.8096C29.8325 18.2941 29.2304 16.8406 28.1588 15.769C27.0872 14.6974 25.6337 14.0953 24.1182 14.0953C22.6027 14.0953 21.1492 14.6974 20.0776 15.769C19.0059 16.8406 18.4039 18.2941 18.4039 19.8096V26.0001C18.4039 26.8842 18.7551 27.732 19.3802 28.3571C20.0053 28.9822 20.8532 29.3334 21.7372 29.3334C22.6213 29.3334 23.4691 28.9822 24.0943 28.3571C24.7194 27.732 25.0706 26.8842 25.0706 26.0001V20.762C25.0706 20.236 24.6442 19.8096 24.1182 19.8096C23.5922 19.8096 23.1658 20.236 23.1658 20.762V26.0001C23.1658 26.379 23.0153 26.7423 22.7474 27.0103C22.4795 27.2782 22.1161 27.4287 21.7372 27.4287C21.3583 27.4287 20.995 27.2782 20.7271 27.0103C20.4592 26.7423 20.3087 26.379 20.3087 26.0001V19.8096C20.3087 18.7993 20.71 17.8303 21.4244 17.1159Z" fill="#65FEB7"/>
</svg>
