<svg width="38" height="33" viewBox="0 0 38 33" fill="none" xmlns="http://www.w3.org/2000/svg">
<path d="M18.9359 29.6666H22.2692V7.99997L32.9259 12.5666C33.2259 12.6952 33.4815 12.9091 33.6611 13.1817C33.8406 13.4543 33.9362 13.7736 33.9359 14.1V29.6666H37.2692V33H0.602539V29.6666H3.93587V7.41664C3.93583 7.09417 4.02934 6.77861 4.20506 6.50822C4.38079 6.23784 4.63117 6.02423 4.92587 5.89331L17.7642 0.186642C17.8912 0.130215 18.0303 0.10645 18.1689 0.117512C18.3074 0.128574 18.441 0.17411 18.5574 0.249976C18.6739 0.325841 18.7695 0.429627 18.8356 0.551886C18.9017 0.674145 18.9362 0.810993 18.9359 0.949975V29.6666Z" fill="#fff"/>
</svg>
