<svg width="33" height="33" viewBox="0 0 33 33" fill="none" xmlns="http://www.w3.org/2000/svg">
<g clip-path="url(#clip0_6393_37721)">
<path opacity="0.66" fill-rule="evenodd" clip-rule="evenodd" d="M32.5417 8.24409C32.811 8.66377 32.9442 9.15276 32.9444 9.70614C32.9461 14.2267 32.9461 23.2652 32.9461 23.2652C32.9459 23.8065 32.8181 24.286 32.5611 24.6994C32.2964 25.1242 31.8948 25.4798 31.3512 25.7594C29.507 26.7043 27.6623 27.648 25.8175 28.5917C23.274 29.8928 20.7306 31.1939 18.1892 32.4982C17.0067 33.1049 15.8606 33.0829 14.6868 32.4673C13.6326 31.9145 10.0262 30.072 6.76122 28.404C4.6205 27.3104 2.62657 26.2917 1.59509 25.7608C1.05149 25.4811 0.649816 25.1257 0.385172 24.7005C0.127746 24.2871 0.000257813 23.8076 0 23.2664C0.000837891 21.0061 0.000837891 18.7459 0.000837891 16.4857C0.000837891 14.2255 0.000837891 11.9653 0.00167578 9.70511C0.00193359 8.60728 0.523875 7.76266 1.5965 7.21076C2.63137 6.67801 4.63493 5.65428 6.78354 4.55645C10.0425 2.89126 13.6352 1.05556 14.6873 0.504071C15.8606 -0.11118 17.0067 -0.133292 18.1888 0.473251C20.6943 1.75901 23.2017 3.04178 25.709 4.32455C27.5895 5.28662 29.47 6.24869 31.3497 7.21203C31.8811 7.48551 32.2772 7.8314 32.5417 8.24409ZM16.4731 21.3282C18.5107 21.3282 20.2861 20.3329 21.2204 18.8602L25.9753 21.3087C24.09 24.2366 20.5407 26.2102 16.4731 26.2102C12.4129 26.2102 8.86917 24.2445 6.9812 21.3252C6.05953 19.9 5.53217 18.2478 5.53217 16.4859C5.53217 11.1155 10.4305 6.76172 16.4731 6.76172C20.5205 6.76172 24.0542 8.7154 25.9469 11.6193L21.185 14.0565C20.2413 12.6143 18.4852 11.6437 16.4731 11.6437C13.4643 11.6437 11.025 13.8117 11.025 16.4859C11.024 17.3287 11.2718 18.1571 11.7435 18.8882C12.6826 20.3454 14.448 21.3282 16.4731 21.3282Z" fill="white" fill-opacity="0.8"/>
<path opacity="0.5" fill-rule="evenodd" clip-rule="evenodd" d="M21.2198 18.8607L16.5231 16.4424L11.7433 18.8884C12.6824 20.3454 14.4477 21.3282 16.4727 21.3282C18.5101 21.3282 20.2854 20.3331 21.2198 18.8607ZM6.98107 21.3255C8.86909 24.2446 12.4127 26.2102 16.4727 26.2102C20.5402 26.2102 24.0894 24.2367 25.9747 21.309L32.5607 24.7C32.296 25.1249 31.8944 25.4805 31.3508 25.7601C29.5066 26.705 27.6617 27.6488 25.8169 28.5925C23.2735 29.8936 20.7302 31.1946 18.1888 32.4988C17.0063 33.1056 15.8602 33.0836 14.6864 32.468C13.6322 31.9152 10.0257 30.0727 6.76073 28.4047C4.62004 27.311 2.62615 26.2924 1.59468 25.7614C1.05108 25.4818 0.64941 25.1264 0.384766 24.7012L6.98107 21.3255Z" fill="white"/>
<path opacity="0.4" d="M32.9444 9.70619C32.9442 9.15281 32.811 8.66382 32.5417 8.24414L16.5234 16.4418L32.5611 24.6994C32.8181 24.286 32.9458 23.8066 32.9461 23.2652C32.9461 23.2652 32.9461 14.2267 32.9444 9.70619Z" fill="white"/>
<path d="M32.063 17.0323H30.8097V18.1464H29.5563V17.0323H28.3032V15.9186H29.5563V14.8047H30.8097V15.9186H32.063V17.0323ZM27.49 17.0323H26.2369V18.1464H24.9837V17.0323H23.7305V15.9186H24.9837V14.8047H26.2369V15.9186H27.49V17.0323Z" fill="#3F4137"/>
</g>
<defs>
<clipPath id="clip0_6393_37721">
<rect width="33" height="33" fill="white"/>
</clipPath>
</defs>
</svg>
