<svg width="20" height="20" viewBox="0 0 20 20" fill="none" xmlns="http://www.w3.org/2000/svg">
<g clip-path="url(#clip0_1371_30118)">
<path d="M11.6667 1.66406C13.1916 1.66334 14.6708 2.18545 15.8574 3.14333C17.044 4.10122 17.8663 5.43696 18.1872 6.92779C18.5081 8.41861 18.3082 9.9744 17.6209 11.3357C16.9335 12.697 15.8002 13.7814 14.41 14.4082C13.9656 15.3907 13.2896 16.2506 12.4399 16.9144C11.5902 17.5782 10.5921 18.026 9.53135 18.2193C8.47058 18.4127 7.37874 18.3459 6.34946 18.0246C5.32018 17.7034 4.38419 17.1372 3.62175 16.3748C2.85931 15.6124 2.29318 14.6764 1.97192 13.6471C1.65065 12.6178 1.58384 11.526 1.77721 10.4652C1.97057 9.40443 2.41835 8.40639 3.08213 7.55668C3.74592 6.70696 4.6059 6.03093 5.58832 5.58656C6.11678 4.4173 6.97131 3.42531 8.04944 2.72957C9.12758 2.03382 10.3835 1.66386 11.6667 1.66406ZM9.16666 7.4974H7.49999V8.33073C6.95842 8.32941 6.43762 8.53904 6.04798 8.91518C5.65834 9.29132 5.43048 9.80441 5.41271 10.3457C5.39494 10.887 5.58865 11.4139 5.95278 11.8148C6.3169 12.2157 6.82283 12.459 7.36332 12.4932L7.49999 12.4974H9.16666L9.24166 12.5041C9.33773 12.5215 9.42464 12.572 9.48722 12.647C9.5498 12.7219 9.58409 12.8164 9.58409 12.9141C9.58409 13.0117 9.5498 13.1062 9.48722 13.1812C9.42464 13.2561 9.33773 13.3067 9.24166 13.3241L9.16666 13.3307H5.83332V14.9974H7.49999V15.8307H9.16666V14.9974C9.70823 14.9987 10.229 14.7891 10.6187 14.4129C11.0083 14.0368 11.2362 13.5237 11.2539 12.9824C11.2717 12.4412 11.078 11.9142 10.7139 11.5133C10.3497 11.1124 9.84382 10.8691 9.30332 10.8349L9.16666 10.8307H7.49999L7.42499 10.8241C7.32892 10.8067 7.24201 10.7561 7.17943 10.6812C7.11684 10.6062 7.08256 10.5117 7.08256 10.4141C7.08256 10.3164 7.11684 10.2219 7.17943 10.147C7.24201 10.072 7.32892 10.0215 7.42499 10.0041L7.49999 9.9974H10.8333V8.33073H9.16666V7.4974ZM11.6667 3.33073C10.9606 3.3299 10.2623 3.47901 9.61818 3.7682C8.97401 4.05738 8.3986 4.48004 7.92999 5.00823C8.87188 4.95105 9.81517 5.09448 10.6975 5.42902C11.5798 5.76356 12.3811 6.2816 13.0483 6.94888C13.7155 7.61616 14.2334 8.41747 14.5679 9.29984C14.9023 10.1822 15.0456 11.1255 14.9883 12.0674C15.746 11.3937 16.281 10.5057 16.5223 9.52099C16.7637 8.53629 16.7 7.50149 16.3397 6.55383C15.9794 5.60617 15.3395 4.79043 14.5049 4.2148C13.6704 3.63917 12.6805 3.33085 11.6667 3.33073Z" fill="white"/>
</g>
<defs>
<clipPath id="clip0_1371_30118">
<rect width="20" height="20" fill="white"/>
</clipPath>
</defs>
</svg>
