<svg width="33" height="33" viewBox="0 0 33 33" fill="none" xmlns="http://www.w3.org/2000/svg">
<path fill-rule="evenodd" clip-rule="evenodd" d="M33 0H0V33H33V0ZM26.1677 21.1807C29.0755 22.3601 30.0574 23.6243 30.2989 25.13C30.5311 26.4256 30.2424 27.2663 30.1986 27.3918C29.1257 31.062 23.1437 31.1812 20.7534 28.7563C20.6808 28.6743 20.6121 28.5978 20.5468 28.5252C20.1576 28.0923 19.8883 27.7927 19.6305 27.2287C20.274 26.8584 20.5915 26.6758 20.9088 26.4927C21.218 26.3143 21.5269 26.1355 22.1368 25.7825C22.8081 26.8146 23.4292 27.3824 24.5459 27.6145C26.061 27.7996 27.5855 27.2789 27.2436 25.6696C27.0399 24.9076 26.0296 24.4798 24.8515 23.981C23.9976 23.6194 23.0555 23.2205 22.2685 22.6299C20.3676 21.3532 19.9221 18.2508 21.4843 16.4784C22.005 15.8228 22.8928 15.3335 23.8244 15.0982C23.9851 15.0779 24.1466 15.0568 24.3081 15.0358C24.4713 15.0145 24.6345 14.9932 24.7968 14.9727C26.6633 14.9351 27.8302 15.4276 28.6866 16.3843C28.925 16.6258 29.1194 16.8862 29.4833 17.4509C29.2782 17.5816 29.1155 17.6851 28.9739 17.7751C28.4295 18.1215 28.1983 18.2685 27.0679 19.0005C26.7637 18.3449 26.2586 17.9339 25.7254 17.7551C24.8972 17.5042 23.8526 17.7771 23.6362 18.6523C23.5609 18.9221 23.5766 19.173 23.6958 19.6185C23.9675 20.238 24.757 20.5739 25.5837 20.9256C25.7784 21.0084 25.9751 21.0922 26.1677 21.1807ZM14.853 15.1672H17.9396C17.9396 16.1142 17.9414 17.0601 17.9431 18.0054C17.9466 19.8938 17.9501 21.7795 17.9396 23.6651C17.9406 23.9211 17.9446 24.1735 17.9486 24.422C17.9718 25.8569 17.9928 27.1595 17.3938 28.2638C16.9076 29.252 15.9791 29.9013 14.9032 30.215C13.25 30.5945 11.669 30.3781 10.4927 29.6723C9.70537 29.1892 9.09057 28.4458 8.67334 27.5894C9.09164 27.334 9.50917 27.0778 9.92669 26.8217C10.3451 26.565 10.7636 26.3082 11.1828 26.0523C11.2024 26.0607 11.2568 26.1561 11.3305 26.2854C11.3395 26.3013 11.3489 26.3178 11.3585 26.3346C11.6785 26.871 11.9545 27.2506 12.4972 27.5172C13.0305 27.6992 14.2005 27.8152 14.6522 26.8773C14.8725 26.4969 14.8611 25.4298 14.8475 24.1521C14.844 23.8282 14.8405 23.4907 14.8405 23.1475C14.8405 21.8143 14.8436 20.4858 14.8467 19.1573C14.8498 17.8288 14.853 16.5004 14.853 15.1672Z" fill="white" fill-opacity="0.8"/>
</svg>
