<svg width="33" height="33" viewBox="0 0 33 33" fill="none" xmlns="http://www.w3.org/2000/svg">
<g clip-path="url(#clip0_6393_37736)">
<path d="M16.1373 0.780552C14.7832 0.786531 13.4903 0.897859 12.3528 1.09204C9.00132 1.66292 8.39282 2.85734 8.39282 5.06055V7.97016H16.3127V8.93994H5.42034C3.11869 8.93994 1.10297 10.2736 0.47261 12.8105C-0.254632 15.7184 -0.286829 17.533 0.47261 20.5693C1.03562 22.8294 2.38022 24.4398 4.68187 24.4398H7.40504V20.952C7.40504 18.4321 9.66682 16.2096 12.3528 16.2096H20.2635C22.4656 16.2096 24.2235 14.4619 24.2235 12.3302V5.06027C24.2235 2.99145 22.4128 1.43713 20.2635 1.09176C18.9027 0.873657 17.4913 0.774288 16.1373 0.780552ZM11.8542 3.12043C12.6724 3.12043 13.3403 3.77501 13.3403 4.57965C13.3403 5.38144 12.6721 6.03004 11.8542 6.03004C11.0333 6.03004 10.3681 5.38172 10.3681 4.57965C10.3681 3.77501 11.0333 3.12043 11.8542 3.12043Z" fill="#65FEB7"/>
<path d="M25.212 8.93945V12.3294C25.212 14.9577 22.9003 17.1697 20.2643 17.1697H12.3535C10.1866 17.1697 8.39355 18.9572 8.39355 21.0491V28.3185C8.39355 30.3876 10.2598 31.6045 12.3535 32.1978C14.8605 32.9085 17.2646 33.0369 20.2643 32.1978C22.2581 31.6415 24.2242 30.5214 24.2242 28.3185V25.4091H16.3135V24.4394H28.1842C30.4861 24.4394 31.3436 22.8916 32.1441 20.5688C32.9712 18.1777 32.9361 15.8776 32.1441 12.81C31.5752 10.6014 30.4888 8.93945 28.1842 8.93945H25.212ZM20.7626 27.3487C21.5835 27.3487 22.2487 27.997 22.2487 28.7991C22.2487 29.6037 21.5835 30.2583 20.7626 30.2583C19.9444 30.2583 19.2765 29.6037 19.2765 28.7991C19.2765 27.9973 19.9447 27.3487 20.7626 27.3487Z" fill="#65FEB7"/>
</g>
<defs>
<clipPath id="clip0_6393_37736">
<rect width="33" height="33" fill="white"/>
</clipPath>
</defs>
</svg>
