<svg width="33" height="33" viewBox="0 0 33 33" fill="none" xmlns="http://www.w3.org/2000/svg">
<path d="M32 16.0032C32 13.9204 29.4283 11.9465 25.4853 10.7224C26.3953 6.64639 25.9909 3.40354 24.2089 2.3653C23.7981 2.12177 23.318 2.00641 22.7935 2.00641V3.43558C23.0842 3.43558 23.318 3.49326 23.5139 3.6022C24.3732 4.10209 24.7461 6.00551 24.4553 8.45367C24.3859 9.0561 24.2722 9.69057 24.1332 10.3379C22.8946 10.0302 21.5424 9.79312 20.1207 9.6393C19.2677 8.45367 18.383 7.37699 17.492 6.4349C19.552 4.49303 21.4856 3.42916 22.7999 3.42916V2C21.0621 2 18.7874 3.25613 16.4874 5.43512C14.1873 3.26894 11.9126 2.02564 10.175 2.02564V3.4548C11.4829 3.4548 13.4227 4.51226 15.4827 6.4413C14.598 7.38341 13.7134 8.45367 12.873 9.6393C11.4449 9.79312 10.0927 10.0302 8.85428 10.3443C8.70888 9.70339 8.6015 9.08172 8.52562 8.48571C8.22877 6.03755 8.59514 4.13413 9.44828 3.62784C9.63775 3.51248 9.88417 3.46122 10.175 3.46122V2.03204C9.64411 2.03204 9.16385 2.14741 8.74689 2.39094C6.97124 3.42916 6.57322 6.66561 7.48937 10.7288C3.55911 11.9593 1 13.9268 1 16.0032C1 18.0862 3.57174 20.0601 7.51466 21.2841C6.60473 25.3601 7.00911 28.6029 8.79112 29.6412C9.20186 29.8846 9.68198 30 10.2128 30C11.9505 30 14.2253 28.7439 16.5253 26.5649C18.8253 28.7312 21.1001 29.9745 22.8378 29.9745C23.3685 29.9745 23.8487 29.8591 24.2658 29.6155C26.0413 28.5772 26.4395 25.3408 25.5232 21.2778C29.4409 20.0536 32 18.0797 32 16.0032ZM23.773 11.7286C23.5391 12.5554 23.2485 13.4076 22.9199 14.26C22.6609 13.7474 22.3892 13.2346 22.0922 12.7219C21.8015 12.2092 21.4918 11.7093 21.1822 11.2223C22.0794 11.3569 22.9451 11.5235 23.773 11.7286ZM20.8789 18.5539C20.386 19.4192 19.8806 20.2395 19.3561 21.0022C18.4145 21.0854 17.4605 21.1303 16.5 21.1303C15.5458 21.1303 14.5917 21.0854 13.6566 21.0085C13.1321 20.2458 12.6202 19.432 12.1274 18.5731C11.6471 17.7336 11.2112 16.8812 10.813 16.0225C11.2049 15.1637 11.6471 14.3049 12.1211 13.4654C12.614 12.6002 13.1194 11.7798 13.6439 11.0172C14.5855 10.9339 15.5395 10.889 16.5 10.889C17.4542 10.889 18.4083 10.9339 19.3434 11.0108C19.8679 11.7734 20.3798 12.5873 20.8726 13.4462C21.3529 14.2857 21.7888 15.138 22.187 15.9969C21.7888 16.8556 21.3529 17.7144 20.8789 18.5539ZM22.9199 17.7209C23.2516 18.5561 23.5426 19.4073 23.7919 20.2715C22.9641 20.4765 22.0922 20.6496 21.1886 20.7842C21.4981 20.2908 21.8077 19.7845 22.0985 19.2653C22.3892 18.7527 22.6609 18.2335 22.9199 17.7209ZM16.5126 24.5591C15.9249 23.9437 15.3373 23.258 14.756 22.5082C15.3247 22.5338 15.906 22.553 16.4936 22.553C17.0876 22.553 17.6753 22.5403 18.2504 22.5082C17.708 23.2231 17.1279 23.9077 16.5126 24.5591ZM11.8114 20.7842C10.9142 20.6496 10.0485 20.483 9.22079 20.2779C9.45449 19.4512 9.74528 18.5988 10.0738 17.7464C10.3329 18.2591 10.6046 18.7719 10.9015 19.2845C11.1985 19.7972 11.5019 20.2971 11.8114 20.7842ZM16.4811 7.44749C17.0687 8.06273 17.6564 8.74848 18.2376 9.4983C17.6689 9.47267 17.0876 9.45345 16.5 9.45345C15.906 9.45345 15.3184 9.46626 14.7434 9.4983C15.2858 8.78344 15.8658 8.09884 16.4811 7.44749ZM11.8051 11.2223C11.4955 11.7158 11.1859 12.222 10.8953 12.7411C10.6046 13.2538 10.3329 13.7666 10.0738 14.2792C9.74206 13.444 9.45107 12.5928 9.20186 11.7286C10.0296 11.5299 10.9015 11.3569 11.8051 11.2223ZM6.0866 19.2461C3.84978 18.2783 2.40277 17.0095 2.40277 16.0032C2.40277 14.997 3.84978 13.7217 6.0866 12.7604C6.63002 12.5233 7.22402 12.3118 7.83696 12.1131C8.19711 13.3692 8.67102 14.6766 9.25866 16.0161C8.67737 17.3491 8.20969 18.6501 7.85589 19.8999C7.23038 19.7011 6.63638 19.4833 6.0866 19.2461ZM9.48614 28.4043C8.62679 27.9044 8.25391 26.001 8.5447 23.5528C8.61422 22.9504 8.72782 22.3159 8.86685 21.6686C10.1054 21.9762 11.4576 22.2134 12.8793 22.3672C13.7323 23.5528 14.617 24.6294 15.508 25.5715C13.448 27.5135 11.5144 28.5772 10.2001 28.5772C9.91582 28.5709 9.67576 28.5132 9.48614 28.4043ZM24.4744 23.5208C24.7712 25.9689 24.4049 27.8723 23.5517 28.3786C23.3622 28.494 23.1158 28.5453 22.825 28.5453C21.5171 28.5453 19.5773 27.4878 17.5173 25.5588C18.402 24.6167 19.2866 23.5464 20.127 22.3607C21.5551 22.207 22.9073 21.9698 24.1457 21.6558C24.2911 22.3031 24.4049 22.9248 24.4744 23.5208ZM26.907 19.2461C26.3636 19.4833 25.7696 19.6948 25.1567 19.8934C24.7965 18.6373 24.3226 17.3299 23.735 15.9904C24.3164 14.6574 24.784 13.3564 25.1378 12.1067C25.7634 12.3054 26.3573 12.5233 26.9134 12.7604C29.1502 13.728 30.5972 14.997 30.5972 16.0032C30.5909 17.0095 29.1439 18.2848 26.907 19.2461Z" fill="white" fill-opacity="0.8"/>
<path d="M16.4999 20C18.433 20 20 18.433 20 16.4999C20 14.567 18.433 13 16.4999 13C14.567 13 13 14.567 13 16.4999C13 18.433 14.567 20 16.4999 20Z" fill="white" fill-opacity="0.8"/>
</svg>
