<svg width="33" height="33" viewBox="0 0 33 33" fill="none" xmlns="http://www.w3.org/2000/svg">
<g clip-path="url(#clip0_6393_37756)">
<path d="M15.3463 4.50938C15.3463 4.25383 15.4497 4.00874 15.6338 3.82804C15.8178 3.64734 16.0675 3.54582 16.3278 3.54582C16.588 3.54582 16.8377 3.64734 17.0217 3.82804C17.2058 4.00874 17.3092 4.25383 17.3092 4.50938C17.3092 4.76493 17.2058 5.01002 17.0217 5.19072C16.8377 5.37142 16.588 5.47294 16.3278 5.47294C16.0675 5.47294 15.8178 5.37142 15.6338 5.19072C15.4497 5.01002 15.3463 4.76493 15.3463 4.50938ZM3.63807 13.2338C3.63807 12.9782 3.74147 12.7331 3.92551 12.5524C4.10956 12.3717 4.35919 12.2702 4.61947 12.2702C4.87976 12.2702 5.12938 12.3717 5.31343 12.5524C5.49748 12.7331 5.60088 12.9782 5.60088 13.2338C5.60088 13.4893 5.49748 13.7344 5.31343 13.9151C5.12938 14.0958 4.87976 14.1973 4.61947 14.1973C4.35919 14.1973 4.10956 14.0958 3.92551 13.9151C3.74147 13.7344 3.63807 13.4893 3.63807 13.2338ZM27.0477 13.2787C27.0477 13.0231 27.1511 12.778 27.3351 12.5973C27.5192 12.4166 27.7688 12.3151 28.0291 12.3151C28.2894 12.3151 28.539 12.4166 28.7231 12.5973C28.9071 12.778 29.0105 13.0231 29.0105 13.2787C29.0105 13.5342 28.9071 13.7793 28.7231 13.96C28.539 14.1407 28.2894 14.2422 28.0291 14.2422C27.7688 14.2422 27.5192 14.1407 27.3351 13.96C27.1511 13.7793 27.0477 13.5342 27.0477 13.2787ZM6.47908 14.606C6.93065 14.402 7.13497 13.8893 6.93412 13.4453L6.49986 12.4708H8.21264V20.0494H4.75799C4.33148 18.5787 4.19861 17.0409 4.36668 15.5206L6.47908 14.606ZM13.6426 14.7923V12.5524H17.7199C17.9304 12.5524 19.2069 12.7918 19.2069 13.7288C19.2069 14.5067 18.2275 14.7862 17.4227 14.7862L13.6426 14.7923ZM8.07413 26.8195C8.07413 26.693 8.09951 26.5677 8.14883 26.4508C8.19815 26.3339 8.27044 26.2276 8.36157 26.1382C8.4527 26.0487 8.56089 25.9777 8.67996 25.9293C8.79903 25.8809 8.92665 25.8559 9.05553 25.8559C9.18441 25.8559 9.31203 25.8809 9.43109 25.9293C9.55016 25.9777 9.65835 26.0487 9.74949 26.1382C9.84062 26.2276 9.91291 26.3339 9.96223 26.4508C10.0115 26.5677 10.0369 26.693 10.0369 26.8195C10.0369 27.0751 9.93354 27.3201 9.74949 27.5008C9.56544 27.6815 9.31581 27.7831 9.05553 27.7831C8.79524 27.7831 8.54562 27.6815 8.36157 27.5008C8.17752 27.3201 8.07413 27.0751 8.07413 26.8195ZM22.6158 26.8644C22.6158 26.6088 22.7192 26.3637 22.9032 26.183C23.0873 26.0023 23.3369 25.9008 23.5972 25.9008C23.8575 25.9008 24.1071 26.0023 24.2912 26.183C24.4752 26.3637 24.5786 26.6088 24.5786 26.8644C24.5786 27.1199 24.4752 27.365 24.2912 27.5457C24.1071 27.7264 23.8575 27.8279 23.5972 27.8279C23.3369 27.8279 23.0873 27.7264 22.9032 27.5457C22.7192 27.365 22.6158 27.1199 22.6158 26.8644ZM22.9192 24.6795C22.8042 24.6552 22.6854 24.6534 22.5697 24.6742C22.454 24.695 22.3437 24.7381 22.245 24.8009C22.1463 24.8637 22.0611 24.945 21.9945 25.0402C21.9279 25.1353 21.8811 25.2425 21.8567 25.3555L21.3719 27.6131C19.7878 28.3176 18.0674 28.678 16.3283 28.6698C14.5893 28.6616 12.8725 28.2849 11.2954 27.5655L10.8106 25.3079C10.7861 25.1949 10.7392 25.0879 10.6726 24.9928C10.6059 24.8977 10.5208 24.8164 10.4221 24.7537C10.3234 24.691 10.2131 24.648 10.0974 24.6272C9.98175 24.6064 9.86305 24.6083 9.74812 24.6326L7.71882 25.061C7.34175 24.6797 6.9912 24.274 6.66955 23.8465H16.5445C16.6553 23.8465 16.7315 23.8261 16.7315 23.7269V20.2976C16.7315 20.1977 16.6567 20.1779 16.5445 20.1779H13.6564V18.004H16.7731C17.0584 18.004 18.2968 18.0842 18.6936 19.6394L19.2768 22.1724C19.4624 22.7313 20.2187 23.8472 21.0242 23.8472H26.1231C25.7811 24.2965 25.4071 24.7215 25.0039 25.1188L22.9192 24.6795ZM28.4024 15.624C28.4718 16.3085 28.4803 16.9977 28.428 17.6837H27.1814C27.0567 17.6837 27.0082 17.7639 27.0082 17.8829V18.4419C27.0082 19.7577 26.2464 20.044 25.5905 20.1167C24.9672 20.1868 24.2607 19.8583 24.1748 19.4789C23.8029 17.4253 23.183 16.986 22.2044 16.2285C23.4192 15.471 24.6839 14.3537 24.6839 12.8584C24.6839 11.2434 23.5563 10.2268 22.7876 9.7277C21.7092 9.03002 20.5159 8.88994 20.1931 8.88994H7.37807C9.15052 6.94516 11.5267 5.62847 14.1385 5.14382L15.6497 6.70782C15.7308 6.79134 15.8278 6.85835 15.9353 6.905C16.0427 6.95165 16.1585 6.97703 16.276 6.97969C16.3935 6.98234 16.5103 6.96221 16.6199 6.92046C16.7294 6.87871 16.8295 6.81616 16.9144 6.73638L18.6057 5.14858C20.3295 5.46551 21.9623 6.14706 23.3908 7.14589C24.8194 8.14472 26.0093 9.43689 26.878 10.9327L25.7214 13.4997C25.5136 13.9437 25.7255 14.4639 26.1764 14.6604L28.4024 15.624ZM31.2905 15.6648L31.251 15.2677L32.4437 14.1756C32.4982 14.1188 32.538 14.0501 32.56 13.9751C32.5819 13.9002 32.5853 13.8212 32.5699 13.7446C32.5544 13.6681 32.5206 13.5964 32.4712 13.5353C32.4217 13.4742 32.3582 13.4256 32.2858 13.3936L30.7621 12.8339L30.643 12.4477L31.5939 11.1509C31.6361 11.0848 31.6616 11.0096 31.6682 10.9318C31.6749 10.854 31.6624 10.7758 31.632 10.7036C31.6016 10.6315 31.554 10.5676 31.4933 10.5171C31.4326 10.4667 31.3604 10.4313 31.2829 10.4138L29.6761 10.1568L29.4822 9.80318L30.1574 8.34798C30.296 8.0515 30.0397 7.67274 29.7073 7.68498L28.0762 7.74074L27.8186 7.43474L28.1926 5.87482C28.2058 5.79785 28.2001 5.71888 28.1759 5.64451C28.1518 5.57014 28.1099 5.50252 28.0537 5.44729C27.9975 5.39206 27.9287 5.35082 27.8529 5.32701C27.7772 5.3032 27.6968 5.29751 27.6184 5.31042L26.0296 5.67762L25.7165 5.42466L25.774 3.82326C25.7717 3.74525 25.7504 3.66892 25.7119 3.60063C25.6734 3.53234 25.6188 3.47408 25.5528 3.4307C25.4867 3.38731 25.411 3.36007 25.332 3.35123C25.2531 3.34239 25.1731 3.35222 25.0987 3.3799L23.6166 4.04358L23.2564 3.85318L22.9946 2.27558C22.9768 2.19958 22.9407 2.12886 22.8894 2.06932C22.8381 2.00977 22.7731 1.96313 22.6997 1.93326C22.6263 1.90339 22.5467 1.89116 22.4676 1.8976C22.3884 1.90403 22.3119 1.92895 22.2446 1.97026L20.9286 2.89642L20.5359 2.77946L19.9659 1.28346C19.9333 1.21231 19.8839 1.14985 19.8217 1.10126C19.7596 1.05268 19.6865 1.01938 19.6086 1.00415C19.5306 0.98891 19.4501 0.992178 19.3737 1.01368C19.2974 1.03517 19.2273 1.07428 19.1695 1.12774L18.0495 2.29802L17.6451 2.25926L16.7862 0.896539C16.7401 0.833093 16.6792 0.781379 16.6086 0.7457C16.538 0.71002 16.4598 0.691406 16.3804 0.691406C16.301 0.691406 16.2227 0.71002 16.1521 0.7457C16.0816 0.781379 16.0207 0.833093 15.9745 0.896539L15.1157 2.25926L14.7112 2.29802L13.5989 1.12638C13.5411 1.07292 13.471 1.03381 13.3946 1.01232C13.3183 0.990818 13.2378 0.98755 13.1598 1.00279C13.0819 1.01802 13.0088 1.05132 12.9467 1.0999C12.8845 1.14849 12.8351 1.21095 12.8025 1.2821L12.2325 2.7781L11.8391 2.89506L10.5231 1.96346C10.4557 1.922 10.3792 1.89697 10.3 1.89046C10.2207 1.88395 10.141 1.89614 10.0675 1.92602C9.99407 1.9559 9.92894 2.00261 9.87759 2.06223C9.82624 2.12186 9.79016 2.19268 9.77236 2.26878L9.51056 3.84638L9.15041 4.03678L7.66827 3.3731C7.59394 3.34542 7.51396 3.3356 7.43498 3.34443C7.356 3.35327 7.28032 3.38051 7.21424 3.4239C7.14816 3.46728 7.09361 3.52554 7.05512 3.59383C7.01663 3.66212 6.99533 3.73845 6.99299 3.81646L7.04978 5.41786L6.73673 5.67082L5.14792 5.30362C5.06946 5.29059 4.98895 5.29618 4.91314 5.31994C4.83733 5.34369 4.76841 5.38491 4.71214 5.44016C4.65587 5.49541 4.61388 5.56308 4.58969 5.63751C4.56549 5.71194 4.5598 5.79098 4.57307 5.86802L4.94707 7.42794L4.69081 7.73394L3.05975 7.67818C2.73077 7.66866 2.47105 8.04538 2.60818 8.34118L3.28415 9.79638L3.09023 10.15L1.48341 10.407C1.15789 10.4594 0.979897 10.8803 1.17175 11.1441L2.12268 12.4409L2.00355 12.8271L0.479845 13.3868C0.407436 13.4188 0.343879 13.4674 0.294466 13.5285C0.245053 13.5896 0.211213 13.6613 0.195765 13.7378C0.180317 13.8144 0.183706 13.8934 0.205652 13.9683C0.227598 14.0433 0.267465 14.112 0.321934 14.1688L1.51458 15.2609L1.4751 15.658L0.0878374 16.5012C0.0232168 16.5465 -0.0294545 16.6063 -0.0657947 16.6756C-0.102135 16.7449 -0.121094 16.8217 -0.121094 16.8997C-0.121094 16.9776 -0.102135 17.0544 -0.0657947 17.1237C-0.0294545 17.1931 0.0232168 17.2528 0.0878374 17.2981L1.4751 18.1413L1.51458 18.5385L0.321934 19.6305C0.267465 19.6873 0.227598 19.756 0.205652 19.831C0.183706 19.9059 0.180317 19.985 0.195765 20.0615C0.211213 20.138 0.245053 20.2097 0.294466 20.2708C0.343879 20.3319 0.407436 20.3805 0.479845 20.4125L2.00355 20.9722L2.12268 21.3584L1.17175 22.6552C1.12967 22.7213 1.10429 22.7964 1.09774 22.8741C1.09118 22.9518 1.10364 23.03 1.13406 23.102C1.16448 23.1741 1.21199 23.2379 1.27264 23.2883C1.33329 23.3387 1.40531 23.3741 1.48272 23.3916L3.08953 23.6487L3.28346 24.0036L2.60749 25.4588C2.5793 25.5318 2.56929 25.6103 2.57829 25.6879C2.58729 25.7654 2.61504 25.8397 2.65923 25.9046C2.70342 25.9695 2.76276 26.023 2.83231 26.0608C2.90186 26.0986 2.97961 26.1195 3.05906 26.1218L4.68942 26.0654L4.94707 26.3727L4.57307 27.9333C4.56005 28.0103 4.56593 28.0891 4.59024 28.1634C4.61454 28.2377 4.65657 28.3051 4.7128 28.3602C4.76904 28.4153 4.83787 28.4564 4.91355 28.4801C4.98924 28.5038 5.06959 28.5093 5.14792 28.4964L6.73673 28.1292L7.04978 28.3808L6.99299 29.9829C6.99544 30.0608 7.01682 30.1371 7.05535 30.2053C7.09388 30.2735 7.14845 30.3316 7.21451 30.3749C7.28057 30.4182 7.35622 30.4454 7.43514 30.4542C7.51407 30.463 7.59399 30.4532 7.66827 30.4255L9.15041 29.7625L9.51056 29.9529L9.77236 31.5305C9.79007 31.6067 9.82609 31.6776 9.8774 31.7373C9.92872 31.797 9.99384 31.8438 10.0673 31.8737C10.1408 31.9037 10.2205 31.9159 10.2998 31.9095C10.3791 31.903 10.4557 31.878 10.5231 31.8365L11.8439 30.9022L12.2373 31.0199L12.8073 32.5159C12.84 32.587 12.8895 32.6493 12.9517 32.6979C13.0139 32.7464 13.087 32.7796 13.1649 32.7948C13.2428 32.8099 13.3233 32.8066 13.3996 32.7851C13.476 32.7635 13.546 32.7244 13.6038 32.6709L14.7161 31.4999L15.1206 31.5394L15.9794 32.9014C16.1525 33.1761 16.6166 33.1768 16.7911 32.9014L17.6506 31.538L18.0551 31.4986L19.1674 32.6695C19.2252 32.723 19.2952 32.7622 19.3715 32.7837C19.4479 32.8052 19.5284 32.8086 19.6063 32.7934C19.6842 32.7782 19.7573 32.745 19.8195 32.6965C19.8817 32.648 19.9312 32.5856 19.9639 32.5145L20.5339 31.0185L20.9273 30.9009L22.248 31.8352C22.3155 31.8765 22.392 31.9014 22.4712 31.9078C22.5504 31.9142 22.63 31.9019 22.7034 31.8719C22.7768 31.842 22.8418 31.7953 22.8931 31.7357C22.9443 31.676 22.9804 31.6052 22.9981 31.5292L23.2599 29.9516L23.6201 29.7612L25.1022 30.4242C25.1765 30.4518 25.2564 30.4617 25.3353 30.4529C25.4143 30.4441 25.4899 30.4169 25.556 30.3736C25.622 30.3303 25.6766 30.2721 25.7151 30.2039C25.7537 30.1357 25.775 30.0594 25.7775 29.9815L25.7207 28.3794L26.0337 28.1278L27.6226 28.495C27.7008 28.5079 27.7811 28.5022 27.8567 28.4784C27.9323 28.4547 28.001 28.4136 28.0572 28.3585C28.1133 28.3035 28.1553 28.236 28.1796 28.1618C28.2038 28.0877 28.2097 28.0088 28.1967 27.932L27.8227 26.3714L28.079 26.064L29.71 26.1205C29.7894 26.1181 29.8671 26.0971 29.9365 26.0592C30.006 26.0214 30.0653 25.9678 30.1094 25.903C30.1535 25.8381 30.1812 25.7638 30.1901 25.6863C30.1991 25.6088 30.1891 25.5304 30.1609 25.4575L29.4856 24.0023L29.6796 23.6473L31.2864 23.3903C31.3638 23.3727 31.4358 23.3373 31.4965 23.287C31.5571 23.2366 31.6046 23.1727 31.635 23.1007C31.6655 23.0286 31.6779 22.9505 31.6713 22.8728C31.6648 22.795 31.6394 22.72 31.5973 22.6538L30.6464 21.3571L30.7655 20.9708L32.2892 20.4112C32.3617 20.3791 32.4252 20.3305 32.4746 20.2694C32.524 20.2084 32.5579 20.1366 32.5733 20.0601C32.5888 19.9836 32.5854 19.9046 32.5634 19.8296C32.5415 19.7547 32.5016 19.6859 32.4472 19.6292L31.2545 18.5371L31.294 18.14L32.6812 17.2968C32.7459 17.2515 32.7985 17.1917 32.8349 17.1224C32.8712 17.0531 32.8902 16.9763 32.8902 16.8983C32.8902 16.8203 32.8712 16.7435 32.8349 16.6742C32.7985 16.6049 32.7459 16.5451 32.6812 16.4998L31.2905 15.6648Z" fill="white" fill-opacity="0.8"/>
</g>
<defs>
<clipPath id="clip0_6393_37756">
<rect width="33" height="33" fill="white"/>
</clipPath>
</defs>
</svg>
