<svg width="33" height="33" viewBox="0 0 33 33" fill="none" xmlns="http://www.w3.org/2000/svg">
<path fill-rule="evenodd" clip-rule="evenodd" d="M33 0H0V33H33V0ZM17.4282 12.2216H15.8452C14.9687 12.2216 12.9577 12.2164 11.3696 12.2061C9.78144 12.1958 7.87361 12.1958 7.13111 12.2061L5.775 12.2216V14.9544H10.0547V27.1077L10.4054 27.1386C10.8436 27.185 12.8804 27.185 13.0351 27.1438L13.1485 27.1129V14.9544H17.4282V12.2216ZM25.4978 27.1644C26.6219 26.8602 27.2974 26.4889 27.9264 25.8238C28.6999 25.0091 29.0557 23.8593 28.9319 22.6011C28.7618 20.9305 28.1069 19.9611 26.4981 19.0175C26.1527 18.8113 24.8275 18.1513 24.7656 18.1513C24.7244 18.1513 24.1778 17.8935 23.5384 17.5789C22.5484 17.0891 22.2803 16.7591 22.2751 16.0579C22.2751 15.5783 22.4401 15.2329 22.7805 15.006C23.1053 14.7894 23.3631 14.7327 23.8478 14.7636C24.5284 14.8049 24.812 14.9854 25.5133 15.8258C25.6267 15.9599 25.6835 15.9908 25.766 15.965C25.9 15.9238 27.9574 14.5522 28.0089 14.4749C28.0863 14.346 27.2974 13.3766 26.7766 12.9641C26.0856 12.4124 25.3689 12.1546 24.317 12.0669C23.9509 12.0411 23.5591 12.0205 23.4405 12.0205C22.3937 12.0566 21.3006 12.4382 20.5993 13.0157C20.3673 13.2064 20.2487 13.325 19.9187 13.7118C19.7589 13.8922 19.4082 14.6089 19.3 14.9802C19.2226 15.2277 19.2071 15.4649 19.2123 16.1919C19.2175 17.2283 19.2639 17.4552 19.6248 18.1513C19.9032 18.6927 19.9909 18.8113 20.4343 19.2444C21.0325 19.8271 21.7698 20.2602 23.4095 20.9872C24.9977 21.6885 25.3895 21.936 25.6783 22.4104C25.7814 22.5805 25.802 22.6836 25.802 23.0549C25.8072 23.4571 25.7917 23.5138 25.6577 23.7252C25.4617 24.0243 25.2967 24.1738 24.9719 24.3233C24.6677 24.4625 24.1005 24.5966 23.7911 24.5966C23.4559 24.5966 22.7598 24.4471 22.4453 24.313C21.9348 24.0861 21.2129 23.421 20.9036 22.9002C20.852 22.8125 20.785 22.7404 20.7489 22.7404C20.7128 22.7404 20.3931 22.9105 20.0425 23.1219C19.6918 23.3333 19.2896 23.5705 19.1504 23.6427C19.0287 23.7058 18.8558 23.8083 18.7384 23.8779C18.7215 23.8879 18.7058 23.8972 18.6915 23.9057C18.66 23.9243 18.6264 23.9445 18.593 23.9647C18.5062 24.0171 18.4202 24.069 18.3718 24.0913C18.3048 24.1222 18.2532 24.1686 18.2532 24.1893C18.2532 24.2614 18.609 24.8389 18.8256 25.1174C19.5887 26.1022 20.7076 26.7983 22.0947 27.1541C22.6293 27.2929 22.7181 27.2933 23.8122 27.2984L23.822 27.2985C24.9255 27.3036 25.008 27.2985 25.4978 27.1644Z" fill="white"/>
</svg>
