<svg width="176" height="38" viewBox="0 0 176 38" fill="none"
  xmlns="http://www.w3.org/2000/svg">
  <g clip-path="url(#clip0_5143_12636)">
    <path d="M167.516 21.7097C167.516 19.4935 166.21 17.8171 164.139 17.8171C162.068 17.8171 160.763 19.4935 160.763 21.7097C160.763 23.9259 162.068 25.6022 164.139 25.6022C166.21 25.6022 167.516 23.9259 167.516 21.7097ZM167.402 16.3397V10.5151C167.402 10.1173 167.657 9.8048 168.026 9.69115L171.091 8.86719V28.5287H167.686V26.8523C166.835 28.1025 165.274 28.8412 163.345 28.8412C159.372 28.8412 157.074 25.659 157.074 21.6813C157.074 17.7035 159.401 14.5213 163.345 14.5213C165.302 14.5497 166.693 15.3737 167.402 16.3397ZM146.405 14.8622V16.5386C147.029 15.3737 148.448 14.5497 150.463 14.5497C153.754 14.5497 155.485 16.7375 155.485 20.0049V28.5571H151.796V20.4311C151.796 18.84 151.115 17.7319 149.47 17.7319C147.682 17.7319 146.689 18.8684 146.689 20.7152V28.5571H143V14.8907H146.405V14.8622ZM134.346 28.8696C130.345 28.8696 128.132 27.1365 128.132 22.7041V14.8622H131.821V22.7609C131.821 24.6646 132.672 25.5454 134.318 25.5454C135.963 25.5454 136.815 24.6646 136.815 22.7609V14.8622H140.503V22.7041C140.532 27.1365 138.318 28.8696 134.346 28.8696ZM115.903 21.7097C115.903 24.1532 117.407 25.6022 119.365 25.6022C121.322 25.6022 122.826 24.1532 122.826 21.7097C122.826 19.2662 121.322 17.8171 119.365 17.8171C117.435 17.8171 115.903 19.2378 115.903 21.7097ZM119.365 28.8696C114.995 28.8696 112.186 25.6022 112.186 21.7097C112.186 17.8172 114.966 14.5497 119.365 14.5497C123.734 14.5497 126.543 17.8172 126.543 21.7097C126.543 25.6022 123.763 28.8696 119.365 28.8696ZM100.921 21.7097C100.921 23.9259 102.226 25.6022 104.298 25.6022C106.369 25.6022 107.674 23.9259 107.674 21.7097C107.674 19.4935 106.369 17.8171 104.298 17.8171C102.226 17.8171 100.921 19.4935 100.921 21.7097ZM101.035 27.0797V32.7622C101.035 33.1599 100.779 33.4725 100.411 33.5861L97.3461 34.3817V14.8622H100.751V16.5386C101.602 15.2884 103.163 14.5497 105.092 14.5497C109.065 14.5497 111.363 17.7319 111.363 21.7097C111.363 25.6874 109.036 28.8696 105.092 28.8696C103.134 28.8696 101.744 28.0173 101.035 27.0797ZM86.3369 20.7721V28.5571H82.6483V20.4311C82.6483 18.9252 82.1091 17.7319 80.4634 17.7319C78.7326 17.7319 77.7963 18.84 77.7963 20.6868V28.5571H74.1076V14.8622H77.5125V16.5386C78.1367 15.3737 79.4987 14.5497 81.4565 14.5497C83.3009 14.5497 84.6345 15.2884 85.4289 16.4818C86.6206 15.1464 88.011 14.5497 89.9688 14.5497C93.2602 14.5497 94.9343 16.8227 94.9343 20.0049V28.5571H91.2456V20.4311C91.2456 18.9252 90.7065 17.7319 89.0608 17.7319C87.2449 17.7319 86.3369 18.8684 86.3369 20.7721ZM61.7364 21.7097C61.7364 24.1532 63.2403 25.6022 65.1981 25.6022C67.1559 25.6022 68.6598 24.1532 68.6598 21.7097C68.6598 19.2662 67.1559 17.8171 65.1981 17.8171C63.2403 17.8171 61.7364 19.2378 61.7364 21.7097ZM65.1981 28.8696C60.8285 28.8696 58.0194 25.6022 58.0194 21.7097C58.0194 17.8172 60.8001 14.5497 65.1981 14.5497C69.5961 14.5497 72.3768 17.8172 72.3768 21.7097C72.3768 25.6022 69.5677 28.8696 65.1981 28.8696ZM38.8101 19.2378C38.8101 13.4416 42.8108 9.60592 48.1168 9.60592C52.7418 9.60592 56.3737 12.3335 57.0831 16.8511H53.0256C52.4864 14.5213 50.6137 13.2143 48.1168 13.2143C44.7403 13.2143 42.8108 15.5726 42.8108 19.2094C42.8108 22.8746 44.7119 25.2044 48.1168 25.2044C50.5854 25.2044 52.4581 23.8974 53.0256 21.5676H57.0831C56.3737 26.0852 52.7418 28.8128 48.1168 28.8128C42.8108 28.8981 38.8101 25.0339 38.8101 19.2378Z" fill="#65FEB7"/>
    <path opacity="0.4" d="M2.37742 29.6931C1.44107 29.1249 0.845215 28.0736 0.845215 26.9939V20.8284C0.845215 20.6011 0.901963 20.3738 1.01546 20.1749C1.38433 19.5498 2.20718 19.3225 2.83141 19.6919L16.7348 27.8179C17.5576 28.3009 18.04 29.1533 18.04 30.1193V36.5121C18.04 36.7963 17.9549 37.0804 17.813 37.3361C17.359 38.0748 16.3659 38.3306 15.6282 37.8759L2.37742 29.6931ZM23.119 17.9871C23.9418 18.4702 24.4242 19.3225 24.4242 20.2886V33.2731C24.4242 33.6709 24.2256 34.0118 23.8851 34.2107L20.8491 35.9155C20.8207 35.9439 20.7639 35.9439 20.7356 35.9723V28.7839C20.7356 27.8463 20.2532 26.9939 19.4587 26.5109L7.25779 19.2089V10.9977C7.25779 10.7704 7.31454 10.5431 7.42804 10.3442C7.7969 9.71909 8.61975 9.49179 9.24399 9.86115L23.119 17.9871ZM29.1911 8.38369C30.0139 8.86671 30.4963 9.71908 30.4963 10.6851V29.6363C30.4963 30.0341 30.2693 30.375 29.9288 30.5739L27.0346 32.1366V18.9532C27.0346 18.0156 26.5523 17.1632 25.7578 16.6802L13.2731 9.17925V1.47944C13.2731 1.25214 13.3299 1.02484 13.4434 0.825953C13.8122 0.200877 14.6351 -0.0264273 15.2593 0.342936L29.1911 8.38369Z" fill="#65FEB7"/>
  </g>
  <defs>
    <clipPath id="clip0_5143_12636">
      <rect width="185" height="38" fill="white" transform="translate(-5)"/>
    </clipPath>
  </defs>
</svg>
