<svg width="152" height="20" viewBox="0 0 152 20" fill="none"
  xmlns="http://www.w3.org/2000/svg">
  <g clip-path="url(#clip0_5143_12658)">
    <path fill-rule="evenodd" clip-rule="evenodd" d="M0.0410156 19.499H22.187L11.1148 0.102539L0.0410156 19.499Z" fill="#65FEB7"/>
    <path fill-rule="evenodd" clip-rule="evenodd" d="M14.5954 0.173033L25.6434 19.5067L23.2396 19.5189L12.1917 0.157715L14.5954 0.173033Z" fill="#65FEB7"/>
    <path fill-rule="evenodd" clip-rule="evenodd" d="M17.9836 0.173033L29.0316 19.5067L26.6278 19.5189L15.5798 0.157715L17.9836 0.173033Z" fill="#65FEB7"/>
    <path fill-rule="evenodd" clip-rule="evenodd" d="M21.2886 0.173033L32.3366 19.5067L29.9328 19.5189L18.8833 0.157715L21.2886 0.173033Z" fill="#65FEB7"/>
    <path fill-rule="evenodd" clip-rule="evenodd" d="M3.47021 15.2878H3.83828V18.1049H3.47021V15.2878ZM4.36235 17.1996L4.71073 17.1689C4.72587 17.3098 4.76526 17.4247 4.82584 17.5151C4.88491 17.6055 4.97882 17.679 5.10454 17.7342C5.23177 17.7909 5.37415 17.8184 5.53319 17.8184C5.67254 17.8184 5.79675 17.797 5.90429 17.7556C6.01183 17.7127 6.09211 17.6545 6.14512 17.581C6.19813 17.5075 6.22388 17.4278 6.22388 17.3405C6.22388 17.2516 6.19965 17.175 6.14815 17.1076C6.09665 17.0418 6.01334 16.9866 5.89823 16.9422C5.82249 16.9131 5.6574 16.8671 5.40142 16.8043C5.14544 16.7431 4.96671 16.6848 4.86371 16.6297C4.73042 16.5592 4.63197 16.4704 4.56683 16.3662C4.5017 16.2621 4.46838 16.1456 4.46838 16.0154C4.46838 15.8745 4.50928 15.7412 4.58804 15.6171C4.66832 15.4946 4.78495 15.3996 4.93793 15.3353C5.09091 15.2725 5.26207 15.2403 5.44837 15.2403C5.65588 15.2403 5.83764 15.274 5.99517 15.3414C6.15269 15.4073 6.27387 15.5068 6.35869 15.6371C6.44351 15.7673 6.48895 15.9159 6.49652 16.0813L6.14209 16.1089C6.12391 15.9312 6.05878 15.7948 5.94973 15.7045C5.83916 15.6141 5.6786 15.5681 5.46503 15.5681C5.24086 15.5681 5.07879 15.6095 4.97731 15.6922C4.87431 15.7749 4.82433 15.8745 4.82433 15.9909C4.82433 16.092 4.86068 16.1763 4.93187 16.2406C5.00306 16.3065 5.18785 16.3739 5.48775 16.4413C5.78766 16.5102 5.99214 16.57 6.10422 16.6205C6.26629 16.6971 6.38595 16.7936 6.4632 16.9085C6.54045 17.0249 6.57831 17.1582 6.57831 17.3098C6.57831 17.46 6.53742 17.6009 6.4526 17.7326C6.36626 17.8659 6.24509 17.9685 6.08605 18.0421C5.92701 18.1156 5.74828 18.1524 5.54985 18.1524C5.29842 18.1524 5.08637 18.1156 4.91672 18.0405C4.74557 17.967 4.61227 17.8552 4.51534 17.7051C4.4184 17.5565 4.3669 17.388 4.36235 17.1996ZM6.97061 16.7323C6.97061 16.2651 7.09482 15.899 7.34322 15.6355C7.59163 15.3705 7.91122 15.2388 8.30504 15.2388C8.56102 15.2388 8.79276 15.3 9.00027 15.4241C9.20626 15.5497 9.36379 15.7228 9.47133 15.945C9.58039 16.1655 9.6334 16.4183 9.6334 16.7002C9.6334 16.9851 9.57736 17.2409 9.46376 17.4661C9.34864 17.6928 9.18809 17.8629 8.97906 17.9793C8.77004 18.0942 8.54435 18.1524 8.30201 18.1524C8.03997 18.1524 7.8052 18.0896 7.5992 17.9609C7.39321 17.8322 7.2372 17.6576 7.12965 17.4355C7.02363 17.2149 6.97061 16.9805 6.97061 16.7323ZM7.3508 16.7385C7.3508 17.0785 7.44016 17.3451 7.62041 17.5412C7.80217 17.7357 8.02785 17.8337 8.30049 17.8337C8.57768 17.8337 8.80639 17.7357 8.98512 17.5381C9.16385 17.3405 9.25473 17.0602 9.25473 16.6971C9.25473 16.4689 9.21535 16.2697 9.13962 16.0981C9.06237 15.9266 8.95028 15.7948 8.80336 15.6999C8.65492 15.6064 8.48983 15.5589 8.30655 15.5589C8.04451 15.5589 7.82034 15.6493 7.63252 15.8316C7.4447 16.0124 7.3508 16.3141 7.3508 16.7385ZM11.1026 17.4538L11.4313 17.4232C11.4586 17.5779 11.5131 17.6928 11.5904 17.7633C11.6691 17.8337 11.7691 17.869 11.8933 17.869C11.9978 17.869 12.0902 17.8445 12.169 17.7954C12.2477 17.7464 12.3128 17.6821 12.3643 17.6009C12.4143 17.5182 12.4567 17.4094 12.4916 17.2716C12.5249 17.1322 12.5431 16.9912 12.5431 16.8488C12.5431 16.8334 12.5416 16.8089 12.54 16.7798C12.4719 16.8886 12.378 16.979 12.2598 17.0464C12.1417 17.1153 12.0129 17.149 11.8766 17.149C11.6449 17.149 11.4495 17.0647 11.2904 16.8962C11.1314 16.7262 11.0511 16.5041 11.0511 16.2284C11.0511 15.9419 11.1344 15.7121 11.3011 15.5375C11.4677 15.3629 11.6767 15.2755 11.9266 15.2755C12.1084 15.2755 12.2735 15.3261 12.4234 15.4241C12.5734 15.5222 12.6885 15.6631 12.7657 15.8454C12.843 16.0277 12.8824 16.2927 12.8824 16.6389C12.8824 16.9989 12.8445 17.2853 12.7672 17.4983C12.6885 17.7112 12.5749 17.8736 12.4219 17.9854C12.2689 18.0972 12.0902 18.1524 11.8857 18.1524C11.6676 18.1524 11.4889 18.0911 11.351 17.9685C11.2132 17.8475 11.1299 17.6744 11.1026 17.4538ZM12.5022 16.21C12.5022 16.0124 12.4507 15.8546 12.3462 15.7382C12.2417 15.6217 12.1159 15.562 11.969 15.562C11.8176 15.562 11.6843 15.6263 11.5722 15.7504C11.4586 15.8776 11.4025 16.0399 11.4025 16.2391C11.4025 16.4183 11.4571 16.5638 11.5631 16.6757C11.6706 16.789 11.8024 16.8442 11.9584 16.8442C12.1175 16.8442 12.2477 16.789 12.3492 16.6757C12.4522 16.5638 12.5022 16.4091 12.5022 16.21ZM13.2156 16.7155C13.2156 16.3831 13.2489 16.115 13.3171 15.9113C13.3837 15.7075 13.4852 15.5513 13.6185 15.441C13.7533 15.3307 13.9199 15.2755 14.1229 15.2755C14.2728 15.2755 14.4031 15.3062 14.5167 15.3674C14.6288 15.4287 14.7227 15.516 14.7954 15.6309C14.8696 15.7458 14.9272 15.8852 14.9681 16.0507C15.0105 16.2146 15.0317 16.4367 15.0317 16.7155C15.0317 17.0464 14.9984 17.3129 14.9302 17.5151C14.8636 17.7189 14.7636 17.8751 14.6288 17.9869C14.4955 18.0972 14.3274 18.1524 14.1229 18.1524C13.8548 18.1524 13.6442 18.0559 13.4913 17.8598C13.3065 17.6269 13.2156 17.244 13.2156 16.7155ZM13.567 16.7155C13.567 17.1781 13.62 17.486 13.7275 17.6392C13.8351 17.7924 13.9654 17.869 14.1229 17.869C14.2804 17.869 14.4122 17.7909 14.5197 17.6377C14.6257 17.4845 14.6803 17.1766 14.6803 16.7155C14.6803 16.2513 14.6257 15.9434 14.5197 15.7918C14.4122 15.6386 14.2789 15.562 14.1198 15.562C13.9623 15.562 13.8366 15.6309 13.7427 15.7642C13.6261 15.9358 13.567 16.2529 13.567 16.7155ZM15.3785 16.7155C15.3785 16.3831 15.4119 16.115 15.48 15.9113C15.5482 15.7075 15.6497 15.5513 15.783 15.441C15.9162 15.3307 16.0844 15.2755 16.2873 15.2755C16.4358 15.2755 16.5676 15.3062 16.6796 15.3674C16.7932 15.4287 16.8856 15.516 16.9599 15.6309C17.0326 15.7458 17.0901 15.8852 17.1325 16.0507C17.1749 16.2146 17.1946 16.4367 17.1946 16.7155C17.1946 17.0464 17.1613 17.3129 17.0947 17.5151C17.0265 17.7189 16.9265 17.8751 16.7932 17.9869C16.6599 18.0972 16.4903 18.1524 16.2873 18.1524C16.0177 18.1524 15.8072 18.0559 15.6542 17.8598C15.4709 17.6269 15.3785 17.244 15.3785 16.7155ZM15.7299 16.7155C15.7299 17.1781 15.7845 17.486 15.8905 17.6392C15.998 17.7924 16.1298 17.869 16.2873 17.869C16.4449 17.869 16.5766 17.7909 16.6827 17.6377C16.7902 17.4845 16.8432 17.1766 16.8432 16.7155C16.8432 16.2513 16.7902 15.9434 16.6827 15.7918C16.5766 15.6386 16.4433 15.562 16.2828 15.562C16.1253 15.562 16.0011 15.6309 15.9072 15.7642C15.789 15.9358 15.7299 16.2529 15.7299 16.7155ZM18.8305 18.1049H18.4882V15.9005C18.4064 15.9802 18.2988 16.0598 18.1655 16.1395C18.0307 16.2192 17.9111 16.2789 17.805 16.3172V15.9833C17.9959 15.8929 18.164 15.7826 18.3064 15.6539C18.4488 15.5237 18.5518 15.3981 18.6108 15.2755H18.8305V18.1049Z" fill="black"/>
    <path fill-rule="evenodd" clip-rule="evenodd" d="M26.578 3.78364C26.7022 3.86943 26.8173 3.93223 26.9218 3.97206L26.843 4.16048C26.6976 4.1084 26.5537 4.02415 26.4083 3.91079C26.2584 3.99504 26.0933 4.0364 25.913 4.0364C25.7298 4.0364 25.5631 3.99198 25.4147 3.90313C25.2663 3.81275 25.1512 3.68867 25.0709 3.52629C24.9906 3.36391 24.9497 3.18162 24.9497 2.97942C24.9497 2.77874 24.9906 2.59492 25.0709 2.42948C25.1527 2.26404 25.2678 2.13689 25.4162 2.05111C25.5662 1.96532 25.7328 1.9209 25.9176 1.9209C26.1039 1.9209 26.272 1.96685 26.422 2.0557C26.5719 2.14608 26.687 2.2717 26.7658 2.43254C26.8446 2.59339 26.8824 2.77568 26.8824 2.97788C26.8824 3.14639 26.8582 3.29804 26.8067 3.43285C26.7567 3.56612 26.681 3.68407 26.578 3.78364ZM25.9903 3.43744C26.1433 3.48033 26.2705 3.5462 26.372 3.63199C26.528 3.48799 26.6068 3.26894 26.6068 2.97788C26.6068 2.81244 26.5795 2.66845 26.5234 2.54437C26.4689 2.42182 26.3871 2.32531 26.2796 2.25638C26.172 2.18897 26.0524 2.15374 25.9191 2.15374C25.7207 2.15374 25.5541 2.22268 25.4223 2.36054C25.2905 2.49994 25.2254 2.70521 25.2254 2.97942C25.2254 3.24596 25.2905 3.4497 25.4208 3.59216C25.551 3.73462 25.7176 3.80509 25.9191 3.80509C26.0145 3.80509 26.1054 3.78671 26.1902 3.75147C26.1054 3.69633 26.0175 3.6565 25.9252 3.63352L25.9903 3.43744ZM27.7579 4.0027V2.1997H27.0914V1.95766H28.694V2.1997H28.0245V4.0027H27.7579Z" fill="#65FEB7"/>
    <path fill-rule="evenodd" clip-rule="evenodd" d="M26.7628 0.258789C27.4625 0.258789 28.0957 0.545247 28.5531 1.00787C29.0105 1.47202 29.2953 2.11234 29.2953 2.81853V2.82006C29.2953 3.52778 29.0105 4.1681 28.5531 4.63073C28.0957 5.09335 27.4625 5.37981 26.7628 5.38134C26.063 5.38134 25.4298 5.09335 24.9709 4.63073C24.5135 4.1681 24.2302 3.52778 24.2302 2.82006V2.81853C24.2302 2.11234 24.5135 1.47202 24.9709 1.00787C25.4298 0.545247 26.063 0.258789 26.7612 0.258789H26.7628ZM26.7628 0.465591H26.7612C26.1205 0.465591 25.5389 0.729071 25.1178 1.15493C24.6952 1.58232 24.4347 2.17055 24.4347 2.81853V2.82006C24.4347 3.46957 24.6952 4.05781 25.1163 4.48367C25.5389 4.90952 26.1205 5.173 26.7628 5.173C27.405 5.173 27.9866 4.90952 28.4077 4.48367C28.8288 4.05781 29.0893 3.46957 29.0893 2.82006V2.81853C29.0893 2.16902 28.8288 1.58232 28.4077 1.15646C27.9866 0.729071 27.405 0.465591 26.7628 0.465591Z" fill="#65FEB7"/>
    <path fill-rule="evenodd" clip-rule="evenodd" d="M37.8682 0.243537H58.9554V4.76866H43.586V7.55052H58.1738V11.7815H43.586V14.8682H59.0644V19.4945H37.8682V0.243537ZM60.8775 0.243537H71.0455L81.0165 14.5986H81.6163L81.4785 0.243537H87.3751V19.4945H77.295L67.28 5.13937H66.6514L66.7756 19.4945H60.8775V0.243537ZM90.0364 0.243537H96.1284V19.4945H90.0364V0.243537ZM120.672 19.4945L119.039 16.2347H106.449L104.817 19.4945H98.1913L108.287 0.243537H117.297L127.255 19.4945H120.672ZM117.007 12.0174L113.337 4.73036H112.181L108.511 12.0174H117.007ZM145.965 12.0619H151.768C151.802 12.9994 151.82 13.6075 151.82 13.8802C151.82 15.3676 151.597 16.5272 151.164 17.3667C150.679 18.3027 149.739 18.943 148.336 19.2815C146.932 19.6201 144.504 19.7916 141.053 19.7916C137.432 19.7916 134.846 19.7196 133.309 19.5802C131.773 19.4408 130.608 19.1682 129.83 18.7622C129.135 18.3992 128.61 17.8998 128.268 17.2794C127.926 16.659 127.699 15.8103 127.597 14.7288C127.515 13.8526 127.473 12.2733 127.473 9.98618C127.473 7.75732 127.515 6.14887 127.597 5.16235C127.68 4.17583 127.85 3.41143 128.088 2.86609C128.62 1.64672 129.692 0.848623 131.31 0.488635C132.927 0.128648 136.188 -0.0551758 141.096 -0.0551758C143.553 -0.0551758 145.338 0.00150285 146.452 0.113329C147.57 0.225155 148.457 0.438084 149.116 0.749052C149.984 1.15806 150.59 1.77846 150.944 2.59188C151.299 3.40377 151.473 4.60015 151.473 6.1841C151.473 6.26529 151.468 6.58851 151.458 7.14151H145.661C145.632 6.5012 145.591 6.07074 145.541 5.85628C145.493 5.64029 145.385 5.45953 145.228 5.31707C145.007 5.11792 144.442 4.97699 143.537 4.88814C142.639 4.80083 141.273 4.75334 139.44 4.75334C137.626 4.75334 136.369 4.79317 135.675 4.87436C134.977 4.95555 134.483 5.10873 134.195 5.34617C133.851 5.62803 133.61 6.10138 133.476 6.7708C133.341 7.4387 133.276 8.50334 133.276 9.96167C133.276 11.4154 133.338 12.4464 133.457 13.0438C133.576 13.6397 133.812 14.0671 134.157 14.3336C134.481 14.5848 134.999 14.761 135.708 14.8437C136.422 14.928 137.679 14.9693 139.483 14.9693C141.7 14.9693 143.186 14.9326 143.924 14.8575C144.661 14.784 145.161 14.6155 145.423 14.3627C145.764 14.0334 145.946 13.2644 145.965 12.0619Z" fill="#65FEB7"/>
  </g>
  <defs>
    <clipPath id="clip0_5143_12658">
      <rect width="152" height="20" fill="white"/>
    </clipPath>
  </defs>
</svg>
