<svg width="172" height="21" viewBox="0 0 172 21" fill="none"
  xmlns="http://www.w3.org/2000/svg">
  <path d="M32.8273 17.0516C31.6321 17.0516 30.4787 16.9057 29.3669 16.6138C28.269 16.3081 27.3726 15.9189 26.6777 15.4464L28.0327 12.4029C28.6859 12.8198 29.4364 13.1673 30.2841 13.4452C31.1457 13.7093 32.0004 13.8413 32.8482 13.8413C33.418 13.8413 33.8766 13.7926 34.224 13.6954C34.5714 13.5842 34.8216 13.4452 34.9745 13.2784C35.1412 13.0978 35.2246 12.8893 35.2246 12.6531C35.2246 12.3195 35.0717 12.0555 34.766 11.8609C34.4603 11.6663 34.0642 11.5065 33.5778 11.3815C33.0914 11.2564 32.5494 11.1313 31.9518 11.0062C31.3681 10.8811 30.7775 10.7213 30.1799 10.5268C29.5962 10.3322 29.0611 10.082 28.5747 9.77631C28.0883 9.45667 27.6922 9.04669 27.3865 8.54639C27.0808 8.03219 26.9279 7.38596 26.9279 6.60771C26.9279 5.73217 27.1641 4.94002 27.6367 4.23126C28.1231 3.52249 28.8457 2.9527 29.8046 2.52188C30.7636 2.09106 31.9587 1.87565 33.3902 1.87565C34.3491 1.87565 35.2872 1.98683 36.2044 2.20919C37.1355 2.41765 37.9624 2.73034 38.6851 3.14726L37.4135 6.21163C36.7186 5.8364 36.0307 5.55846 35.3497 5.37779C34.6687 5.18323 34.0086 5.08595 33.3693 5.08595C32.7995 5.08595 32.3409 5.14849 31.9935 5.27356C31.646 5.38474 31.3959 5.53761 31.243 5.73217C31.0901 5.92674 31.0137 6.14909 31.0137 6.39925C31.0137 6.71889 31.1596 6.97599 31.4515 7.17055C31.7572 7.35122 32.1533 7.50409 32.6397 7.62916C33.14 7.74034 33.682 7.85847 34.2657 7.98355C34.8633 8.10862 35.4539 8.26844 36.0376 8.46301C36.6352 8.64367 37.1772 8.89383 37.6636 9.21346C38.15 9.51921 38.5391 9.92918 38.831 10.4434C39.1367 10.9437 39.2896 11.576 39.2896 12.3404C39.2896 13.1881 39.0464 13.9733 38.56 14.696C38.0875 15.4047 37.3718 15.9745 36.4128 16.4053C35.4678 16.8362 34.2726 17.0516 32.8273 17.0516Z" fill="#65FEB7"/>
  <path d="M48.3672 5.27356C49.2428 5.27356 50.0349 5.45423 50.7437 5.81556C51.4524 6.16299 52.0083 6.70499 52.4114 7.44155C52.8283 8.17811 53.0367 9.13008 53.0367 10.2975V16.7597H49.076V10.9437C49.076 10.1376 48.9092 9.55395 48.5757 9.19262C48.2561 8.81739 47.8044 8.62977 47.2207 8.62977C46.8038 8.62977 46.4216 8.72706 46.0742 8.92162C45.7267 9.10229 45.4557 9.38718 45.2612 9.77631C45.0666 10.1654 44.9693 10.6727 44.9693 11.2981V16.7597H41.0086V1.29197H44.9693V8.67147L44.0521 7.73339C44.4829 6.91345 45.0736 6.30197 45.824 5.89894C46.5745 5.48202 47.4222 5.27356 48.3672 5.27356Z" fill="#65FEB7"/>
  <path d="M55.5235 16.7597V5.46117H59.4842V16.7597H55.5235ZM57.5038 4.21041C56.7812 4.21041 56.1975 4.0089 55.7528 3.60588C55.308 3.20285 55.0857 2.70255 55.0857 2.10496C55.0857 1.50738 55.308 1.00707 55.7528 0.604047C56.1975 0.201023 56.7812 -0.000488281 57.5038 -0.000488281C58.2265 -0.000488281 58.8102 0.194075 59.2549 0.583201C59.6996 0.95843 59.922 1.44484 59.922 2.04242C59.922 2.66781 59.6996 3.18896 59.2549 3.60588C58.8241 4.0089 58.2404 4.21041 57.5038 4.21041Z" fill="#65FEB7"/>
  <path d="M69.4169 5.27356C70.2924 5.27356 71.0845 5.45423 71.7933 5.81556C72.5021 6.16299 73.058 6.70499 73.461 7.44155C73.8779 8.17811 74.0864 9.13008 74.0864 10.2975V16.7597H70.1256V10.9437C70.1256 10.1376 69.9589 9.55395 69.6253 9.19262C69.3057 8.81739 68.854 8.62977 68.2703 8.62977C67.8534 8.62977 67.4712 8.72706 67.1238 8.92162C66.7764 9.10229 66.5054 9.38718 66.3108 9.77631C66.1162 10.1654 66.019 10.6727 66.019 11.2981V16.7597H62.0582V5.46117H65.8313V8.67147L65.1017 7.73339C65.5325 6.91345 66.1232 6.30197 66.8736 5.89894C67.6241 5.48202 68.4718 5.27356 69.4169 5.27356Z" fill="#65FEB7"/>
  <path d="M82.6359 16.9473C81.3017 16.9473 80.1343 16.6972 79.1337 16.1969C78.147 15.6827 77.3757 14.9878 76.8198 14.1123C76.2778 13.2229 76.0068 12.2153 76.0068 11.0896C76.0068 9.96392 76.2709 8.96331 76.799 8.08778C77.341 7.19835 78.0845 6.51043 79.0295 6.02402C79.9745 5.52371 81.0377 5.27356 82.2189 5.27356C83.3307 5.27356 84.3452 5.50287 85.2625 5.96148C86.1797 6.4062 86.9093 7.06632 87.4513 7.94185C87.9933 8.81739 88.2643 9.88054 88.2643 11.1313C88.2643 11.2703 88.2573 11.4301 88.2434 11.6108C88.2295 11.7914 88.2157 11.9582 88.2018 12.1111H79.2588V10.0265H86.0963L84.5954 10.6101C84.6093 10.0959 84.512 9.65123 84.3035 9.276C84.109 8.90077 83.831 8.60893 83.4697 8.40047C83.1223 8.19201 82.7123 8.08778 82.2398 8.08778C81.7673 8.08778 81.3503 8.19201 80.989 8.40047C80.6416 8.60893 80.3706 8.90772 80.176 9.29685C79.9815 9.67208 79.8842 10.1168 79.8842 10.631V11.2355C79.8842 11.7914 79.9954 12.2709 80.2177 12.6739C80.454 13.0769 80.7875 13.3896 81.2183 13.612C81.6491 13.8204 82.1634 13.9247 82.7609 13.9247C83.3168 13.9247 83.7893 13.8482 84.1785 13.6954C84.5815 13.5286 84.9776 13.2784 85.3667 12.9449L87.4513 15.1129C86.9093 15.7105 86.2422 16.1691 85.4501 16.4887C84.6579 16.7945 83.7199 16.9473 82.6359 16.9473Z" fill="#65FEB7"/>
  <path d="M103.62 17.0516C102.466 17.0516 101.396 16.8709 100.41 16.5096C99.4367 16.1343 98.589 15.6063 97.8663 14.9253C97.1576 14.2443 96.6017 13.4452 96.1987 12.528C95.7956 11.5969 95.5941 10.5754 95.5941 9.46362C95.5941 8.35183 95.7956 7.33732 96.1987 6.42009C96.6017 5.48897 97.1576 4.68292 97.8663 4.00195C98.589 3.32098 99.4367 2.79983 100.41 2.4385C101.396 2.06327 102.466 1.87565 103.62 1.87565C104.968 1.87565 106.17 2.11191 107.226 2.58442C108.296 3.05693 109.186 3.7379 109.895 4.62733L107.268 7.00378C106.795 6.44789 106.274 6.02402 105.704 5.73217C105.149 5.44033 104.523 5.29441 103.828 5.29441C103.231 5.29441 102.682 5.39169 102.181 5.58625C101.681 5.78082 101.25 6.06571 100.889 6.44094C100.542 6.80227 100.264 7.24004 100.055 7.75424C99.8606 8.26844 99.7633 8.83823 99.7633 9.46362C99.7633 10.089 99.8606 10.6588 100.055 11.173C100.264 11.6872 100.542 12.1319 100.889 12.5071C101.25 12.8685 101.681 13.1464 102.181 13.341C102.682 13.5355 103.231 13.6328 103.828 13.6328C104.523 13.6328 105.149 13.4869 105.704 13.1951C106.274 12.9032 106.795 12.4793 107.268 11.9234L109.895 14.2999C109.186 15.1754 108.296 15.8564 107.226 16.3428C106.17 16.8153 104.968 17.0516 103.62 17.0516Z" fill="#65FEB7"/>
  <path d="M118.407 16.7597V14.6543L118.136 14.1331V10.2558C118.136 9.63038 117.941 9.15092 117.552 8.81739C117.177 8.46995 116.572 8.29624 115.738 8.29624C115.196 8.29624 114.647 8.38657 114.091 8.56724C113.536 8.73401 113.063 8.97026 112.674 9.276L111.34 6.58686C111.979 6.16994 112.743 5.8503 113.633 5.62794C114.536 5.39169 115.433 5.27356 116.322 5.27356C118.156 5.27356 119.574 5.69743 120.575 6.54517C121.589 7.37901 122.096 8.69231 122.096 10.4851V16.7597H118.407ZM115.071 16.9473C114.168 16.9473 113.403 16.7945 112.778 16.4887C112.153 16.183 111.673 15.7661 111.34 15.238C111.02 14.7099 110.86 14.1192 110.86 13.4661C110.86 12.7712 111.034 12.1736 111.381 11.6733C111.743 11.1591 112.292 10.77 113.028 10.5059C113.765 10.228 114.717 10.089 115.884 10.089H118.552V12.1528H116.426C115.787 12.1528 115.335 12.257 115.071 12.4654C114.821 12.6739 114.696 12.9519 114.696 13.2993C114.696 13.6467 114.828 13.9247 115.092 14.1331C115.356 14.3416 115.717 14.4458 116.176 14.4458C116.607 14.4458 116.996 14.3416 117.343 14.1331C117.705 13.9108 117.969 13.5772 118.136 13.1325L118.678 14.5917C118.469 15.37 118.059 15.9606 117.448 16.3637C116.85 16.7528 116.058 16.9473 115.071 16.9473Z" fill="#65FEB7"/>
  <path d="M131.705 16.9473C130.746 16.9473 129.926 16.7389 129.245 16.322C128.564 15.8911 128.043 15.2519 127.682 14.4041C127.334 13.5425 127.16 12.4446 127.16 11.1105C127.16 9.76241 127.327 8.66452 127.661 7.81678C127.994 6.95514 128.495 6.31586 129.162 5.89894C129.843 5.48202 130.69 5.27356 131.705 5.27356C132.733 5.27356 133.664 5.51677 134.498 6.00317C135.346 6.47568 136.013 7.14971 136.499 8.02524C137 8.88688 137.25 9.91528 137.25 11.1105C137.25 12.3056 137 13.341 136.499 14.2165C136.013 15.092 135.346 15.7661 134.498 16.2386C133.664 16.7111 132.733 16.9473 131.705 16.9473ZM124.596 20.8039V5.46117H128.369V7.37901L128.349 11.1105L128.557 14.8627V20.8039H124.596ZM130.871 13.7996C131.316 13.7996 131.712 13.6954 132.059 13.4869C132.421 13.2784 132.705 12.9727 132.914 12.5697C133.136 12.1667 133.247 11.6802 133.247 11.1105C133.247 10.5407 133.136 10.0543 132.914 9.65123C132.705 9.24821 132.421 8.94247 132.059 8.734C131.712 8.52555 131.316 8.42131 130.871 8.42131C130.426 8.42131 130.023 8.52555 129.662 8.734C129.314 8.94247 129.03 9.24821 128.807 9.65123C128.599 10.0543 128.495 10.5407 128.495 11.1105C128.495 11.6802 128.599 12.1667 128.807 12.5697C129.03 12.9727 129.314 13.2784 129.662 13.4869C130.023 13.6954 130.426 13.7996 130.871 13.7996Z" fill="#65FEB7"/>
  <path d="M139.091 16.7597V5.46117H143.052V16.7597H139.091ZM141.071 4.21041C140.349 4.21041 139.765 4.0089 139.32 3.60588C138.875 3.20285 138.653 2.70255 138.653 2.10496C138.653 1.50738 138.875 1.00707 139.32 0.604047C139.765 0.201023 140.349 -0.000488281 141.071 -0.000488281C141.794 -0.000488281 142.378 0.194075 142.822 0.583201C143.267 0.95843 143.489 1.44484 143.489 2.04242C143.489 2.66781 143.267 3.18896 142.822 3.60588C142.391 4.0089 141.808 4.21041 141.071 4.21041Z" fill="#65FEB7"/>
  <path d="M150.67 16.9473C149.225 16.9473 148.099 16.593 147.293 15.8842C146.487 15.1615 146.084 14.0775 146.084 12.6322V2.9388H150.045V12.5905C150.045 12.9935 150.156 13.3132 150.379 13.5494C150.601 13.7718 150.886 13.883 151.233 13.883C151.706 13.883 152.109 13.7649 152.442 13.5286L153.422 16.3011C153.089 16.5235 152.679 16.6833 152.192 16.7806C151.706 16.8918 151.198 16.9473 150.67 16.9473ZM144.437 8.83823V5.8781H152.63V8.83823H144.437Z" fill="#65FEB7"/>
  <path d="M161.849 16.7597V14.6543L161.578 14.1331V10.2558C161.578 9.63038 161.384 9.15092 160.995 8.81739C160.619 8.46995 160.015 8.29624 159.181 8.29624C158.639 8.29624 158.09 8.38657 157.534 8.56724C156.978 8.73401 156.506 8.97026 156.117 9.276L154.783 6.58686C155.422 6.16994 156.186 5.8503 157.076 5.62794C157.979 5.39169 158.875 5.27356 159.765 5.27356C161.599 5.27356 163.017 5.69743 164.017 6.54517C165.032 7.37901 165.539 8.69231 165.539 10.4851V16.7597H161.849ZM158.514 16.9473C157.611 16.9473 156.846 16.7945 156.221 16.4887C155.596 16.183 155.116 15.7661 154.783 15.238C154.463 14.7099 154.303 14.1192 154.303 13.4661C154.303 12.7712 154.477 12.1736 154.824 11.6733C155.186 11.1591 155.735 10.77 156.471 10.5059C157.208 10.228 158.16 10.089 159.327 10.089H161.995V12.1528H159.869C159.23 12.1528 158.778 12.257 158.514 12.4654C158.264 12.6739 158.139 12.9519 158.139 13.2993C158.139 13.6467 158.271 13.9247 158.535 14.1331C158.799 14.3416 159.16 14.4458 159.619 14.4458C160.05 14.4458 160.439 14.3416 160.786 14.1331C161.148 13.9108 161.412 13.5772 161.578 13.1325L162.12 14.5917C161.912 15.37 161.502 15.9606 160.89 16.3637C160.293 16.7528 159.501 16.9473 158.514 16.9473Z" fill="#65FEB7"/>
  <path d="M168.039 16.7597V1.29197H172V16.7597H168.039Z" fill="#65FEB7"/>
  <path opacity="0.4" fill-rule="evenodd" clip-rule="evenodd" d="M11.6394 1.55762L12.7947 2.09635L9.72308 8.68353L16.5525 6.19785L16.9884 7.39572L10.3578 9.80907L16.9884 12.2224L16.5525 13.4203L9.72232 10.9343L12.7943 17.5221L11.6389 18.0608L8.49465 11.3179L5.35042 18.0607L4.1951 17.522L7.26715 10.934L0.435991 13.4203L0 12.2224L6.6307 9.80907L0 7.3957L0.435991 6.19782L7.26639 8.68388L4.19462 2.09645L5.34994 1.55772L8.49465 8.30159L11.6394 1.55762Z" fill="#65FEB7"/>
</svg>
