<svg width="19" height="27" viewBox="0 0 19 27">
  <g clip-path="url(#clip0_3654_4873)">
    <path d="M5.13818 26.083C7.54236 26.083 9.49358 24.212 9.49358 21.9067V17.7305H5.13818C2.734 17.7305 0.782776 19.6014 0.782776 21.9067C0.782776 24.212 2.734 26.083 5.13818 26.083Z" fill="#0ACF83"/>
    <path d="M0.784302 13.3462C0.784302 11.0409 2.73552 9.16992 5.1397 9.16992H9.4951V17.5225H5.1397C2.73552 17.5225 0.784302 15.6515 0.784302 13.3462Z" fill="#A259FF"/>
    <path d="M0.784363 4.78369C0.784363 2.47839 2.73558 0.607422 5.13976 0.607422H9.49516V8.95995H5.13976C2.73558 8.95995 0.784363 7.08899 0.784363 4.78369Z" fill="#F24E1E"/>
    <path d="M9.71136 0.607422H14.0668C16.4709 0.607422 18.4222 2.47839 18.4222 4.78369C18.4222 7.08898 16.4709 8.95995 14.0668 8.95995H9.71136V0.607422Z" fill="#FF7262"/>
    <path d="M18.4222 13.3462C18.4222 15.6515 16.4709 17.5225 14.0668 17.5225C11.6626 17.5225 9.71136 15.6515 9.71136 13.3462C9.71136 11.0409 11.6626 9.16992 14.0668 9.16992C16.4709 9.16992 18.4222 11.0409 18.4222 13.3462Z" fill="#1ABCFE"/>
  </g>
  <defs>
    <clipPath id="clip0_3654_4873">
      <rect width="17.8571" height="25.8929" fill="white" transform="translate(0.782776 0.607422)"/>
    </clipPath>
  </defs>
</svg>
