<svg width="758" height="212" viewBox="0 0 758 212" fill="none"
  xmlns="http://www.w3.org/2000/svg">
  <path d="M97.288 1.68799V25.112H96.424C92.776 20.312 86.728 17.144 76.744 17.144C53.992 17.144 51.592 36.248 51.592 44.12C51.592 51.32 54.088 71 76.648 71C86.824 71 92.968 68.216 96.616 63.512H97.288V71H111.88V1.68799H97.288ZM80.968 58.52C67.048 58.52 65.512 47.96 65.512 44.12C65.512 39.896 66.952 29.72 80.968 29.72C93.544 29.72 96.136 36.824 96.136 44.12C96.136 52.28 93.544 58.52 80.968 58.52ZM173.306 47.48H173.882C174.65 40.088 173.69 28.76 163.322 21.656V21.752C158.81 18.584 152.666 16.664 145.082 16.664C126.938 16.664 116.186 26.264 116.186 43.832C116.186 61.784 126.65 71 145.082 71C162.746 71 172.154 63.896 173.594 52.28H159.482C158.138 55.832 153.818 58.232 145.082 58.232C135.674 58.232 131.354 54.68 130.298 47.48H173.306ZM145.082 29.432C155.45 29.432 158.138 33.848 159.29 37.88H130.874C132.602 32.408 137.018 29.432 145.082 29.432ZM220.209 50.84C219.153 54.584 215.793 57.944 206.577 57.944C197.073 57.944 192.081 53.624 192.081 44.024C192.081 34.904 197.073 30.2 206.577 30.2C215.505 30.2 219.057 33.272 220.305 37.304H234.609C233.361 24.536 222.033 17.048 206.577 17.048C190.737 17.048 177.873 26.648 177.873 44.024C177.873 61.88 190.737 71 206.577 71C222.033 71 233.457 63.8 234.609 50.84H220.209ZM294.712 47.48H295.288C296.056 40.088 295.096 28.76 284.728 21.656V21.752C280.216 18.584 274.072 16.664 266.488 16.664C248.344 16.664 237.592 26.264 237.592 43.832C237.592 61.784 248.056 71 266.488 71C284.152 71 293.56 63.896 295 52.28H280.888C279.544 55.832 275.224 58.232 266.488 58.232C257.08 58.232 252.76 54.68 251.704 47.48H294.712ZM266.488 29.432C276.856 29.432 279.544 33.848 280.696 37.88H252.28C254.008 32.408 258.424 29.432 266.488 29.432ZM332.404 17.144C322.708 17.144 317.812 20.312 314.356 25.112H313.684V17.144H299.092V71H313.684V45.08C313.684 37.784 315.508 29.72 328.18 29.72C342.1 29.72 341.236 39.896 341.236 44.12V71H355.732V44.12C355.732 36.248 355.156 17.144 332.404 17.144ZM379.478 29.624H396.95V17.336H379.478V1.784H364.79V17.336H357.686V29.624H364.79V51.224C364.79 59 364.79 71 379.478 71C394.07 71 396.95 70.04 396.95 70.04V55.832C382.934 56.6 379.478 57.656 379.478 49.88V48.728V29.624ZM432.29 17.144C422.978 17.144 419.714 19.928 416.642 25.112H415.778V17.144H401.186V71H415.778V46.904C415.778 39.608 418.946 31.16 429.794 31.16C434.402 31.16 438.146 31.928 439.49 32.312L441.794 18.584C439.298 18.008 436.13 17.144 432.29 17.144ZM486.328 25.112C482.68 20.312 476.632 17.144 466.648 17.144C443.896 17.144 441.496 36.248 441.496 44.12C441.496 51.32 443.992 71 466.552 71C476.728 71 482.872 68.216 486.52 63.512H487V71H501.592V17.144H487V25.112H486.328ZM470.872 58.52C456.952 58.52 455.416 47.96 455.416 44.12C455.416 39.896 456.856 29.72 470.872 29.72C483.448 29.72 486.04 36.824 486.04 44.12C486.04 52.28 483.448 58.52 470.872 58.52ZM521.244 71V1.976H506.748V71H521.244ZM541.401 71V17.528H526.905V71H541.401ZM541.401 13.688V0.631996H526.905V13.688H541.401ZM546.592 17.24V30.584H581.056L546.592 57.272V71H600.736V57.752H566.368L600.736 30.968V17.24H546.592ZM659.306 47.48H659.882C660.65 40.088 659.69 28.76 649.322 21.656V21.752C644.81 18.584 638.666 16.664 631.082 16.664C612.938 16.664 602.186 26.264 602.186 43.832C602.186 61.784 612.65 71 631.082 71C648.746 71 658.154 63.896 659.594 52.28H645.482C644.138 55.832 639.818 58.232 631.082 58.232C621.674 58.232 617.354 54.68 616.298 47.48H659.306ZM631.082 29.432C641.45 29.432 644.138 33.848 645.29 37.88H616.874C618.602 32.408 623.018 29.432 631.082 29.432ZM709.288 1.68799V25.112H708.424C704.776 20.312 698.728 17.144 688.744 17.144C665.992 17.144 663.592 36.248 663.592 44.12C663.592 51.32 666.088 71 688.648 71C698.824 71 704.968 68.216 708.616 63.512H709.288V71H723.88V1.68799H709.288ZM692.968 58.52C679.048 58.52 677.512 47.96 677.512 44.12C677.512 39.896 678.952 29.72 692.968 29.72C705.544 29.72 708.136 36.824 708.136 44.12C708.136 52.28 705.544 58.52 692.968 58.52ZM108.712 162.48H109.288C110.056 155.088 109.096 143.76 98.728 136.656V136.752C94.216 133.584 88.072 131.664 80.488 131.664C62.344 131.664 51.592 141.264 51.592 158.832C51.592 176.784 62.056 186 80.488 186C98.152 186 107.56 178.896 109 167.28H94.888C93.544 170.832 89.224 173.232 80.488 173.232C71.08 173.232 66.76 169.68 65.704 162.48H108.712ZM80.488 144.432C90.856 144.432 93.544 148.848 94.696 152.88H66.28C68.008 147.408 72.424 144.432 80.488 144.432ZM146.404 132.144C136.708 132.144 131.812 135.312 128.356 140.112H127.684V132.144H113.092V186H127.684V160.08C127.684 152.784 129.508 144.72 142.18 144.72C156.1 144.72 155.236 154.896 155.236 159.12V186H169.732V159.12C169.732 151.248 169.156 132.144 146.404 132.144ZM218.788 132.72V140.688H217.924C214.276 135.888 208.228 132.72 198.244 132.72C175.492 132.72 173.092 151.824 173.092 159.696C173.092 166.992 175.588 186.672 198.148 186.672C208.324 186.672 214.468 183.792 218.116 179.184H218.788V183.024C218.788 192.912 214.372 199.344 204.484 199.344C193.06 199.344 190.564 193.776 190.18 190.896C187.78 190.896 179.524 190.896 175.684 190.896C175.684 198.864 180.388 211.92 204.58 211.92C231.364 211.92 233.38 191.952 233.38 180.816V132.72H218.788ZM202.468 174.096C188.548 174.096 187.012 163.632 187.012 159.696C187.012 155.472 188.452 145.296 202.468 145.296C215.044 145.296 217.636 152.4 217.636 159.696C217.636 167.856 215.044 174.096 202.468 174.096ZM253.119 186V132.528H238.623V186H253.119ZM253.119 128.688V115.632H238.623V128.688H253.119ZM291.623 132.144C281.927 132.144 277.031 135.312 273.575 140.112H272.903V132.144H258.311V186H272.903V160.08C272.903 152.784 274.727 144.72 287.399 144.72C301.319 144.72 300.455 154.896 300.455 159.12V186H314.951V159.12C314.951 151.248 314.375 132.144 291.623 132.144ZM375.618 162.48H376.194C376.962 155.088 376.002 143.76 365.634 136.656V136.752C361.122 133.584 354.978 131.664 347.394 131.664C329.25 131.664 318.498 141.264 318.498 158.832C318.498 176.784 328.962 186 347.394 186C365.058 186 374.466 178.896 375.906 167.28H361.794C360.45 170.832 356.13 173.232 347.394 173.232C337.986 173.232 333.666 169.68 332.61 162.48H375.618ZM347.394 144.432C357.762 144.432 360.45 148.848 361.602 152.88H333.186C334.914 147.408 339.33 144.432 347.394 144.432ZM437.775 162.48H438.351C439.119 155.088 438.159 143.76 427.791 136.656V136.752C423.279 133.584 417.135 131.664 409.551 131.664C391.407 131.664 380.655 141.264 380.655 158.832C380.655 176.784 391.119 186 409.551 186C427.215 186 436.623 178.896 438.062 167.28H423.951C422.607 170.832 418.287 173.232 409.551 173.232C400.143 173.232 395.823 169.68 394.767 162.48H437.775ZM409.551 144.432C419.919 144.432 422.607 148.848 423.759 152.88H395.343C397.071 147.408 401.487 144.432 409.551 144.432ZM473.821 132.144C464.509 132.144 461.245 134.928 458.173 140.112H457.309V132.144H442.717V186H457.309V161.904C457.309 154.608 460.477 146.16 471.325 146.16C475.933 146.16 479.677 146.928 481.021 147.312L483.325 133.584C480.829 133.008 477.661 132.144 473.821 132.144ZM499.869 186V132.528H485.373V186H499.869ZM499.869 128.688V115.632H485.373V128.688H499.869ZM538.373 132.144C528.677 132.144 523.781 135.312 520.325 140.112H519.653V132.144H505.061V186H519.653V160.08C519.653 152.784 521.477 144.72 534.149 144.72C548.069 144.72 547.205 154.896 547.205 159.12V186H561.701V159.12C561.701 151.248 561.125 132.144 538.373 132.144ZM610.757 132.72V140.688H609.893C606.245 135.888 600.197 132.72 590.213 132.72C567.461 132.72 565.061 151.824 565.061 159.696C565.061 166.992 567.557 186.672 590.117 186.672C600.293 186.672 606.437 183.792 610.085 179.184H610.757V183.024C610.757 192.912 606.341 199.344 596.453 199.344C585.029 199.344 582.533 193.776 582.149 190.896C579.749 190.896 571.493 190.896 567.653 190.896C567.653 198.864 572.357 211.92 596.549 211.92C623.333 211.92 625.349 191.952 625.349 180.816V132.72H610.757ZM594.437 174.096C580.517 174.096 578.981 163.632 578.981 159.696C578.981 155.472 580.421 145.296 594.437 145.296C607.013 145.296 609.605 152.4 609.605 159.696C609.605 167.856 607.013 174.096 594.437 174.096Z" fill="white"/>
  <path d="M17.8774 44L-0.000135422 62.0011L5.95764 68L29.793 44L5.95764 20L0.00407791 25.9989L17.8774 44Z" fill="#65FEB7"/>
</svg>
