<svg width="1168" height="288" viewBox="0 0 1168 288" fill="none">
  <path d="M138.407 29.4V39.36H137.327C132.767 33.36 125.207 29.4 112.727 29.4C84.2869 29.4 81.2869 53.28 81.2869 63.12C81.2869 72.24 84.4069 96.84 112.607 96.84C125.327 96.84 133.007 93.24 137.567 87.48H138.407V92.28C138.407 104.64 132.887 112.68 120.527 112.68C106.247 112.68 103.127 105.72 102.647 102.12C99.6469 102.12 89.3269 102.12 84.5269 102.12C84.5269 112.08 90.4069 128.4 120.647 128.4C154.127 128.4 156.647 103.44 156.647 89.52V29.4H138.407ZM118.007 81.12C100.607 81.12 98.6869 68.04 98.6869 63.12C98.6869 57.84 100.487 45.12 118.007 45.12C133.727 45.12 136.967 54 136.967 63.12C136.967 73.32 133.727 81.12 118.007 81.12ZM181.321 96V29.16H163.201V96H181.321ZM181.321 24.36V8.04H163.201V24.36H181.321ZM244.462 29.4V39.36H243.382C238.822 33.36 231.262 29.4 218.782 29.4C190.342 29.4 187.342 53.28 187.342 63.12C187.342 72.24 190.462 96.84 218.662 96.84C231.382 96.84 239.062 93.24 243.622 87.48H244.462V92.28C244.462 104.64 238.942 112.68 226.582 112.68C212.302 112.68 209.182 105.72 208.702 102.12C205.702 102.12 195.382 102.12 190.582 102.12C190.582 112.08 196.462 128.4 226.702 128.4C260.182 128.4 262.702 103.44 262.702 89.52V29.4H244.462ZM224.062 81.12C206.662 81.12 204.742 68.04 204.742 63.12C204.742 57.84 206.542 45.12 224.062 45.12C239.782 45.12 243.022 54 243.022 63.12C243.022 73.32 239.782 81.12 224.062 81.12ZM379.679 66.6H380.399C381.359 57.36 380.159 43.2 367.199 34.32V34.44C361.559 30.48 353.879 28.08 344.399 28.08C321.719 28.08 308.279 40.08 308.279 62.04C308.279 84.48 321.359 96 344.399 96C366.479 96 378.239 87.12 380.039 72.6H362.399C360.719 77.04 355.319 80.04 344.399 80.04C332.639 80.04 327.239 75.6 325.919 66.6H379.679ZM344.399 44.04C357.359 44.04 360.719 49.56 362.159 54.6H326.639C328.799 47.76 334.319 44.04 344.399 44.04ZM438.308 70.8C436.988 75.48 432.788 79.68 421.268 79.68C409.388 79.68 403.148 74.28 403.148 62.28C403.148 50.88 409.388 45 421.268 45C432.428 45 436.868 48.84 438.428 53.88H456.308C454.748 37.92 440.588 28.56 421.268 28.56C401.468 28.56 385.388 40.56 385.388 62.28C385.388 84.6 401.468 96 421.268 96C440.588 96 454.868 87 456.308 70.8H438.308ZM496.539 27.48C476.139 27.48 459.099 38.64 459.099 61.8C459.099 85.08 476.139 96 496.539 96C517.059 96 534.099 85.44 534.099 61.8C534.099 38.4 517.059 27.48 496.539 27.48ZM496.539 79.44C485.139 79.44 476.979 74.4 476.979 61.8C476.979 49.08 485.139 44.16 496.539 44.16C508.059 44.16 516.219 49.32 516.219 61.8C516.219 73.92 508.059 79.44 496.539 79.44ZM580.778 28.68C568.658 28.68 562.538 32.64 558.218 38.64H557.378V28.68H539.138V96H557.378V63.6C557.378 54.48 559.658 44.4 575.498 44.4C592.898 44.4 591.818 57.12 591.818 62.4V96H609.938V62.4C609.938 52.56 609.218 28.68 580.778 28.68ZM651.227 27.48C630.827 27.48 613.787 38.64 613.787 61.8C613.787 85.08 630.827 96 651.227 96C671.747 96 688.787 85.44 688.787 61.8C688.787 38.4 671.747 27.48 651.227 27.48ZM651.227 79.44C639.827 79.44 631.667 74.4 631.667 61.8C631.667 49.08 639.827 44.16 651.227 44.16C662.747 44.16 670.907 49.32 670.907 61.8C670.907 73.92 662.747 79.44 651.227 79.44ZM784.683 28.68C767.883 28.68 762.483 32.64 758.043 38.64H757.203C753.363 33 746.523 28.68 734.403 28.68C722.403 28.68 716.403 32.64 712.083 38.64H711.243V29.28H693.123V96H711.243V63.6C711.243 54.48 712.323 44.4 728.043 44.4C744.603 44.4 744.363 57.12 744.363 62.4V96H762.483V63.24L762.603 63.6C762.603 54.48 763.683 44.4 779.403 44.4C795.963 44.4 795.723 57.12 795.723 62.4V96H813.963V62.4C813.843 52.56 813.123 28.68 784.683 28.68ZM867.807 28.8L848.367 79.44L828.807 28.8H809.607L835.527 96.12H842.007L832.167 121.68H851.487L887.127 28.8H867.807ZM39.48 165.24C46.44 165.24 56.16 166.08 56.16 166.08V150.6C56.16 150.6 44.52 148.92 33 148.92C19.32 148.92 13.68 153.36 12.6 172.68H3.24V187.68H12.36V240H30.6V187.68H54.96V172.68H30.84C31.32 166.68 33.12 165.24 39.48 165.24ZM93.0628 171.48C72.6628 171.48 55.6228 182.64 55.6228 205.8C55.6228 229.08 72.6628 240 93.0628 240C113.583 240 130.623 229.44 130.623 205.8C130.623 182.4 113.583 171.48 93.0628 171.48ZM93.0628 223.44C81.6628 223.44 73.5028 218.4 73.5028 205.8C73.5028 193.08 81.6628 188.16 93.0628 188.16C104.583 188.16 112.743 193.32 112.743 205.8C112.743 217.92 104.583 223.44 93.0628 223.44ZM175.479 172.68C163.839 172.68 159.759 176.16 155.919 182.64H154.839V172.68H136.599V240H154.839V209.88C154.839 200.76 158.799 190.2 172.359 190.2C178.119 190.2 182.799 191.16 184.479 191.64L187.359 174.48C184.239 173.76 180.279 172.68 175.479 172.68ZM276.848 172.8C264.368 172.8 256.688 176.76 252.128 182.64H251.168V172.8H232.928V265.68H251.168V230.76H252.008C256.568 236.64 264.248 240.24 276.848 240.24C305.168 240.24 308.288 215.52 308.288 206.52C308.288 196.68 305.288 172.8 276.848 172.8ZM271.568 224.52C255.728 224.52 252.488 216.72 252.488 206.52C252.488 197.4 255.728 188.52 271.568 188.52C288.968 188.52 290.888 201.24 290.888 206.52C290.888 211.32 288.968 224.52 271.568 224.52ZM352.667 172.68C341.027 172.68 336.947 176.16 333.107 182.64H332.027V172.68H313.787V240H332.027V209.88C332.027 200.76 335.987 190.2 349.547 190.2C355.307 190.2 359.987 191.16 361.667 191.64L364.547 174.48C361.427 173.76 357.467 172.68 352.667 172.68ZM400.094 171.48C379.694 171.48 362.654 182.64 362.654 205.8C362.654 229.08 379.694 240 400.094 240C420.614 240 437.654 229.44 437.654 205.8C437.654 182.4 420.614 171.48 400.094 171.48ZM400.094 223.44C388.694 223.44 380.534 218.4 380.534 205.8C380.534 193.08 388.694 188.16 400.094 188.16C411.614 188.16 419.774 193.32 419.774 205.8C419.774 217.92 411.614 223.44 400.094 223.44ZM499.579 173.4V183.36H498.499C493.939 177.36 486.379 173.4 473.899 173.4C445.459 173.4 442.459 197.28 442.459 207.12C442.459 216.24 445.579 240.84 473.779 240.84C486.499 240.84 494.179 237.24 498.739 231.48H499.579V236.28C499.579 248.64 494.059 256.68 481.699 256.68C467.419 256.68 464.299 249.72 463.819 246.12C460.819 246.12 450.499 246.12 445.699 246.12C445.699 256.08 451.579 272.4 481.819 272.4C515.299 272.4 517.819 247.44 517.819 233.52V173.4H499.579ZM479.179 225.12C461.779 225.12 459.859 212.04 459.859 207.12C459.859 201.84 461.659 189.12 479.179 189.12C494.899 189.12 498.139 198 498.139 207.12C498.139 217.32 494.899 225.12 479.179 225.12ZM563.253 172.68C551.613 172.68 547.533 176.16 543.693 182.64H542.613V172.68H524.373V240H542.613V209.88C542.613 200.76 546.573 190.2 560.133 190.2C565.893 190.2 570.573 191.16 572.253 191.64L575.133 174.48C572.013 173.76 568.053 172.68 563.253 172.68ZM630.801 182.64C626.241 176.64 618.681 172.68 606.201 172.68C577.761 172.68 574.761 196.56 574.761 206.4C574.761 215.4 577.881 240 606.081 240C618.801 240 626.481 236.52 631.041 230.64H631.641V240H649.881V172.68H631.641V182.64H630.801ZM611.481 224.4C594.081 224.4 592.161 211.2 592.161 206.4C592.161 201.12 593.961 188.4 611.481 188.4C627.201 188.4 630.441 197.28 630.441 206.4C630.441 216.6 627.201 224.4 611.481 224.4ZM748.706 172.68C731.906 172.68 726.506 176.64 722.066 182.64H721.226C717.386 177 710.546 172.68 698.426 172.68C686.426 172.68 680.426 176.64 676.106 182.64H675.266V173.28H657.146V240H675.266V207.6C675.266 198.48 676.346 188.4 692.066 188.4C708.626 188.4 708.386 201.12 708.386 206.4V240H726.506V207.24L726.626 207.6C726.626 198.48 727.706 188.4 743.426 188.4C759.986 188.4 759.746 201.12 759.746 206.4V240H777.986V206.4C777.866 196.56 777.146 172.68 748.706 172.68ZM874.448 172.68C857.648 172.68 852.248 176.64 847.808 182.64H846.968C843.128 177 836.288 172.68 824.168 172.68C812.168 172.68 806.168 176.64 801.848 182.64H801.008V173.28H782.888V240H801.008V207.6C801.008 198.48 802.088 188.4 817.808 188.4C834.368 188.4 834.128 201.12 834.128 206.4V240H852.248V207.24L852.368 207.6C852.368 198.48 853.448 188.4 869.168 188.4C885.728 188.4 885.488 201.12 885.488 206.4V240H903.728V206.4C903.608 196.56 902.888 172.68 874.448 172.68ZM980.968 210.6H981.688C982.648 201.36 981.448 187.2 968.488 178.32V178.44C962.848 174.48 955.168 172.08 945.688 172.08C923.008 172.08 909.568 184.08 909.568 206.04C909.568 228.48 922.648 240 945.688 240C967.768 240 979.528 231.12 981.328 216.6H963.688C962.008 221.04 956.608 224.04 945.688 224.04C933.928 224.04 928.528 219.6 927.208 210.6H980.968ZM945.688 188.04C958.648 188.04 962.008 193.56 963.448 198.6H927.928C930.088 191.76 935.608 188.04 945.688 188.04ZM1026.03 172.68C1014.39 172.68 1010.31 176.16 1006.47 182.64H1005.39V172.68H987.146V240H1005.39V209.88C1005.39 200.76 1009.35 190.2 1022.91 190.2C1028.67 190.2 1033.35 191.16 1035.03 191.64L1037.91 174.48C1034.79 173.76 1030.83 172.68 1026.03 172.68ZM1072.95 199.2L1071.39 199.08C1059.63 197.28 1057.59 195.6 1057.59 192.6C1057.59 190.56 1059.75 186.84 1069.95 186.84C1080.51 186.84 1085.07 189.72 1085.07 195V195.6H1103.67V195C1103.67 184.68 1097.79 172.32 1069.95 172.32C1044.03 172.32 1038.63 183.48 1038.63 192.84C1038.63 206.28 1050.63 210.6 1069.95 213.12C1070.91 213.24 1071.87 213.36 1072.83 213.48C1080.15 214.32 1086.63 215.28 1086.63 220.32C1086.63 224.76 1079.67 225.72 1072.35 225.72C1060.23 225.72 1055.91 223.08 1055.91 217.32V216.72H1037.19V218.04C1037.07 221.52 1037.07 227.16 1041.75 231.84C1047.15 237.24 1057.59 240 1072.83 240C1093.47 240 1105.47 236.76 1105.47 220.08C1105.47 204.12 1088.19 201.48 1072.95 199.2Z" fill="white"/>
  <path d="M914.052 116.638H904L934.948 16H945L914.052 116.638Z" fill="#F27B50"/>
  <path d="M17.398 66L39 44.2487L31.801 37L3 66L31.801 95L38.9949 87.7513L17.398 66Z" fill="#F27B50"/>
  <path d="M1153.6 211L1132 232.751L1139.2 240L1168 211L1139.2 182L1132.01 189.249L1153.6 211Z" fill="#F27B50"/>
</svg>
