<svg width="596" height="129" viewBox="0 0 596 129" fill="none">
  <rect y="121" width="18" height="8" fill="#F27B50"/>
  <rect y="110" width="18" height="8" fill="#F27B50"/>
  <rect y="99" width="18" height="8" fill="#F27B50"/>
  <rect y="88" width="18" height="8" fill="#F27B50"/>
  <rect y="77" width="18" height="8" fill="white"/>
  <rect y="66" width="18" height="8" fill="white"/>
  <rect y="55" width="18" height="8" fill="white"/>
  <rect y="44" width="18" height="8" fill="white"/>
  <rect y="33" width="18" height="8" fill="white"/>
  <rect x="34" y="121" width="18" height="8" fill="#F27B50"/>
  <rect x="34" y="110" width="18" height="8" fill="#F27B50"/>
  <rect x="34" y="99" width="18" height="8" fill="white"/>
  <rect x="34" y="88" width="18" height="8" fill="white"/>
  <rect x="34" y="77" width="18" height="8" fill="white"/>
  <rect x="34" y="66" width="18" height="8" fill="white"/>
  <rect x="68" y="121" width="18" height="8" fill="white"/>
  <rect x="68" y="110" width="18" height="8" fill="white"/>
  <rect x="102" y="121" width="18" height="8" fill="#F27B50"/>
  <rect x="102" y="110" width="18" height="8" fill="#F27B50"/>
  <rect x="102" y="99" width="18" height="8" fill="#F27B50"/>
  <rect x="102" y="88" width="18" height="8" fill="white"/>
  <rect x="102" y="77" width="18" height="8" fill="white"/>
  <rect x="102" y="66" width="18" height="8" fill="white"/>
  <rect x="102" y="55" width="18" height="8" fill="white"/>
  <rect x="102" y="44" width="18" height="8" fill="white"/>
  <rect x="102" y="33" width="18" height="8" fill="white"/>
  <rect x="102" y="22" width="18" height="8" fill="white"/>
  <rect x="136" y="121" width="18" height="8" fill="#F27B50"/>
  <rect x="136" y="110" width="18" height="8" fill="#F27B50"/>
  <rect x="136" y="99" width="18" height="8" fill="white"/>
  <rect x="136" y="88" width="18" height="8" fill="white"/>
  <rect x="136" y="77" width="18" height="8" fill="white"/>
  <rect x="136" y="66" width="18" height="8" fill="white"/>
  <rect x="136" y="55" width="18" height="8" fill="white"/>
  <rect x="170" y="121" width="18" height="8" fill="#F27B50"/>
  <rect x="170" y="110" width="18" height="8" fill="#F27B50"/>
  <rect x="170" y="99" width="18" height="8" fill="#F27B50"/>
  <rect x="170" y="88" width="18" height="8" fill="#F27B50"/>
  <rect x="170" y="77" width="18" height="8" fill="#F27B50"/>
  <rect x="170" y="66" width="18" height="8" fill="white"/>
  <rect x="170" y="55" width="18" height="8" fill="white"/>
  <rect x="170" y="44" width="18" height="8" fill="white"/>
  <rect x="170" y="33" width="18" height="8" fill="white"/>
  <rect x="170" y="22" width="18" height="8" fill="white"/>
  <rect x="170" y="11" width="18" height="8" fill="white"/>
  <rect x="204" y="121" width="18" height="8" fill="#F27B50"/>
  <rect x="204" y="110" width="18" height="8" fill="#F27B50"/>
  <rect x="204" y="99" width="18" height="8" fill="#F27B50"/>
  <rect x="204" y="88" width="18" height="8" fill="#F27B50"/>
  <rect x="204" y="77" width="18" height="8" fill="white"/>
  <rect x="204" y="66" width="18" height="8" fill="white"/>
  <rect x="204" y="55" width="18" height="8" fill="white"/>
  <rect x="204" y="44" width="18" height="8" fill="white"/>
  <rect x="238" y="121" width="18" height="8" fill="#F27B50"/>
  <rect x="238" y="110" width="18" height="8" fill="white"/>
  <rect x="238" y="99" width="18" height="8" fill="white"/>
  <rect x="238" y="88" width="18" height="8" fill="white"/>
  <rect x="238" y="77" width="18" height="8" fill="white"/>
  <rect x="272" y="121" width="18" height="8" fill="#F27B50"/>
  <rect x="272" y="110" width="18" height="8" fill="#F27B50"/>
  <rect x="272" y="99" width="18" height="8" fill="white"/>
  <rect x="272" y="88" width="18" height="8" fill="white"/>
  <rect x="272" y="77" width="18" height="8" fill="white"/>
  <rect x="272" y="66" width="18" height="8" fill="white"/>
  <rect x="272" y="55" width="18" height="8" fill="white"/>
  <rect x="306" y="121" width="18" height="8" fill="#F27B50"/>
  <rect x="306" y="110" width="18" height="8" fill="#F27B50"/>
  <rect x="306" y="99" width="18" height="8" fill="#F27B50"/>
  <rect x="306" y="88" width="18" height="8" fill="white"/>
  <rect x="306" y="77" width="18" height="8" fill="white"/>
  <rect x="306" y="66" width="18" height="8" fill="white"/>
  <rect x="306" y="55" width="18" height="8" fill="white"/>
  <rect x="306" y="44" width="18" height="8" fill="white"/>
  <rect x="340" y="121" width="18" height="8" fill="#F27B50"/>
  <rect x="340" y="110" width="18" height="8" fill="#F27B50"/>
  <rect x="340" y="99" width="18" height="8" fill="#F27B50"/>
  <rect x="340" y="88" width="18" height="8" fill="#F27B50"/>
  <rect x="340" y="77" width="18" height="8" fill="#F27B50"/>
  <rect x="340" y="66" width="18" height="8" fill="white"/>
  <rect x="340" y="55" width="18" height="8" fill="white"/>
  <rect x="340" y="44" width="18" height="8" fill="white"/>
  <rect x="340" y="33" width="18" height="8" fill="white"/>
  <rect x="340" y="22" width="18" height="8" fill="white"/>
  <rect x="340" y="11" width="18" height="8" fill="white"/>
  <rect x="374" y="121" width="18" height="8" fill="#F27B50"/>
  <rect x="374" y="110" width="18" height="8" fill="#F27B50"/>
  <rect x="374" y="99" width="18" height="8" fill="#F27B50"/>
  <rect x="374" y="88" width="18" height="8" fill="white"/>
  <rect x="374" y="77" width="18" height="8" fill="white"/>
  <rect x="374" y="66" width="18" height="8" fill="white"/>
  <rect x="374" y="55" width="18" height="8" fill="white"/>
  <rect x="374" y="44" width="18" height="8" fill="white"/>
  <rect x="374" y="33" width="18" height="8" fill="white"/>
  <rect x="408" y="121" width="18" height="8" fill="#F27B50"/>
  <rect x="408" y="110" width="18" height="8" fill="white"/>
  <rect x="408" y="99" width="18" height="8" fill="white"/>
  <rect x="408" y="88" width="18" height="8" fill="white"/>
  <rect x="408" y="77" width="18" height="8" fill="white"/>
  <rect x="442" y="121" width="18" height="8" fill="#F27B50"/>
  <rect x="442" y="110" width="18" height="8" fill="#F27B50"/>
  <rect x="442" y="99" width="18" height="8" fill="#F27B50"/>
  <rect x="442" y="88" width="18" height="8" fill="white"/>
  <rect x="442" y="77" width="18" height="8" fill="white"/>
  <rect x="442" y="66" width="18" height="8" fill="white"/>
  <rect x="442" y="55" width="18" height="8" fill="white"/>
  <rect x="442" y="44" width="18" height="8" fill="white"/>
  <rect x="476" y="121" width="18" height="8" fill="#F27B50"/>
  <rect x="476" y="110" width="18" height="8" fill="#F27B50"/>
  <rect x="476" y="99" width="18" height="8" fill="#F27B50"/>
  <rect x="476" y="88" width="18" height="8" fill="#F27B50"/>
  <rect x="476" y="77" width="18" height="8" fill="#F27B50"/>
  <rect x="476" y="66" width="18" height="8" fill="white"/>
  <rect x="476" y="55" width="18" height="8" fill="white"/>
  <rect x="476" y="44" width="18" height="8" fill="white"/>
  <rect x="476" y="33" width="18" height="8" fill="white"/>
  <rect x="476" y="22" width="18" height="8" fill="white"/>
  <rect x="510" y="121" width="18" height="8" fill="#F27B50"/>
  <rect x="510" y="110" width="18" height="8" fill="#F27B50"/>
  <rect x="510" y="99" width="18" height="8" fill="#F27B50"/>
  <rect x="510" y="88" width="18" height="8" fill="#F27B50"/>
  <rect x="510" y="77" width="18" height="8" fill="#F27B50"/>
  <rect x="510" y="66" width="18" height="8" fill="#F27B50"/>
  <rect x="510" y="55" width="18" height="8" fill="white"/>
  <rect x="510" y="44" width="18" height="8" fill="white"/>
  <rect x="510" y="33" width="18" height="8" fill="white"/>
  <rect x="510" y="22" width="18" height="8" fill="white"/>
  <rect x="510" y="11" width="18" height="8" fill="white"/>
  <rect x="510" width="18" height="8" fill="white"/>
  <rect x="544" y="121" width="18" height="8" fill="#F27B50"/>
  <rect x="544" y="110" width="18" height="8" fill="#F27B50"/>
  <rect x="544" y="99" width="18" height="8" fill="#F27B50"/>
  <rect x="544" y="88" width="18" height="8" fill="white"/>
  <rect x="544" y="77" width="18" height="8" fill="white"/>
  <rect x="544" y="66" width="18" height="8" fill="white"/>
  <rect x="578" y="121" width="18" height="8" fill="#F27B50"/>
  <rect x="578" y="110" width="18" height="8" fill="white"/>
  <rect x="578" y="99" width="18" height="8" fill="white"/>
  <rect x="578" y="88" width="18" height="8" fill="white"/>
</svg>
