<svg width="628" height="163" viewBox="0 0 628 163" fill="none">
  <path d="M68.317 13.48V18.792H67.741C65.309 15.592 61.277 13.48 54.621 13.48C39.453 13.48 37.853 26.216 37.853 31.464C37.853 36.328 39.517 49.448 54.557 49.448C61.341 49.448 65.437 47.528 67.869 44.456H68.317V47.016C68.317 53.608 65.373 57.896 58.781 57.896C51.165 57.896 49.501 54.184 49.245 52.264C47.645 52.264 42.141 52.264 39.581 52.264C39.581 57.576 42.717 66.28 58.845 66.28C76.701 66.28 78.045 52.968 78.045 45.544V13.48H68.317ZM57.437 41.064C48.157 41.064 47.133 34.088 47.133 31.464C47.133 28.648 48.093 21.864 57.437 21.864C65.821 21.864 67.549 26.6 67.549 31.464C67.549 36.904 65.821 41.064 57.437 41.064ZM91.2045 49V13.352H81.5405V49H91.2045ZM91.2045 10.792V2.088H81.5405V10.792H91.2045ZM124.88 13.48V18.792H124.304C121.872 15.592 117.84 13.48 111.184 13.48C96.0155 13.48 94.4155 26.216 94.4155 31.464C94.4155 36.328 96.0795 49.448 111.12 49.448C117.904 49.448 122 47.528 124.432 44.456H124.88V47.016C124.88 53.608 121.936 57.896 115.344 57.896C107.728 57.896 106.064 54.184 105.808 52.264C104.208 52.264 98.7035 52.264 96.1435 52.264C96.1435 57.576 99.2795 66.28 115.408 66.28C133.264 66.28 134.608 52.968 134.608 45.544V13.48H124.88ZM114 41.064C104.72 41.064 103.696 34.088 103.696 31.464C103.696 28.648 104.656 21.864 114 21.864C122.384 21.864 124.112 26.6 124.112 31.464C124.112 36.904 122.384 41.064 114 41.064ZM196.996 33.32H197.38C197.892 28.392 197.252 20.84 190.34 16.104V16.168C187.332 14.056 183.236 12.776 178.18 12.776C166.084 12.776 158.916 19.176 158.916 30.888C158.916 42.856 165.892 49 178.18 49C189.956 49 196.228 44.264 197.188 36.52H187.78C186.884 38.888 184.004 40.488 178.18 40.488C171.908 40.488 169.028 38.12 168.324 33.32H196.996ZM178.18 21.288C185.092 21.288 186.884 24.232 187.652 26.92H168.708C169.86 23.272 172.804 21.288 178.18 21.288ZM228.265 35.56C227.561 38.056 225.321 40.296 219.177 40.296C212.841 40.296 209.513 37.416 209.513 31.016C209.513 24.936 212.841 21.8 219.177 21.8C225.129 21.8 227.497 23.848 228.329 26.536H237.865C237.033 18.024 229.481 13.032 219.177 13.032C208.617 13.032 200.041 19.432 200.041 31.016C200.041 42.92 208.617 49 219.177 49C229.481 49 237.097 44.2 237.865 35.56H228.265ZM259.321 12.456C248.441 12.456 239.353 18.408 239.353 30.76C239.353 43.176 248.441 49 259.321 49C270.265 49 279.353 43.368 279.353 30.76C279.353 18.28 270.265 12.456 259.321 12.456ZM259.321 40.168C253.241 40.168 248.889 37.48 248.889 30.76C248.889 23.976 253.241 21.352 259.321 21.352C265.465 21.352 269.817 24.104 269.817 30.76C269.817 37.224 265.465 40.168 259.321 40.168ZM304.249 13.096C297.785 13.096 294.521 15.208 292.217 18.408H291.769V13.096H282.041V49H291.769V31.72C291.769 26.856 292.985 21.48 301.433 21.48C310.713 21.48 310.137 28.264 310.137 31.08V49H319.801V31.08C319.801 25.832 319.417 13.096 304.249 13.096ZM341.821 12.456C330.941 12.456 321.853 18.408 321.853 30.76C321.853 43.176 330.941 49 341.821 49C352.765 49 361.853 43.368 361.853 30.76C361.853 18.28 352.765 12.456 341.821 12.456ZM341.821 40.168C335.741 40.168 331.389 37.48 331.389 30.76C331.389 23.976 335.741 21.352 341.821 21.352C347.965 21.352 352.317 24.104 352.317 30.76C352.317 37.224 347.965 40.168 341.821 40.168ZM412.998 13.096C404.038 13.096 401.158 15.208 398.79 18.408H398.342C396.294 15.4 392.646 13.096 386.182 13.096C379.782 13.096 376.582 15.208 374.278 18.408H373.83V13.416H364.166V49H373.83V31.72C373.83 26.856 374.406 21.48 382.79 21.48C391.622 21.48 391.494 28.264 391.494 31.08V49H401.158V31.528L401.222 31.72C401.222 26.856 401.798 21.48 410.182 21.48C419.014 21.48 418.886 28.264 418.886 31.08V49H428.614V31.08C428.549 25.832 428.166 13.096 412.998 13.096ZM457.331 13.16L446.963 40.168L436.531 13.16H426.291L440.115 49.064H443.571L438.323 62.696H448.627L467.635 13.16H457.331ZM511.244 9.128C514.956 9.128 520.14 9.576 520.14 9.576V1.32C520.14 1.32 513.932 0.423996 507.788 0.423996C500.492 0.423996 497.484 2.792 496.908 13.096H491.916V21.096H496.78V49H506.508V21.096H519.5V13.096H506.635C506.892 9.896 507.852 9.128 511.244 9.128ZM539.821 12.456C528.941 12.456 519.853 18.408 519.853 30.76C519.853 43.176 528.941 49 539.821 49C550.765 49 559.853 43.368 559.853 30.76C559.853 18.28 550.765 12.456 539.821 12.456ZM539.821 40.168C533.741 40.168 529.389 37.48 529.389 30.76C529.389 23.976 533.741 21.352 539.821 21.352C545.965 21.352 550.317 24.104 550.317 30.76C550.317 37.224 545.965 40.168 539.821 40.168ZM583.777 13.096C577.569 13.096 575.393 14.952 573.345 18.408H572.769V13.096H563.041V49H572.769V32.936C572.769 28.072 574.881 22.44 582.113 22.44C585.185 22.44 587.681 22.952 588.577 23.208L590.113 14.056C588.449 13.672 586.337 13.096 583.777 13.096ZM104.746 109.16C98.0898 109.16 93.9938 111.272 91.5618 114.408H91.0498V109.16H81.3218V158.696H91.0498V140.072H91.4978C93.9298 143.208 98.0258 145.128 104.746 145.128C119.85 145.128 121.514 131.944 121.514 127.144C121.514 121.896 119.914 109.16 104.746 109.16ZM101.93 136.744C93.4818 136.744 91.7538 132.584 91.7538 127.144C91.7538 122.28 93.4818 117.544 101.93 117.544C111.21 117.544 112.234 124.328 112.234 127.144C112.234 129.704 111.21 136.744 101.93 136.744ZM145.183 109.096C138.975 109.096 136.799 110.952 134.751 114.408H134.175V109.096H124.447V145H134.175V128.936C134.175 124.072 136.287 118.44 143.519 118.44C146.591 118.44 149.087 118.952 149.983 119.208L151.519 110.056C149.855 109.672 147.743 109.096 145.183 109.096ZM170.477 108.456C159.597 108.456 150.509 114.408 150.509 126.76C150.509 139.176 159.597 145 170.477 145C181.421 145 190.509 139.368 190.509 126.76C190.509 114.28 181.421 108.456 170.477 108.456ZM170.477 136.168C164.397 136.168 160.045 133.48 160.045 126.76C160.045 119.976 164.397 117.352 170.477 117.352C176.621 117.352 180.973 120.104 180.973 126.76C180.973 133.224 176.621 136.168 170.477 136.168ZM223.536 109.48V114.792H222.96C220.528 111.592 216.496 109.48 209.84 109.48C194.672 109.48 193.072 122.216 193.072 127.464C193.072 132.328 194.736 145.448 209.776 145.448C216.56 145.448 220.656 143.528 223.088 140.456H223.536V143.016C223.536 149.608 220.592 153.896 214 153.896C206.384 153.896 204.72 150.184 204.464 148.264C202.864 148.264 197.36 148.264 194.8 148.264C194.8 153.576 197.936 162.28 214.064 162.28C231.92 162.28 233.264 148.968 233.264 141.544V109.48H223.536ZM212.656 137.064C203.376 137.064 202.352 130.088 202.352 127.464C202.352 124.648 203.312 117.864 212.656 117.864C221.04 117.864 222.768 122.6 222.768 127.464C222.768 132.904 221.04 137.064 212.656 137.064ZM257.495 109.096C251.287 109.096 249.111 110.952 247.063 114.408H246.487V109.096H236.759V145H246.487V128.936C246.487 124.072 248.599 118.44 255.831 118.44C258.903 118.44 261.399 118.952 262.295 119.208L263.831 110.056C262.167 109.672 260.055 109.096 257.495 109.096ZM293.521 114.408C291.089 111.208 287.057 109.096 280.401 109.096C265.233 109.096 263.633 121.832 263.633 127.08C263.633 131.88 265.297 145 280.337 145C287.121 145 291.217 143.144 293.649 140.008H293.969V145H303.697V109.096H293.969V114.408H293.521ZM283.217 136.68C273.937 136.68 272.913 129.64 272.913 127.08C272.913 124.264 273.873 117.48 283.217 117.48C291.601 117.48 293.329 122.216 293.329 127.08C293.329 132.52 291.601 136.68 283.217 136.68ZM356.404 109.096C347.444 109.096 344.564 111.208 342.196 114.408H341.748C339.7 111.4 336.052 109.096 329.588 109.096C323.188 109.096 319.988 111.208 317.684 114.408H317.236V109.416H307.572V145H317.236V127.72C317.236 122.856 317.812 117.48 326.196 117.48C335.028 117.48 334.9 124.264 334.9 127.08V145H344.564V127.528L344.628 127.72C344.628 122.856 345.204 117.48 353.588 117.48C362.42 117.48 362.292 124.264 362.292 127.08V145H372.02V127.08C371.956 121.832 371.572 109.096 356.404 109.096ZM423.466 109.096C414.506 109.096 411.626 111.208 409.258 114.408H408.81C406.762 111.4 403.114 109.096 396.65 109.096C390.25 109.096 387.05 111.208 384.746 114.408H384.298V109.416H374.634V145H384.298V127.72C384.298 122.856 384.874 117.48 393.258 117.48C402.09 117.48 401.962 124.264 401.962 127.08V145H411.626V127.528L411.69 127.72C411.69 122.856 412.266 117.48 420.65 117.48C429.482 117.48 429.354 124.264 429.354 127.08V145H439.082V127.08C439.018 121.832 438.634 109.096 423.466 109.096ZM480.277 129.32H480.661C481.173 124.392 480.533 116.84 473.621 112.104V112.168C470.613 110.056 466.517 108.776 461.461 108.776C449.365 108.776 442.197 115.176 442.197 126.888C442.197 138.856 449.173 145 461.461 145C473.237 145 479.509 140.264 480.469 132.52H471.061C470.165 134.888 467.285 136.488 461.461 136.488C455.189 136.488 452.309 134.12 451.605 129.32H480.277ZM461.461 117.288C468.373 117.288 470.165 120.232 470.933 122.92H451.989C453.141 119.272 456.085 117.288 461.461 117.288ZM504.308 109.096C498.1 109.096 495.924 110.952 493.876 114.408H493.3V109.096H483.572V145H493.3V128.936C493.3 124.072 495.412 118.44 502.644 118.44C505.716 118.44 508.212 118.952 509.108 119.208L510.644 110.056C508.98 109.672 506.868 109.096 504.308 109.096ZM529.331 123.24L528.499 123.176C522.227 122.216 521.139 121.32 521.139 119.72C521.139 118.632 522.291 116.648 527.731 116.648C533.363 116.648 535.795 118.184 535.795 121V121.32H545.715V121C545.715 115.496 542.579 108.904 527.731 108.904C513.907 108.904 511.027 114.856 511.027 119.848C511.027 127.016 517.427 129.32 527.731 130.664C528.243 130.728 528.755 130.792 529.267 130.856C533.171 131.304 536.627 131.816 536.627 134.504C536.627 136.872 532.915 137.384 529.011 137.384C522.547 137.384 520.243 135.976 520.243 132.904V132.584H510.259V133.288C510.195 135.144 510.195 138.152 512.691 140.648C515.571 143.528 521.139 145 529.267 145C540.275 145 546.675 143.272 546.675 134.376C546.675 125.864 537.459 124.456 529.331 123.24Z" fill="white"/>
  <path d="M7.59893 32L19 44.0007L15.2005 48L0 32L15.2005 16L18.9973 19.9993L7.59893 32Z" fill="#F27B50"/>
  <path d="M581.401 127L570 139.001L573.799 143L589 127L573.799 111L570.003 114.999L581.401 127Z" fill="#F27B50"/>
  <path d="M609.884 55H604L622.116 7H628L609.884 55Z" fill="#F27B50"/>
</svg>
