<svg viewBox="0 0 152 45"
  xmlns="http://www.w3.org/2000/svg">
  <path d="M78.9901 22.214V23.9589H59.3073C59.5358 26.124 60.3518 27.8528 61.7554 29.1454C63.159 30.4379 64.791 31.0842 66.6516 31.0842C70.0137 31.0842 72.3965 29.6947 73.8001 26.9157L78.3536 27.8851C77.3743 30.3733 75.8565 32.2637 73.8001 33.5562C71.7763 34.8165 69.3935 35.4466 66.6516 35.4466C63.2569 35.4466 60.3355 34.2671 57.8874 31.9082C55.4719 29.5493 54.2642 26.5118 54.2642 22.7956C54.2642 19.0472 55.4719 15.9935 57.8874 13.6346C60.3355 11.2434 63.3222 10.0477 66.8475 10.0477C70.1442 10.0477 72.9514 11.1949 75.269 13.4892C77.6191 15.7512 78.8595 18.6594 78.9901 22.214ZM66.8475 14.5071C65.1501 14.5071 63.5833 15.0241 62.1471 16.0582C60.7109 17.0922 59.8132 18.5302 59.4542 20.3721H73.7511C73.3594 18.4656 72.5434 17.0114 71.303 16.0097C70.0626 15.0079 68.5775 14.5071 66.8475 14.5071Z" fill="#65FEB7"/>
  <path d="M98.1416 10.0477C101.047 10.0477 103.397 11.001 105.192 12.9075C106.987 14.7818 107.885 17.2215 107.885 20.2267V34.768H102.744V21.2446C102.744 19.2734 102.205 17.69 101.128 16.4944C100.084 15.2988 98.6965 14.701 96.9665 14.701C94.7142 14.701 92.9353 15.4603 91.6296 16.9791C90.3566 18.4979 89.7201 20.7275 89.7201 23.6681V34.768H84.628V10.7263H89.7201V13.6831C91.7765 11.2595 94.5837 10.0477 98.1416 10.0477Z" fill="#65FEB7"/>
  <path d="M138.101 10.7263V32.6353C138.101 36.1898 136.958 38.9688 134.673 40.9723C132.421 42.9758 129.369 43.9775 125.517 43.9775C119.707 43.9775 115.757 42.0548 113.668 38.2095L117.83 35.1558C118.777 36.6422 119.821 37.7247 120.964 38.4033C122.139 39.0819 123.657 39.4212 125.517 39.4212C127.835 39.4212 129.679 38.7426 131.05 37.3854C132.454 36.0606 133.155 34.2348 133.155 31.9082V30.3571C131.229 32.3606 128.439 33.3623 124.783 33.3623C121.617 33.3623 118.842 32.2314 116.459 29.9694C114.076 27.7074 112.885 24.9445 112.885 21.6808C112.885 18.4171 114.06 15.6704 116.41 13.4407C118.793 11.211 121.584 10.0962 124.783 10.0962C128.439 10.0962 131.229 11.0979 133.155 13.1014V10.7263H138.101ZM125.615 28.9999C127.672 28.9999 129.434 28.3213 130.903 26.9642C132.405 25.5746 133.155 23.8135 133.155 21.6808C133.155 19.5158 132.405 17.7546 130.903 16.3975C129.434 15.0403 127.672 14.3617 125.615 14.3617C123.396 14.3617 121.535 15.0403 120.033 16.3975C118.565 17.7223 117.83 19.4834 117.83 21.6808C117.83 23.8458 118.565 25.607 120.033 26.9642C121.535 28.3213 123.396 28.9999 125.615 28.9999Z" fill="#65FEB7"/>
  <path d="M148.769 0.353516C149.683 0.353516 150.45 0.660499 151.07 1.27447C151.69 1.88843 152 2.63166 152 3.50414C152 4.40893 151.69 5.15215 151.07 5.73381C150.482 6.31546 149.715 6.60629 148.769 6.60629C147.822 6.60629 147.039 6.31546 146.418 5.73381C145.798 5.15215 145.488 4.40893 145.488 3.50414C145.488 2.63166 145.798 1.88843 146.418 1.27447C147.039 0.660499 147.822 0.353516 148.769 0.353516ZM151.315 34.768H146.223V10.7263H151.315V34.768Z" fill="#65FEB7"/>
  <ellipse cx="22.4577" cy="22.1667" rx="22.4577" ry="22.1667" fill="inherit"/>
  <path fill-rule="evenodd" clip-rule="evenodd" d="M22.4578 31.5655C26.3763 31.5655 29.742 29.2292 31.2031 25.8908H34.6466C33.0379 31.0265 28.1893 34.7575 22.4578 34.7575C16.7263 34.7575 11.8777 31.0265 10.269 25.8908H13.7124C15.1735 29.2292 18.5392 31.5655 22.4578 31.5655ZM22.4578 12.7682C18.5392 12.7682 15.1735 15.1045 13.7124 18.4428H10.269C11.8777 13.3072 16.7263 9.57617 22.4578 9.57617C28.1893 9.57617 33.0379 13.3072 34.6466 18.4428H34.6481C35.1344 20.1082 35.2138 21.397 35.2138 21.9895C35.2138 22.9344 35.1344 23.5873 35.1344 23.5873H4.94482L7.46009 20.4791H21.3496H28.3368H31.8283C31.8283 20.4791 31.6205 19.3295 31.2037 18.4428H31.2031C29.742 15.1045 26.3763 12.7682 22.4578 12.7682Z" fill="#070706"/>
</svg>
