<svg width="77" height="35" viewBox="0 0 77 35" fill="none" xmlns="http://www.w3.org/2000/svg">
<path fill-rule="evenodd" clip-rule="evenodd" d="M75.1252 0C74.0899 0 73.2507 0.839252 73.2507 1.87452C73.2507 2.90979 74.0899 3.74904 75.1252 3.74904C76.1605 3.74904 76.9997 2.90979 76.9997 1.87452C76.9997 0.839252 76.1605 0 75.1252 0ZM21.0746 18.4575C19.9019 21.172 17.2006 23.0717 14.0557 23.0717C10.9107 23.0717 8.20943 21.172 7.03677 18.4575H4.27311C5.56424 22.6334 9.45566 25.6672 14.0557 25.6672C18.6557 25.6672 22.5471 22.6334 23.8382 18.4575H21.0746ZM7.03677 12.4013C8.20943 9.68681 10.9107 7.7871 14.0557 7.7871C17.2006 7.7871 19.9019 9.68681 21.0746 12.4013H21.075C21.4096 13.1223 21.5763 14.0571 21.5763 14.0571H18.7741H13.1662H2.01872L0 16.5844H24.2298C24.2298 16.5844 24.2934 16.0535 24.2934 15.2852C24.2934 14.8034 24.2298 13.7554 23.8395 12.4013H23.8382C22.5471 8.22541 18.6557 5.19161 14.0557 5.19161C9.45566 5.19161 5.56424 8.22541 4.27311 12.4013H7.03677ZM44.1228 22.2065V14.9968C44.1228 11.015 40.8949 7.7871 36.9131 7.7871C32.9313 7.7871 29.7034 11.015 29.7034 14.9968V22.2065V23.0717V25.6672H27.1079V14.9968C27.1079 9.58154 31.4978 5.19161 36.9131 5.19161C42.3284 5.19161 46.7183 9.58154 46.7183 14.9968V25.6672H44.1228V23.0717V22.2065ZM67.4819 16.6607C66.8922 20.349 63.696 23.1672 59.8416 23.1672C55.5682 23.1672 52.1038 19.7028 52.1038 15.4294C52.1038 11.1559 55.5682 7.69161 59.8416 7.69161C63.696 7.69161 66.8922 10.5098 67.4819 14.198V16.6607ZM67.4819 8.61474C65.6071 6.51415 62.8788 5.19161 59.8416 5.19161C54.1874 5.19161 49.6038 9.77522 49.6038 15.4294C49.6038 21.0835 54.1874 25.6672 59.8416 25.6672C62.8788 25.6672 65.6071 24.3446 67.4819 22.244V24.0806C67.4819 28.3013 64.0604 31.7229 59.8397 31.7229C56.6947 31.7229 53.9934 29.8232 52.8208 27.1087H50.0571C51.3482 31.2846 55.2397 34.3184 59.8397 34.3184C65.4938 34.3184 70.0774 29.7348 70.0774 24.0806V15.631C70.0787 15.5639 70.0794 15.4967 70.0794 15.4294C70.0794 15.362 70.0787 15.2948 70.0774 15.2278V6.05636H67.4819V8.61474ZM73.8272 6.05636H76.4227V25.6667H73.8272V6.05636Z" />
</svg>
