<svg width="21" height="26" viewBox="0 0 21 26">
  <path d="M2.93621 24.821L1.81376 1.81079H0.971924L1.81376 24.821H2.93621Z" fill="#B57EE5"/>
  <path d="M3.40394 24.8204L2.28149 1.81026L20.6148 0.500732V25.6623L3.40394 24.8204Z" fill="#F1618C"/>
  <path d="M15.9381 3.86745L16.172 0.73395L18.3701 0.546875V3.86745L17.2647 2.86754L15.9381 3.86745Z" fill="white"/>
  <path d="M13.0047 10.3485L16.6189 10.2587C16.7087 6.75665 14.8904 5.02808 11.7251 5.02808C8.55977 5.02808 6.7863 6.82399 6.7863 9.51787C6.7863 14.2097 12.8475 14.2995 12.8475 16.8587C12.8475 17.5771 12.5108 18.0036 11.77 18.0036C10.8047 18.0036 10.423 17.375 10.4679 15.624H6.67406C6.38222 19.9566 8.91895 20.9444 11.8149 20.9444C14.621 20.9444 16.821 19.6424 16.821 16.8138C16.821 11.7852 10.67 11.9199 10.67 9.42807C10.67 8.41787 11.3883 8.28318 11.8149 8.28318C12.2639 8.28318 13.072 8.46277 13.0047 10.3485Z" fill="white"/>
</svg>
