<svg width="18" height="18" viewBox="0 0 18 18" fill="none"
  xmlns="http://www.w3.org/2000/svg">
  <g clip-path="url(#clip0_5143_12151)">
    <path d="M15.4958 14.5324C8.20945 18.0001 3.68745 15.0987 0.792773 13.3365C0.613651 13.2255 0.309207 13.3625 0.573354 13.6659C1.53772 14.8352 4.69813 17.6536 8.82339 17.6536C12.9515 17.6536 15.4073 15.4011 15.7145 15.0082C16.0197 14.6186 15.8041 14.4036 15.4957 14.5324H15.4958ZM17.5422 13.4022C17.3465 13.1474 16.3524 13.0999 15.7267 13.1768C15.1001 13.2514 14.1596 13.6344 14.2413 13.8643C14.2833 13.9505 14.369 13.9118 14.7994 13.8731C15.231 13.8301 16.4402 13.6775 16.6922 14.0068C16.9453 14.3385 16.3065 15.9184 16.1899 16.1732C16.0771 16.428 16.2329 16.4937 16.4447 16.324C16.6535 16.1544 17.0315 15.715 17.2852 15.0933C17.5372 14.4682 17.6908 13.5963 17.5421 13.4022H17.5422Z" fill="#FF9900" />
    <path fill-rule="evenodd" clip-rule="evenodd" d="M10.5965 7.45649C10.5965 8.36636 10.6195 9.12515 10.1596 9.93317C9.78842 10.5902 9.20044 10.9942 8.5435 10.9942C7.64672 10.9942 7.12445 10.3109 7.12445 9.30254C7.12445 7.31192 8.90805 6.95063 10.5965 6.95063V7.45649ZM12.9517 13.149C12.7973 13.287 12.5739 13.2969 12.3998 13.2049C11.6246 12.5611 11.4866 12.2622 11.0596 11.6479C9.77859 12.9552 8.87197 13.3461 7.20989 13.3461C5.24558 13.3461 3.71484 12.134 3.71484 9.70655C3.71484 7.81127 4.74304 6.52031 6.20468 5.88968C7.47265 5.3312 9.24316 5.23267 10.5965 5.07834V4.77611C10.5965 4.22095 10.6392 3.56401 10.314 3.08446C10.0282 2.65414 9.48294 2.47675 9.00332 2.47675C8.11318 2.47675 7.31825 2.93331 7.12445 3.87932C7.08498 4.0896 6.93065 4.29656 6.72044 4.30639L4.4539 4.06336C4.26342 4.02057 4.05321 3.86624 4.10577 3.57384C4.62804 0.827822 7.10797 0 9.32847 0C10.465 0 11.9497 0.302228 12.8465 1.16287C13.9831 2.22382 13.8746 3.63955 13.8746 5.18012V8.81967C13.8746 9.9135 14.3279 10.3931 14.7549 10.9844C14.906 11.1946 14.9389 11.4476 14.7484 11.6052C14.2721 12.0026 13.4246 12.7417 12.9582 13.1556L12.9516 13.149" fill="black" />
    <path d="M15.4958 14.5324C8.20945 18.0001 3.68745 15.0987 0.792773 13.3365C0.613651 13.2255 0.309207 13.3625 0.573354 13.6659C1.53772 14.8352 4.69813 17.6536 8.82339 17.6536C12.9515 17.6536 15.4073 15.4011 15.7145 15.0082C16.0197 14.6186 15.8041 14.4036 15.4957 14.5324H15.4958ZM17.5422 13.4022C17.3465 13.1474 16.3524 13.0999 15.7267 13.1768C15.1001 13.2514 14.1596 13.6344 14.2413 13.8643C14.2833 13.9505 14.369 13.9118 14.7994 13.8731C15.231 13.8301 16.4402 13.6775 16.6922 14.0068C16.9453 14.3385 16.3065 15.9184 16.1899 16.1732C16.0771 16.428 16.2329 16.4937 16.4447 16.324C16.6535 16.1544 17.0315 15.715 17.2852 15.0933C17.5372 14.4682 17.6908 13.5963 17.5421 13.4022H17.5422Z" fill="#FF9900" />
    <path fill-rule="evenodd" clip-rule="evenodd" d="M10.5965 7.45649C10.5965 8.36636 10.6195 9.12515 10.1596 9.93317C9.78842 10.5902 9.20044 10.9942 8.5435 10.9942C7.64672 10.9942 7.12445 10.3109 7.12445 9.30254C7.12445 7.31192 8.90805 6.95063 10.5965 6.95063V7.45649ZM12.9517 13.149C12.7973 13.287 12.5739 13.2969 12.3998 13.2049C11.6246 12.5611 11.4866 12.2622 11.0596 11.6479C9.77859 12.9552 8.87197 13.3461 7.20989 13.3461C5.24558 13.3461 3.71484 12.134 3.71484 9.70655C3.71484 7.81127 4.74304 6.52031 6.20468 5.88968C7.47265 5.3312 9.24316 5.23267 10.5965 5.07834V4.77611C10.5965 4.22095 10.6392 3.56401 10.314 3.08446C10.0282 2.65414 9.48294 2.47675 9.00332 2.47675C8.11318 2.47675 7.31825 2.93331 7.12445 3.87932C7.08498 4.0896 6.93065 4.29656 6.72044 4.30639L4.4539 4.06336C4.26342 4.02057 4.05321 3.86624 4.10577 3.57384C4.62804 0.827822 7.10797 0 9.32847 0C10.465 0 11.9497 0.302228 12.8465 1.16287C13.9831 2.22382 13.8746 3.63955 13.8746 5.18012V8.81967C13.8746 9.9135 14.3279 10.3931 14.7549 10.9844C14.906 11.1946 14.9389 11.4476 14.7484 11.6052C14.2721 12.0026 13.4246 12.7417 12.9582 13.1556L12.9516 13.149" fill="#FF9900" />
  </g>
  <defs>
    <clipPath id="clip0_5143_12151">
      <rect width="18" height="18" fill="white" />
    </clipPath>
  </defs>
</svg>