<svg width="18" height="18" viewBox="0 0 18 18" fill="none"
  xmlns="http://www.w3.org/2000/svg">
  <path d="M9.5962 1.56634C10.7788 0.00759915 12.423 0 12.423 0C12.423 0 12.6675 1.46548 11.4926 2.87721C10.2382 4.38462 8.81227 4.13796 8.81227 4.13796C8.81227 4.13796 8.54453 2.95243 9.5962 1.56634ZM8.96269 5.16452C9.57109 5.16452 10.7003 4.3282 12.17 4.3282C14.7 4.3282 15.6953 6.12843 15.6953 6.12843C15.6953 6.12843 13.7487 7.12368 13.7487 9.53862C13.7487 12.2629 16.1736 13.2017 16.1736 13.2017C16.1736 13.2017 14.4785 17.9728 12.1889 17.9728C11.1373 17.9728 10.3197 17.2642 9.21166 17.2642C8.08249 17.2642 6.96195 17.9993 6.23214 17.9993C4.14137 17.9993 1.5 13.4734 1.5 9.83537C1.5 6.25602 3.73575 4.37835 5.83279 4.37835C7.19605 4.37835 8.25396 5.16452 8.96269 5.16452Z" fill="white" />
</svg>