<svg width="18" height="18" viewBox="0 0 18 18" fill="none"
  xmlns="http://www.w3.org/2000/svg">
  <path d="M17.8088 9.2025C17.8088 8.61 17.7563 8.0475 17.6663 7.5H9.19128V10.8825H14.0438C13.8263 11.9925 13.1888 12.93 12.2438 13.5675V15.8175H15.1388C16.8338 14.25 17.8088 11.94 17.8088 9.2025Z" fill="#4285F4" />
  <path d="M9.19131 18C11.6213 18 13.6538 17.19 15.1388 15.8175L12.2438 13.5675C11.4338 14.1075 10.4063 14.4375 9.19131 14.4375C6.84381 14.4375 4.85631 12.855 4.14381 10.7175H1.15881V13.035C2.63631 15.975 5.67381 18 9.19131 18Z" fill="#34A853" />
  <path d="M4.14378 10.7176C3.95628 10.1776 3.85878 9.60009 3.85878 9.00009C3.85878 8.40009 3.96378 7.82259 4.14378 7.28259V4.96509H1.15878C0.543783 6.18009 0.191284 7.54509 0.191284 9.00009C0.191284 10.4551 0.543783 11.8201 1.15878 13.0351L4.14378 10.7176Z" fill="#FBBC05" />
  <path d="M9.19131 3.5625C10.5188 3.5625 11.7038 4.02 12.6413 4.9125L15.2063 2.3475C13.6538 0.892501 11.6213 0 9.19131 0C5.67381 0 2.63631 2.025 1.15881 4.965L4.14381 7.2825C4.85631 5.145 6.84381 3.5625 9.19131 3.5625Z" fill="#EA4335" />
</svg>