<svg width="160" height="35" viewBox="0 0 160 35" fill="none"
  xmlns="http://www.w3.org/2000/svg">
  <g clip-path="url(#clip0_5143_12642)">
    <path opacity="0.4" d="M38.44 28.635C40.9262 28.077 43.574 26.656 46.1019 26.7084V26.7663C47.3633 26.7928 48.5361 28.272 47.676 29.3879C44.2047 33.8779 33.9365 33.899 28.62 34.3096C20.8173 34.9095 12.8322 35.2254 5.02421 34.6252C3.46054 34.5043 2.87154 32.1196 4.62807 31.8354L25.8419 30.2564C30.0483 29.9299 34.3222 29.5667 38.44 28.635Z" fill="currentColor"/>
    <path opacity="0.4" d="M36.7459 17.8123C39.2373 17.1806 41.8954 15.6331 44.4495 15.6857L44.4391 15.6699C45.716 15.7015 46.7428 17.1227 45.9767 18.2281C42.7661 22.8707 31.8931 23.2025 26.6706 23.6499C18.774 24.3342 10.4448 24.8237 2.53783 23.913C0.833419 23.7183 0.838631 21.5864 2.53783 21.3864L25.2476 19.6757C29.0996 19.2335 32.9929 18.7703 36.7459 17.8123Z" fill="currentColor"/>
    <path opacity="0.4" d="M36.9699 7.22736C39.3052 6.64835 41.5307 5.33241 43.9022 5.06922L43.8918 5.06395C45.4556 4.8955 45.9871 6.66415 45.4973 7.73797C43.2873 12.5491 31.0123 12.7912 26.5455 13.3176L2.03747 15.7811C-0.0995553 15.9284 -0.193375 13.0702 1.56837 12.4385C8.44854 9.98561 16.8872 10.1435 24.1061 9.30131C28.4063 8.796 32.7742 8.28014 36.9699 7.22736Z" fill="currentColor"/>
    <path d="M63.8585 5.98523C63.8585 5.81323 63.7182 5.67383 63.5452 5.67383H57.7184C57.5473 5.67383 57.4078 5.81032 57.4052 5.98039L57.3728 8.0442V13.6647V16.0736L57.4098 18.174V27.7514C57.4098 32.203 60.1182 34.9458 64.5464 34.9458C66.3028 34.9458 67.3428 34.5874 67.7725 34.3976C67.879 34.3505 67.9426 34.2437 67.9426 34.1282V29.0432C67.9426 28.8426 67.7547 28.6952 67.5566 28.7338C67.1869 28.8063 66.716 28.8755 66.223 28.8755C64.8043 28.8755 63.8585 28.3808 63.8585 26.5374V18.4854C63.8585 18.3134 63.9988 18.174 64.172 18.174H67.7153C67.8883 18.174 68.0286 18.0345 68.0286 17.8625V12.5051C68.0286 12.3331 67.8883 12.1937 67.7153 12.1937H64.172C63.9988 12.1937 63.8585 12.0543 63.8585 11.8823V5.98523Z" fill="currentColor"/>
    <path d="M84.9526 12.3573C84.9526 12.2207 84.8633 12.0992 84.7294 12.0674C84.3087 11.9676 83.7578 11.9043 83.2071 11.9043C81.7858 11.9043 79.6993 12.378 78.3605 13.9039C78.1386 14.1568 77.5776 14.0068 77.5776 13.6714V12.439C77.5776 12.267 77.4373 12.1276 77.2643 12.1276H71.4761C71.3032 12.1276 71.1628 12.267 71.1628 12.439V34.014C71.1628 34.1859 71.3032 34.3253 71.4761 34.3253H77.4823C77.6555 34.3253 77.7959 34.1859 77.7959 34.014V24.6333C77.7959 20.2117 80.1959 18.6038 82.8579 18.6038C83.3966 18.6038 83.9649 18.6341 84.563 18.7444C84.7626 18.7812 84.9526 18.6329 84.9526 18.4312V12.3573Z" fill="currentColor"/>
    <path d="M95.2808 34.3232C95.4538 34.3232 95.5941 34.1838 95.5941 34.0117V12.4051C95.5941 12.2331 95.4538 12.0937 95.2808 12.0937H88.414C88.2408 12.0937 88.1005 12.2331 88.1005 12.4051V34.0117C88.1005 34.1838 88.2408 34.3232 88.414 34.3232H95.2808ZM87.4597 5.29519C87.4597 7.48682 89.4318 9.27592 91.7981 9.27592C94.2631 9.27592 96.2351 7.48682 96.2351 5.29519C96.2351 3.10355 94.2631 1.31445 91.7981 1.31445C89.4318 1.31445 87.4597 3.10355 87.4597 5.29519Z" fill="currentColor"/>
    <path d="M105.111 34.4541C105.284 34.4541 105.424 34.3149 105.424 34.1428V33.0498C105.424 32.7349 105.888 32.588 106.108 32.8149C107.325 34.0718 109.327 34.9482 111.788 34.9482C118.107 34.9482 122.561 30.0531 122.561 23.2268C122.561 16.5351 118.607 11.5951 112.061 11.5951C109.539 11.5951 107.411 12.432 106.194 13.4963C105.962 13.6988 105.515 13.5411 105.515 13.2346V2.25085C105.515 2.07885 105.375 1.93945 105.202 1.93945H99.056C98.8828 1.93945 98.7424 2.07885 98.7424 2.25085V34.1428C98.7424 34.3149 98.8828 34.4541 99.056 34.4541H105.111ZM115.652 23.2716C115.652 26.9991 113.243 28.8405 110.561 28.8405C107.879 28.8405 105.424 26.9543 105.424 23.2716C105.424 19.4992 107.879 17.7477 110.561 17.7477C113.243 17.7477 115.652 19.4992 115.652 23.2716Z" fill="currentColor"/>
    <path d="M132.891 20.4406C132.708 20.4406 132.563 20.285 132.595 20.1059C132.885 18.5092 134.332 16.6683 137.046 16.6683C140.108 16.6683 141.338 18.4815 141.556 20.1138C141.579 20.2907 141.435 20.4406 141.256 20.4406H132.891ZM142.366 26.3126C142.208 26.2681 142.043 26.3535 141.979 26.504C141.299 28.1044 139.912 29.1529 137.545 29.1529C134.984 29.1529 132.755 27.5109 132.445 25.1692C132.422 24.9922 132.566 24.8417 132.745 24.8417H147.898C148.033 24.8417 148.145 24.754 148.161 24.621C148.206 24.2405 148.26 23.459 148.26 22.731C148.26 15.5456 143.947 11.2793 136.955 11.2793C131.098 11.2793 125.695 15.86 125.695 23.0454C125.695 30.5449 131.234 34.9461 137.454 34.9461C143.027 34.9461 146.575 31.8774 147.762 28.1484C147.814 27.9845 147.717 27.8127 147.55 27.7661L142.366 26.3126Z" fill="currentColor"/>
    <path d="M151.394 30.2537C151.394 32.7603 153.363 34.9476 155.761 34.9476C158.158 34.9476 160.17 32.7603 160.17 30.2537C160.17 27.7018 158.158 25.6055 155.761 25.6055C153.363 25.6055 151.394 27.7018 151.394 30.2537Z" fill="currentColor"/>
  </g>
  <defs>
    <clipPath id="clip0_5143_12642">
      <rect width="160" height="35" fill="white"/>
    </clipPath>
  </defs>
</svg>
