<svg width="143" height="36" viewBox="0 0 143 36" fill="none"
  xmlns="http://www.w3.org/2000/svg">
  <g clip-path="url(#clip0_5143_12633)">
    <path d="M91.3054 9.06118C85.6469 9.06118 81.0849 13.6141 81.0849 19.1739C81.0849 24.7556 85.6249 29.2867 91.3054 29.2867C96.986 29.2867 101.526 24.7556 101.526 19.1739C101.504 13.636 96.9421 9.06118 91.3054 9.06118ZM91.3054 23.7925C88.8709 23.7925 87.0505 21.91 87.0505 19.1958C87.0505 16.4816 88.849 14.5991 91.3054 14.5991C93.74 14.5991 95.5604 16.4816 95.5604 19.1958C95.5384 21.91 93.6961 23.7925 91.3054 23.7925ZM135.872 23.5736C134.249 23.5736 133.591 22.9169 133.591 21.2534V14.5553H136.772V9.38951H133.613V4.20182L127.67 5.95294V9.38951H125.125V14.5553H127.67V22.9388C127.67 26.66 129.994 28.9802 133.701 28.9802H137.408V23.5736H135.872ZM39.3035 9.06118C37.6804 9.06118 36.1232 9.60841 34.9827 10.5715V9.38951H29.039V36.2255H34.9827V27.842C36.1232 28.7613 37.7024 29.3523 39.3035 29.3523C45.1156 29.3523 48.8002 24.6024 48.8002 19.2396C48.8002 13.8111 45.1156 9.06118 39.3035 9.06118ZM38.4481 23.7487C36.0136 23.7487 34.1932 21.8663 34.1932 19.152C34.1932 16.4378 35.9916 14.5553 38.4481 14.5553C40.9045 14.5553 42.703 16.4378 42.703 19.152C42.703 21.8663 40.8607 23.7487 38.4481 23.7487ZM68.9562 9.78352C69.1536 9.67408 69.0659 9.4114 68.8685 9.4114H59.3936V6.85039C59.3936 5.97483 59.9419 5.31816 61.3018 5.31816H64.5258V0.152344H59.0866C55.8186 0.152344 53.7789 2.34124 53.7789 5.12115V9.4114H50.9058V14.5772H53.4499V29.0021H59.3936V14.5772H65.8199C65.9734 13.8768 66.2804 11.1406 68.9562 9.78352ZM74.549 9.52085C72.7944 9.52085 71.1275 10.0024 69.9432 11.0312C68.8027 12.0162 68.1447 13.2639 67.7719 14.6867C67.5306 15.606 67.4429 16.6567 67.4429 17.6855C67.4429 21.713 67.4429 29.1115 67.4429 29.1115H73.3866C73.3866 29.1115 73.3866 23.8582 73.3866 20.531C73.3866 19.0864 73.3427 16.985 74.0884 15.8906C74.7464 14.9712 75.4482 14.7523 76.4352 14.6867C76.5229 14.6867 76.5887 14.6867 76.6984 14.6867C78.3214 14.6867 79.0013 14.6867 79.9663 14.6867V9.52085C77.9705 9.52085 76.172 9.52085 74.549 9.52085ZM18.9281 19.2834C18.9281 21.9538 17.8315 23.902 15.4847 23.902H15.2435C12.8967 23.902 11.8001 21.9319 11.8001 19.2834V9.38951H5.8125V20.3122C5.8125 25.6312 8.90499 29.3085 14.2127 29.3085C15.8576 29.3085 17.7219 28.6519 18.8843 27.5355V28.9802H24.828V9.36763H18.9062V19.2834H18.9281ZM114.993 9.06118C113.348 9.06118 111.483 9.71785 110.321 10.8342V9.38951H104.377V29.0021H110.321V19.1083C110.321 16.4378 111.418 14.4897 113.764 14.4897H114.006C116.352 14.4897 117.449 16.4597 117.449 19.1083V29.0021H123.393V18.0795C123.371 12.7167 120.256 9.06118 114.993 9.06118Z" fill="#65FEB7"/>
  </g>
  <defs>
    <clipPath id="clip0_5143_12633">
      <rect width="143" height="36" fill="white"/>
    </clipPath>
  </defs>
</svg>
