<svg
  width="28"
  height="36"
  viewBox="0 0 28 36"
  fill="none"
  xmlns="http://www.w3.org/2000/svg"
>
  <path
    d="M12.3333 27H7.23493C6.73993 24.8783 4.5066 23.1433 3.58993 22C2.02025 20.0388 1.03651 17.6741 0.75204 15.1782C0.467568 12.6824 0.893934 10.157 1.98202 7.89286C3.07011 5.62876 4.77566 3.71808 6.90219 2.38093C9.02873 1.04378 11.4897 0.334559 14.0017 0.334961C16.5137 0.335363 18.9745 1.04537 21.1006 2.3832C23.2267 3.72103 24.9317 5.63226 26.019 7.89671C27.1064 10.1612 27.5319 12.6867 27.2467 15.1825C26.9614 17.6782 25.9769 20.0426 24.4066 22.0033C23.4899 23.145 21.2599 24.88 20.7649 27H15.6666V18.6666H12.3333V27ZM20.6666 30.3333V32C20.6666 32.884 20.3154 33.7319 19.6903 34.357C19.0652 34.9821 18.2173 35.3333 17.3333 35.3333H10.6666C9.78255 35.3333 8.9347 34.9821 8.30958 34.357C7.68446 33.7319 7.33327 32.884 7.33327 32V30.3333H20.6666Z"
    fill="white"
  />
</svg>