<svg
  width="28"
  height="38"
  viewBox="0 0 28 38"
  fill="none"
  xmlns="http://www.w3.org/2000/svg"
>
  <path
    d="M8.16341 31.3334H19.8367C18.7341 33.9706 16.6373 36.0675 14.0001 37.1701C11.3629 36.0675 9.26602 33.9706 8.16341 31.3334ZM24.0001 22.6751L27.3334 26.4551V29.6667H0.666748V26.4551L4.00008 22.6751V13.0001C4.00008 7.19505 8.17341 2.25505 14.0001 0.425049C19.8267 2.25505 24.0001 7.19505 24.0001 13.0001V22.6751ZM14.0001 16.3334C14.8841 16.3334 15.732 15.9822 16.3571 15.3571C16.9822 14.732 17.3334 13.8841 17.3334 13.0001C17.3334 12.116 16.9822 11.2682 16.3571 10.643C15.732 10.0179 14.8841 9.66672 14.0001 9.66672C13.116 9.66672 12.2682 10.0179 11.6431 10.643C11.0179 11.2682 10.6667 12.116 10.6667 13.0001C10.6667 13.8841 11.0179 14.732 11.6431 15.3571C12.2682 15.9822 13.116 16.3334 14.0001 16.3334Z"
    fill="white"
  />
</svg>